<?xml version="1.0" encoding="UTF-8" standalone="no"?>
<!-- Created with Inkscape (http://www.inkscape.org/) -->

<svg
   width="125.31534mm"
   height="196.61275mm"
   viewBox="0 0 125.31534 196.61274"
   version="1.1"
   id="svg142864"
   inkscape:version="1.1.2 (0a00cf5339, 2022-02-04)"
   sodipodi:docname="SimLyon.svg"
   xmlns:inkscape="http://www.inkscape.org/namespaces/inkscape"
   xmlns:sodipodi="http://sodipodi.sourceforge.net/DTD/sodipodi-0.dtd"
   xmlns="http://www.w3.org/2000/svg"
   xmlns:svg="http://www.w3.org/2000/svg">
  <sodipodi:namedview
     id="namedview142866"
     pagecolor="#ffffff"
     bordercolor="#666666"
     borderopacity="1.0"
     inkscape:pageshadow="2"
     inkscape:pageopacity="0.0"
     inkscape:pagecheckerboard="0"
     inkscape:document-units="mm"
     showgrid="false"
     fit-margin-top="0"
     fit-margin-left="0"
     fit-margin-right="0"
     fit-margin-bottom="0"
     inkscape:zoom="0.64052329"
     inkscape:cx="292.7294"
     inkscape:cy="263.06616"
     inkscape:window-width="1920"
     inkscape:window-height="1016"
     inkscape:window-x="0"
     inkscape:window-y="0"
     inkscape:window-maximized="1"
     inkscape:current-layer="layer1" />
  <defs
     id="defs142861" />
  <g
     inkscape:label="Layer 1"
     inkscape:groupmode="layer"
     id="layer1"
     transform="translate(-49.387599,-185.06891)">
    <path
       id="path46476"
       style="display:inline;fill:#4e84a6;fill-opacity:1;stroke:none;stroke-width:80.3722;stroke-linecap:round;stroke-linejoin:round;stroke-miterlimit:4;stroke-dasharray:none;stroke-opacity:1"
       inkscape:transform-center-x="1.7063868"
       inkscape:transform-center-y="1.4359038"
       d="m 117.942,185.4528 c -0.2039,0 -0.4768,0.4362 -0.6367,0.4734 -0.1155,0.2237 -0.2898,0.7648 0.1222,1.2899 0.063,0.6916 0.9287,1.8356 1.7644,2.5893 0.5506,1.2841 1.6974,1.5019 2.6119,2.1784 1.0222,0.8584 1.8735,1.523 2.7671,2.1982 0.9314,0.7039 1.6188,1.5071 2.253,2.2552 0.5144,0.6069 1.2627,1.9477 1.8029,2.6518 0.6339,1.2307 0.517,1.3588 0.9287,1.9328 0.2384,1.0327 1.1168,1.5564 1.6703,2.3767 0.5531,0.8198 1.0314,1.7932 1.5435,2.7072 0.4187,0.9857 1.0377,1.7764 1.4633,2.7541 0.418,0.9602 0.7005,2.0207 0.9606,3.1336 0.2569,1.0996 0.3468,2.6793 0.4476,3.7727 0,1.4139 -0.054,2.5364 -0.075,3.4509 -0.191,1.5246 -0.256,1.698 -0.3623,2.5145 -0.3077,1.0595 -0.4145,1.9119 -0.6805,2.8966 -0.3615,0.9091 -0.6294,2.0604 -1.0545,3.0462 -0.4063,0.9525 -0.8909,1.9183 -1.4398,2.8121 -0.5356,0.907 -0.8979,1.7702 -1.5711,2.5759 -0.4425,0.8702 -1.5141,1.3642 -2.3763,2.0994 -0.8429,0.4318 -1.6761,1.3525 -2.6151,1.9909 -0.8488,0.567 -1.841,1.1183 -2.8155,1.6245 -0.9681,0.5028 -2.025,1.054 -3.0542,1.4069 l 0.2718,-3.3177 0.2739,-3.3935 0.1698,-3.7004 0.3784,-2.6139 0.3107,-3.1031 0.3795,-3.4666 c -0.043,-1.1272 -0.3096,-2.1725 -0.7649,-3.1214 -0.4521,-0.941 -1.1443,-2.2288 -1.9287,-2.932 -0.8061,-1.1148 -1.8807,-0.9811 -2.8573,-1.2583 -1.0297,-0.2922 -2.045,-0.7422 -3.2467,-0.7372 -1.1722,0.01 -2.3671,0.1073 -3.3696,0.5119 -1.0958,0.2815 -1.7653,0.9783 -2.5048,1.7139 -0.6087,0.7118 -1.3062,1.4178 -1.7393,2.3822 -0.419,0.933 -0.9882,2.4102 -0.9828,3.4312 l 0.2334,3.2248 0.2917,3.2001 0.491,3.3629 0.061,3.6092 0.2751,3.0529 0.517,3.8664 0.4489,1.9091 0.3253,4.7309 0.1711,2.1775 0.1342,3.5758 0.098,3.0528 0.1257,3.4499 0.1171,3.3926 0.1613,3.2381 0.3307,3.1023 -0.2823,3.4228 -3.3712,0.6511 -3.3072,-0.069 -3.0781,0.3694 -3.4766,-0.3984 -3.7162,0.093 -3.0754,-0.042 -3.497,-0.1319 -3.2156,-0.1079 -3.4902,-0.6185 -2.885,0.2956 -3.5107,0.1687 -3.8094,-0.6365 -2.6401,0.6283 -3.2866,0.146 -3.6226,0.1878 c -1.0785,-0.1353 -1.8805,-0.396 -2.8072,-0.086 -0.801,-0.031 -1.9718,0.9201 -2.746,1.7413 -0.6759,0.6452 -0.9992,1.492 -1.3751,2.4159 -0.3829,0.9403 -1.189,1.7048 -1.1879,2.7139 0,1.0537 0.2387,1.7686 0.6625,2.7104 0.4451,0.6811 1.1601,2.0893 1.9519,2.8896 0.7732,0.8781 1.4534,1.2722 2.3286,1.6687 0.9421,0.4269 2.1156,0.3286 3.1806,0.3273 l 3.3101,0.6996 3.1954,-0.3015 3.6536,-0.2627 3.136,-0.061 3.4563,0.4247 2.7579,0.2774 3.8907,-0.545 3.0073,0.387 3.5878,-0.256 3.1739,-0.087 3.5697,-0.028 3.3083,-0.8142 3.1467,-0.2112 2.8946,0.2598 3.755,-0.3721 3.3013,-0.2536 3.2887,0.082 2.9708,0.302 3.7531,0.029 2.9957,-0.3652 3.6306,-0.055 3.2673,-0.7645 3.379,0.074 3.0951,0.044 3.3948,0.2318 3.58,-0.092 2.9647,-0.07 3.4967,0.097 3.1898,-0.012 -1.5223,2.9379 -1.6229,3.0142 -1.2102,2.9174 -1.7496,3.0779 -1.4323,3.1344 -1.2287,3.3086 -1.7453,3.2695 -1.2698,2.1723 -1.9528,2.7754 -1.4819,3.4205 -1.49,2.9631 -1.5357,2.7911 -1.6222,2.9735 -1.7079,3.4 -1.4273,2.4583 -1.6922,2.8828 -1.7539,3.2709 -1.2711,2.3931 -2.108,2.6731 -1.9756,2.8892 -1.6486,3.0251 -1.8273,3.207 -1.5163,3.1816 -1.4403,2.1492 -1.4749,3.233 -0.9744,3.2891 c -1.1188,-1.452 -2.5022,-3.39 -3.5941,-4.819 -1.2536,-1.774 -1.8492,-2.2688 -2.8022,-3.5237 -1.0302,-1.2015 -2.2387,-3.0441 -3.3279,-4.4873 -1.0285,-1.4538 -2.0557,-2.4745 -3.0435,-3.7889 -1.0718,-1.173 -2.1375,-2.8017 -3.1401,-4.1403 -1.0373,-1.3394 -1.6328,-1.9959 -2.5565,-3.2314 -0.8026,-0.8883 -2.0495,-2.5363 -3.0729,-3.9061 -0.9061,-1.0062 -1.7523,-2.2217 -2.6799,-3.4622 -0.7928,-0.936 -2.1568,-2.436 -3.0691,-3.6522 -1.0946,-1.0129 -1.6567,-1.8734 -2.4423,-2.9183 -0.8815,-0.8376 -1.6183,-2.2997 -2.4248,-3.3685 -0.7032,-1.0796 -1.3204,-1.2336 -2.0426,-2.1822 -0.6953,-0.3982 -1.5488,-2.137 -2.3714,-3.2068 -0.5521,-0.8221 -1.4314,-1.855 -2.1183,-2.7324 -0.6418,-0.82 -1.2657,-1.5919 -1.8727,-2.3484 -0.6037,-0.7357 -1.1433,-1.4929 -1.7119,-2.1778 -0.516,-0.6984 -1.0951,-1.2588 -1.6235,-1.8647 -0.5181,-0.5469 -0.8052,-1.6138 -1.3012,-2.1466 -0.2037,-0.9085 -0.8962,-0.9009 -1.3195,-1.2987 -0.4667,-0.4077 -0.8934,-0.6276 -1.3148,-0.959 -0.444,-0.17 -0.9088,-0.5918 -1.3115,-0.8459 -0.4033,-0.1677 -0.718,-0.4456 -1.0405,-0.596 -0.3186,-0.1667 -0.2939,-0.7689 -0.562,-0.8268 -0.044,-0.5964 -0.9113,0.2586 -1.2758,0.4964 -0.2342,0.1528 -0.4192,0.4192 -0.5644,0.5469 -0.095,0.071 -0.078,-0.047 -0.039,0.2162 0.088,0.02 0.1664,0.9336 0.3839,1.4844 0.1443,0.5965 0.3201,0.7574 0.5661,1.2845 0.2499,0.5143 0.817,1.2741 1.2253,2.0657 0.5523,0.6719 0.7755,1.5302 1.2514,2.4048 0.4437,0.8628 1.2717,1.4553 1.843,2.4681 0.8492,0.6595 1.6366,1.9749 2.3118,3.1446 1.0341,0.896 1.3905,1.9659 2.0805,3.1462 0.8209,0.9715 1.4657,2.4688 2.2448,3.7901 0.7409,1.2241 1.4319,2.5527 2.2285,3.8952 0.699,1.3053 1.7962,2.6086 2.63,4.0058 0.994,1.2532 1.3461,2.7255 2.1867,4.1302 0.5629,1.4111 1.8255,2.86 2.7098,4.3299 0.9273,1.3558 1.783,2.9314 2.6373,4.3478 0.9062,1.4716 1.5926,2.6855 2.416,4.0475 0.7912,1.3555 1.7167,2.8258 2.5588,4.2152 0.83,1.3579 1.789,2.745 2.5891,4.0624 0.9264,1.321 1.5573,2.4886 2.3008,3.714 0.7811,1.2114 1.6139,2.7808 2.3334,3.9696 0.7586,1.3724 1.4415,2.1484 2.0505,3.1537 0.7884,1.0693 1.2621,2.0734 1.8362,3.0281 0.5969,0.9783 1.1872,1.714 1.6959,2.5665 0.5849,0.7149 0.679,1.1146 1.1155,1.8701 0.1889,0.3076 0.991,2.0874 1.4141,2.846 0.2314,0.7704 0.5214,0.9084 0.7311,1.2451 0.2446,0.3959 0.7905,0.047 0.9231,0.2364 0.1358,0.194 -0.1393,0.886 -0.1393,0.886 0.596,1.0039 1.268,1.5585 2.1381,2.1589 0.808,0.376 2.0155,0.8968 3.0722,1.1099 1.0511,0.044 1.8712,0.3735 2.8174,0.2357 0.9568,0 2.3738,-0.092 3.2675,-0.7075 0.869,-0.5981 1.3999,-1.8518 1.9797,-2.8582 l 1.7803,-2.5271 1.6854,-3.0083 2.198,-2.5398 1.7175,-3.2037 2.0057,-3.3354 1.399,-2.873 1.546,-2.6836 1.6913,-3.5457 1.1705,-3.0313 1.2771,-2.8466 1.49,-2.6638 1.8486,-3.2303 1.8803,-3.0892 1.5506,-2.6263 1.8388,-2.4277 1.8614,-3.526 1.4221,-2.4262 1.8031,-3.3828 1.3323,-3.5883 1.5715,-2.4238 1.6744,-2.8714 1.7174,-2.9423 1.6495,-3.034 1.8406,-2.776 1.7778,-2.5339 1.8258,-3.3271 1.8513,-2.6033 1.755,-3.02 1.4681,-2.4768 1.9649,-3.3258 1.7803,-2.458 1.4423,-3.3366 c 0.6085,-1.0425 0.9844,-2.1897 1.0913,-3.2636 0.1427,-1.1198 -0.1476,-2.4589 -0.4651,-3.4286 -0.4253,-1.2572 -0.8481,-1.4865 -1.4316,-2.1702 -0.7832,-0.5749 -1.8744,-2.1478 -2.8563,-2.6306 -0.937,-0.4607 -1.6671,-0.03 -2.8677,-0.029 l -3.4247,0.018 -2.8885,0.057 -3.9095,0.067 -3.3332,-0.2733 -3.1744,-0.1105 -3.2425,-0.118 -3.6874,-0.1923 -2.9794,0.1537 -3.4511,-0.099 -3.1751,0.078 -3.418,0.01 -3.3444,0.083 -3.1695,0.2814 -3.4188,0.3003 -3.5267,-0.2587 0.1562,-2.5991 0.4579,-3.4572 0.3969,-2.3335 0.424,-2.9111 0.2832,-3.1441 -0.2162,-3.2453 c 1.1486,-0.2641 2.6442,-0.5937 3.7393,-0.9583 1.3572,-0.3414 1.8178,-0.2036 2.754,-0.6077 1.029,-0.01 2.3442,-1.2568 3.4242,-1.8701 1.0062,-0.7316 1.835,-1.3594 2.7114,-1.9699 0.8655,-0.8644 1.6764,-0.9754 2.4881,-1.6556 0.8613,-0.4776 1.7431,-1.3632 2.5654,-2.2064 0.7808,-0.6305 1.7087,-1.7492 2.4328,-2.656 0.7941,-0.8784 1.2521,-1.6159 1.8377,-2.5022 0.5846,-0.865 1.0223,-1.8695 1.5535,-2.8658 0.3566,-0.957 1.2289,-1.908 1.6724,-2.9543 0.6404,-0.9059 0.7866,-1.8466 1.1227,-2.9069 0.3236,-0.8987 0.552,-1.8973 0.7995,-3.0551 0.1511,-0.8285 0.6304,-2.4642 0.7786,-3.7024 0.3058,-1.1454 0.3768,-2.2492 0.4068,-3.3408 0.2005,-1.1957 0.032,-2.2481 -0.056,-3.3444 -0.054,-1.1768 -0.1884,-2.272 -0.3879,-3.3839 -0.2053,-1.1437 -0.7342,-2.8068 -0.9992,-3.9406 -0.3347,-1.4352 -0.4725,-3.2629 -1.0285,-4.5506 -0.2005,-1.6861 -1.0579,-2.5343 -1.7294,-3.5952 -0.623,-1.2925 -1.6019,-2.1231 -2.3948,-3.0522 -0.9105,-0.9048 -1.5861,-1.7666 -2.3618,-2.5082 -0.7761,-0.7559 -1.3824,-1.5321 -2.0693,-2.0938 -0.5321,-0.6917 -1.3045,-0.8206 -1.8488,-1.1647 -0.5183,-0.3277 -0.711,-1.3508 -0.9314,-1.5339 -0.6969,-0.5792 -1.5854,-1.0993 -2.4533,-1.683 -0.9448,-0.5064 -1.7585,-1.1743 -2.7006,-1.7222 -0.9353,-0.5792 -1.9204,-1.6648 -2.8847,-2.1452 -0.9073,-1.0406 -1.723,-1.3264 -2.5838,-1.5998 -0.8528,-0.8161 -1.8898,-0.4751 -2.7079,-0.4677 -0.7459,0.01 -1.3257,0.051 -1.8235,0.042 z m -36.1305,32.7426 c -0.5202,0.01 -1.3871,1.1115 -1.9109,1.2339 -0.9625,0.2249 -1.909,-0.066 -2.6445,0.4347 -0.932,-0.093 -1.5019,1.5091 -1.9657,2.4842 -0.3476,0.8524 -0.5787,1.5682 -0.6843,2.4103 -0.1137,0.9069 -0.056,1.948 0.1596,2.8715 0.1189,0.5109 -0.1913,1.4318 0.037,1.9042 0.2871,1.1211 0.6455,1.7248 1.0375,2.7838 0.4572,0.7027 0.8033,2.5347 1.3649,3.657 0.3389,1.1454 1.3436,1.7199 1.9078,2.6197 0.9097,0.7404 0.7428,1.3155 1.3788,2.1674 0.3301,0.5448 1.6696,1.8061 2.5444,2.7663 0.8235,0.6019 1.5789,1.649 2.3772,2.4157 0.827,0.7725 1.5089,1.4869 2.3035,2.1525 0.8032,0.7548 1.667,1.3355 2.5323,1.9384 0.8914,0.6209 1.8108,1.1773 2.7412,1.7014 0.9483,0.534 1.8109,1.2006 2.7935,1.6278 0.08,-0.7608 0.092,-1.5698 0.049,-2.4254 -0.046,-0.8533 -0.1376,-1.774 -0.2824,-2.7097 -0.1392,-0.9477 -0.3672,-1.9381 -0.5937,-2.9307 -0.2572,-1.0271 -0.3205,-2.0649 -0.6058,-3.0943 -0.1256,-1.1125 -0.9039,-1.9207 -1.2431,-2.9911 -0.6445,-0.9195 -0.5987,-2.1771 -0.9573,-3.305 -0.2478,-1.0745 -0.6735,-2.0781 -1.0346,-3.2058 -0.3202,-0.972 -0.7287,-2.2836 -1.0856,-3.4362 -0.3324,-1.0732 -0.8282,-2.8232 -1.1341,-3.882 -0.3092,-1.07 -0.3987,-1.4418 -0.6491,-2.4302 -0.3964,-0.8707 -0.9243,-1.6916 -1.5944,-2.3185 -0.6413,-0.6876 -1.5017,-0.7973 -2.3571,-1.1163 -0.8531,-0.3182 -1.5591,-1.3316 -2.4842,-1.3236 z m 29.3879,87.153 c -0.9601,0 -1.5329,0.4535 -2.3964,0.741 -0.582,0.5707 -1.5933,1.1435 -2.36,1.6671 -0.5338,0.8918 -1.4177,1.0073 -1.9637,1.5673 -0.7071,0.6513 -0.9913,0.9692 -1.319,1.7207 -0.3481,0.7986 -0.2887,2.1771 -0.2887,3.1943 0,0.9601 0.2887,1.0806 0.5556,1.9329 0.4597,0.2066 0.7327,1.9294 1.3419,2.8168 0.4223,0.6381 0.9196,1.1011 1.5593,1.651 0.5452,0.3391 1.433,1.1958 2.2761,1.5836 0.8282,0.381 1.6881,0.7141 2.5936,0.7141 0.9601,0 1.8801,0.136 2.7463,-0.163 0.9121,-0.018 1.69,-0.839 2.4463,-1.4602 0.6278,-0.6125 1.1433,-1.7343 1.6713,-2.5037 0.2842,-1.1623 0.8632,-1.2338 1.193,-1.9322 0.3849,-0.8147 0.742,-1.8664 0.742,-2.8749 0,-0.9601 -0.1757,-1.9091 -0.4673,-2.7687 -0.3059,-0.8784 -0.4203,-1.064 -0.9443,-1.7691 -0.3222,-0.2432 -1.126,-1.8412 -2.0341,-2.5051 -0.4627,-0.7718 -1.3773,-0.1085 -2.2992,-0.371 -0.9184,-0.2615 -2.1608,-1.2408 -3.0527,-1.2408 z" />
  </g>
</svg>
