<?xml version="1.0" encoding="UTF-8" standalone="no"?>
<!-- Created with Inkscape (http://www.inkscape.org/) -->

<svg
   width="125.31534mm"
   height="196.61507mm"
   viewBox="0 0 125.31534 196.61506"
   version="1.1"
   id="svg142864"
   inkscape:version="1.1.2 (0a00cf5339, 2022-02-04)"
   sodipodi:docname="SimNoi.svg"
   xmlns:inkscape="http://www.inkscape.org/namespaces/inkscape"
   xmlns:sodipodi="http://sodipodi.sourceforge.net/DTD/sodipodi-0.dtd"
   xmlns="http://www.w3.org/2000/svg"
   xmlns:svg="http://www.w3.org/2000/svg">
  <sodipodi:namedview
     id="namedview142866"
     pagecolor="#ffffff"
     bordercolor="#666666"
     borderopacity="1.0"
     inkscape:pageshadow="2"
     inkscape:pageopacity="0.0"
     inkscape:pagecheckerboard="0"
     inkscape:document-units="mm"
     showgrid="false"
     fit-margin-top="0"
     fit-margin-left="0"
     fit-margin-right="0"
     fit-margin-bottom="0"
     inkscape:zoom="0.64052329"
     inkscape:cx="-486.32112"
     inkscape:cy="149.09684"
     inkscape:window-width="1920"
     inkscape:window-height="1016"
     inkscape:window-x="0"
     inkscape:window-y="0"
     inkscape:window-maximized="1"
     inkscape:current-layer="layer1" />
  <defs
     id="defs142861" />
  <g
     inkscape:label="Layer 1"
     inkscape:groupmode="layer"
     id="layer1"
     transform="translate(-255.1227,-215.20894)">
    <path
       id="path36442"
       style="display:inline;fill:#000000;fill-opacity:1;stroke:none;stroke-width:80.3722;stroke-linecap:round;stroke-linejoin:round;stroke-miterlimit:4;stroke-dasharray:none;stroke-opacity:1"
       inkscape:transform-center-x="1.7063868"
       inkscape:transform-center-y="1.4359038"
       d="m 323.6771,215.59429 c -0.2039,-0.004 -0.4768,0.4362 -0.6367,0.47345 -0.1155,0.22364 -0.2898,0.76476 0.1222,1.28985 0.063,0.69165 0.9287,1.8356 1.7644,2.58931 0.5506,1.28416 1.6974,1.50192 2.6119,2.17846 1.0222,0.85835 1.8735,1.52301 2.7671,2.19821 0.9314,0.70386 1.6188,1.50703 2.253,2.25514 0.5144,0.60695 1.2627,1.94775 1.8029,2.65186 0.6339,1.23068 0.517,1.35878 0.9287,1.93279 0.2384,1.03263 1.1168,1.55634 1.6703,2.37663 0.5531,0.81984 1.0314,1.79325 1.5435,2.70725 0.4187,0.98573 1.0377,1.77634 1.4633,2.75406 0.418,0.96018 0.7005,2.02073 0.9606,3.13363 0.2569,1.09961 0.3468,2.67934 0.4476,3.77273 0,1.41384 -0.054,2.53639 -0.075,3.45085 -0.191,1.5246 -0.256,1.698 -0.3623,2.51449 -0.3077,1.05951 -0.4145,1.9119 -0.6805,2.89658 -0.3615,0.90914 -0.6294,2.06043 -1.0545,3.04626 -0.4063,0.95253 -0.8909,1.91829 -1.4398,2.8121 -0.5356,0.90698 -0.8979,1.77018 -1.5711,2.57591 -0.4425,0.87013 -1.5141,1.36419 -2.3763,2.09939 -0.8429,0.43178 -1.6761,1.35248 -2.6151,1.99091 -0.8488,0.56697 -1.841,1.11826 -2.8155,1.62443 -0.9681,0.50284 -2.025,1.05406 -3.0542,1.40696 l 0.2718,-3.31772 0.2739,-3.39353 0.1698,-3.70038 0.3784,-2.6139 0.3107,-3.10309 0.3795,-3.46659 c -0.043,-1.12716 -0.3096,-2.17252 -0.7649,-3.12136 -0.4521,-0.941 -1.1443,-2.22882 -1.9287,-2.93202 -0.8061,-1.1148 -1.8807,-0.98115 -2.8573,-1.25828 -1.0297,-0.2922 -2.045,-0.74224 -3.2467,-0.73723 -1.1722,0.005 -2.3671,0.1073 -3.3696,0.51187 -1.0958,0.2815 -1.7653,0.97835 -2.5048,1.71396 -0.6087,0.71179 -1.3062,1.41773 -1.7393,2.38214 -0.419,0.93304 -0.9882,2.41024 -0.9828,3.43124 l 0.2334,3.22477 0.2917,3.20009 0.491,3.36289 0.061,3.60923 0.2751,3.05294 0.517,3.86637 0.4489,1.90909 0.3253,4.73087 0.1711,2.17753 0.1342,3.57575 0.098,3.05285 0.1257,3.44992 0.1171,3.39257 0.1613,3.23815 0.3307,3.10224 -0.2823,3.42279 -3.3712,0.65108 -3.3072,-0.0693 -3.0781,0.36948 -3.4766,-0.39846 -3.7162,0.0932 -3.0754,-0.0423 -3.497,-0.13192 -3.2156,-0.10781 -3.4902,-0.61855 -2.885,0.29556 -3.5107,0.16876 -3.8094,-0.63656 -2.6401,0.62831 -3.2866,0.14601 -3.6226,0.18787 c -1.0785,-0.13532 -1.8805,-0.39604 -2.8072,-0.0856 -0.801,-0.0309 -1.9718,0.92009 -2.746,1.74127 -0.6759,0.64519 -0.9992,1.49201 -1.3751,2.41585 -0.3829,0.9403 -1.189,1.70488 -1.1879,2.71389 0,1.05375 0.2387,1.76868 0.6625,2.7104 0.4451,0.68117 1.1601,2.08937 1.9519,2.88966 0.7732,0.87804 1.4534,1.27219 2.3286,1.6687 0.9421,0.42686 2.1156,0.32856 3.1806,0.32732 l 3.3101,0.6996 3.1954,-0.3015 3.6536,-0.26275 3.136,-0.0611 3.4563,0.42476 2.7579,0.27739 3.8907,-0.54505 3.0073,0.38706 3.5878,-0.25601 3.1739,-0.0866 3.5697,-0.0284 3.3083,-0.8142 3.1467,-0.21123 2.8946,0.25979 3.755,-0.37205 3.3013,-0.2536 3.2887,0.0822 2.9708,0.30197 3.7531,0.0292 2.9957,-0.36525 3.6306,-0.055 3.2673,-0.76446 3.379,0.074 3.0951,0.0443 3.3948,0.2318 3.58,-0.0922 2.9647,-0.0698 3.4967,0.0971 3.1898,-0.0119 -1.5223,2.93791 -1.6229,3.01415 -1.2102,2.91747 -1.7496,3.07783 -1.4323,3.13448 -1.2287,3.30858 -1.7453,3.26948 -1.2698,2.17226 -1.9528,2.77545 -1.4819,3.4205 -1.49,2.9631 -1.5357,2.79109 -1.6222,2.97346 -1.7079,3.39999 -1.4273,2.45833 -1.6922,2.88283 -1.7539,3.27087 -1.2711,2.39316 -2.108,2.67303 -1.9756,2.88924 -1.6486,3.02507 -1.8273,3.20697 -1.5163,3.1816 -1.4403,2.14926 -1.4749,3.23295 -0.9744,3.28914 c -1.1188,-1.45205 -2.5022,-3.39005 -3.5941,-4.81903 -1.2536,-1.77393 -1.8492,-2.26877 -2.8022,-3.5237 -1.0302,-1.20147 -2.2387,-3.04405 -3.3279,-4.48725 -1.0285,-1.45378 -2.0557,-2.47449 -3.0435,-3.7889 -1.0718,-1.17302 -2.1375,-2.80168 -3.1401,-4.14037 -1.0373,-1.33934 -1.6328,-1.9959 -2.5565,-3.23135 -0.8026,-0.88829 -2.0495,-2.53631 -3.0729,-3.9061 -0.9061,-1.00624 -1.7523,-2.22174 -2.6799,-3.46216 -0.7928,-0.93609 -2.1568,-2.43603 -3.0691,-3.65225 -1.0946,-1.0129 -1.6567,-1.87344 -2.4423,-2.91825 -0.8815,-0.83762 -1.6183,-2.29977 -2.4248,-3.36851 -0.7032,-1.07966 -1.3204,-1.2336 -2.0426,-2.1822 -0.6953,-0.39824 -1.5488,-2.13702 -2.3714,-3.20688 -0.5521,-0.82208 -1.4314,-1.85495 -2.1183,-2.73234 -0.6418,-0.82001 -1.2657,-1.5919 -1.8727,-2.34843 -0.6037,-0.7357 -1.1433,-1.49284 -1.7119,-2.17779 -0.516,-0.69839 -1.0951,-1.25875 -1.6235,-1.86467 -0.5181,-0.54697 -0.8052,-1.61379 -1.3012,-2.14663 -0.2037,-0.90846 -0.8962,-0.90089 -1.3195,-1.29872 -0.4667,-0.40768 -0.8934,-0.62757 -1.3148,-0.959 -0.444,-0.17 -0.9088,-0.59182 -1.3115,-0.84588 -0.4033,-0.16774 -0.718,-0.44559 -1.0405,-0.59595 -0.3186,-0.16673 -0.2939,-0.76899 -0.562,-0.82683 -0.044,-0.59644 -0.9113,0.25863 -1.2758,0.49637 -0.2342,0.1528 -0.4192,0.41924 -0.5644,0.54692 -0.095,0.071 -0.078,-0.0469 -0.039,0.21621 0.088,0.0197 0.1664,0.93358 0.3839,1.48443 0.1443,0.59648 0.3201,0.75736 0.5661,1.2845 0.2499,0.51422 0.817,1.27401 1.2253,2.06561 0.5523,0.67196 0.7755,1.53024 1.2514,2.4048 0.4437,0.86286 1.2717,1.45538 1.843,2.46814 0.8492,0.65952 1.6366,1.97488 2.3118,3.14462 1.0341,0.89601 1.3905,1.9659 2.0805,3.14622 0.8209,0.97145 1.4657,2.46872 2.2448,3.79008 0.7409,1.22412 1.4319,2.55265 2.2285,3.8952 0.699,1.30533 1.7962,2.60861 2.63,4.00575 0.994,1.25326 1.3461,2.72557 2.1867,4.13019 0.5629,1.41118 1.8255,2.86003 2.7098,4.32993 0.9273,1.3558 1.783,2.93146 2.6373,4.34779 0.9062,1.47164 1.5926,2.68553 2.416,4.04753 0.7912,1.35546 1.7167,2.82575 2.5588,4.21523 0.83,1.35791 1.789,2.745 2.5891,4.06241 0.9264,1.32092 1.5573,2.48856 2.3008,3.71396 0.7811,1.21139 1.6139,2.78078 2.3334,3.96962 0.7586,1.37242 1.4415,2.14834 2.0505,3.1537 0.7884,1.06929 1.2621,2.07338 1.8362,3.02803 0.5969,0.97838 1.1872,1.71402 1.6959,2.5665 0.5849,0.71492 0.679,1.1146 1.1155,1.87011 0.1889,0.30767 0.991,2.08746 1.4141,2.84605 0.2314,0.77041 0.5214,0.90839 0.7311,1.24513 0.2446,0.39586 0.7905,0.047 0.9231,0.23637 0.1358,0.19401 -0.1393,0.88597 -0.1393,0.88597 0.596,1.00395 1.268,1.55853 2.1381,2.1589 0.808,0.37606 2.0155,0.89686 3.0722,1.10996 1.0511,0.0443 1.8712,0.37345 2.8174,0.23563 0.9568,-0.005 2.3738,-0.0925 3.2675,-0.70752 0.869,-0.59804 1.3999,-1.85172 1.9797,-2.85815 l 1.7803,-2.52706 1.6854,-3.00837 2.198,-2.53977 1.7175,-3.20375 2.0057,-3.33532 1.399,-2.87308 1.546,-2.68359 1.6913,-3.54567 1.1705,-3.03129 1.2771,-2.84659 1.49,-2.66385 1.8486,-3.23024 1.8803,-3.08924 1.5506,-2.62633 1.8388,-2.42768 1.8614,-3.52597 1.4221,-2.42622 1.8031,-3.38278 1.3323,-3.58834 1.5715,-2.42373 1.6744,-2.87147 1.7174,-2.94226 1.6495,-3.03396 1.8406,-2.77602 1.7778,-2.53395 1.8258,-3.32712 1.8513,-2.60324 1.755,-3.01998 1.4681,-2.47684 1.9649,-3.32579 1.7803,-2.45803 1.4423,-3.33654 c 0.6085,-1.04253 0.9844,-2.1897 1.0913,-3.26365 0.1427,-1.11979 -0.1476,-2.45891 -0.4651,-3.42858 -0.4253,-1.25722 -0.8481,-1.48647 -1.4316,-2.17023 -0.7832,-0.57484 -1.8744,-2.14782 -2.8563,-2.63059 -0.937,-0.46067 -1.6671,-0.0297 -2.8677,-0.0287 l -3.4247,0.0182 -2.8885,0.0567 -3.9095,0.0667 -3.3332,-0.27325 -3.1744,-0.11053 -3.2425,-0.11799 -3.6874,-0.19228 -2.9794,0.15365 -3.4511,-0.0985 -3.1751,0.0779 -3.418,0.007 -3.3444,0.0834 -3.1695,0.28143 -3.4188,0.30031 -3.5267,-0.25873 0.1562,-2.5991 0.4579,-3.4572 0.3969,-2.33349 0.424,-2.91107 0.2832,-3.14409 -0.2162,-3.24534 c 1.1486,-0.26412 2.6442,-0.59369 3.7393,-0.95826 1.3572,-0.3414 1.8178,-0.20363 2.754,-0.60776 1.029,-0.008 2.3442,-1.25681 3.4242,-1.87004 1.0062,-0.73168 1.835,-1.35946 2.7114,-1.96991 0.8655,-0.86442 1.6764,-0.97547 2.4881,-1.6556 0.8613,-0.4776 1.7431,-1.36319 2.5654,-2.2064 0.7808,-0.63054 1.7087,-1.74925 2.4328,-2.65602 0.7941,-0.87846 1.2521,-1.61589 1.8377,-2.50222 0.5846,-0.86497 1.0223,-1.86949 1.5535,-2.86577 0.3566,-0.95704 1.2289,-1.90803 1.6724,-2.95428 0.6404,-0.90591 0.7866,-1.8466 1.1227,-2.90694 0.3236,-0.89875 0.552,-1.89727 0.7995,-3.05511 0.1511,-0.82854 0.6304,-2.46424 0.7786,-3.70235 0.3058,-1.14548 0.3768,-2.2492 0.4068,-3.34086 0.2005,-1.19566 0.032,-2.24812 -0.056,-3.34435 -0.054,-1.1768 -0.1884,-2.27203 -0.3879,-3.38389 -0.2053,-1.1437 -0.7342,-2.80684 -0.9992,-3.94066 -0.3347,-1.43516 -0.4725,-3.26285 -1.0285,-4.55054 -0.2005,-1.6861 -1.0579,-2.53438 -1.7294,-3.59524 -0.623,-1.29246 -1.6019,-2.12308 -2.3948,-3.05224 -0.9105,-0.90481 -1.5861,-1.76654 -2.3618,-2.50821 -0.7761,-0.75582 -1.3824,-1.53202 -2.0693,-2.09371 -0.5321,-0.69174 -1.3045,-0.82067 -1.8488,-1.16475 -0.5183,-0.32773 -0.711,-1.35078 -0.9314,-1.53392 -0.6969,-0.57913 -1.5854,-1.09925 -2.4533,-1.68296 -0.9448,-0.5064 -1.7585,-1.17436 -2.7006,-1.72219 -0.9353,-0.57921 -1.9204,-1.66486 -2.8847,-2.14522 -0.9073,-1.04059 -1.723,-1.32637 -2.5838,-1.59982 -0.8528,-0.8161 -1.8898,-0.47506 -2.7079,-0.46773 -0.7459,0.007 -1.3257,0.0513 -1.8235,0.0418 z m -36.1305,32.74268 c -0.5202,0.005 -1.3871,1.11148 -1.9109,1.23389 -0.9625,0.22489 -1.909,-0.0661 -2.6445,0.43466 -0.932,-0.0932 -1.5019,1.50911 -1.9657,2.48423 -0.3476,0.85239 -0.5787,1.56821 -0.6843,2.4103 -0.1137,0.9069 -0.056,1.94802 0.1596,2.87143 0.1189,0.51099 -0.1913,1.43188 0.037,1.90426 0.2871,1.1211 0.6455,1.72478 1.0375,2.78381 0.4572,0.70267 0.8033,2.53463 1.3649,3.65697 0.3389,1.14542 1.3436,1.71989 1.9078,2.61975 0.9097,0.74038 0.7428,1.31547 1.3788,2.16736 0.3301,0.54478 1.6696,1.80605 2.5444,2.7663 0.8235,0.60186 1.5789,1.64902 2.3772,2.41571 0.827,0.77251 1.5089,1.4869 2.3035,2.15251 0.8032,0.75473 1.667,1.33543 2.5323,1.93841 0.8914,0.6209 1.8108,1.17723 2.7412,1.70137 0.9483,0.53402 1.8109,1.20058 2.7935,1.62782 0.08,-0.76083 0.092,-1.56985 0.049,-2.42545 -0.046,-0.85327 -0.1376,-1.77396 -0.2824,-2.70972 -0.1392,-0.94764 -0.3672,-1.93806 -0.5937,-2.93067 -0.2572,-1.02707 -0.3205,-2.06492 -0.6058,-3.09424 -0.1256,-1.11259 -0.9039,-1.92074 -1.2431,-2.99114 -0.6445,-0.91947 -0.5987,-2.17714 -0.9573,-3.30503 -0.2478,-1.07447 -0.6735,-2.07803 -1.0346,-3.20582 -0.3202,-0.972 -0.7287,-2.28353 -1.0856,-3.43614 -0.3324,-1.07319 -0.8282,-2.82317 -1.1341,-3.88203 -0.3092,-1.06994 -0.3987,-1.4418 -0.6491,-2.4302 -0.3964,-0.87067 -0.9243,-1.69161 -1.5944,-2.3185 -0.6413,-0.68754 -1.5017,-0.79727 -2.3571,-1.11626 -0.8531,-0.3182 -1.5591,-1.33166 -2.4842,-1.32358 z m 29.3879,87.15296 c -0.9601,0 -1.5329,0.45349 -2.3964,0.74097 -0.582,0.57075 -1.5933,1.14351 -2.36,1.66708 -0.5338,0.8918 -1.4177,1.0073 -1.9637,1.56732 -0.7071,0.6513 -0.9913,0.9692 -1.319,1.72073 -0.3481,0.79859 -0.2887,2.17709 -0.2887,3.19427 0,0.96011 0.2887,1.08062 0.5556,1.93296 0.4597,0.20654 0.7327,1.92934 1.3419,2.81673 0.4223,0.63813 0.9196,1.10115 1.5593,1.65108 0.5452,0.33908 1.433,1.19575 2.2761,1.5836 0.8282,0.38099 1.6881,0.71406 2.5936,0.71406 0.9601,0 1.8801,0.136 2.7463,-0.16299 0.9121,-0.0178 1.69,-0.83899 2.4463,-1.46017 0.6278,-0.61252 1.1433,-1.73439 1.6713,-2.50379 0.2842,-1.16226 0.8632,-1.2338 1.193,-1.9322 0.3849,-0.81466 0.742,-1.8664 0.742,-2.8749 0,-0.9601 -0.1757,-1.90906 -0.4673,-2.76868 -0.3059,-0.8784 -0.4203,-1.06395 -0.9443,-1.76912 -0.3222,-0.24311 -1.126,-1.84116 -2.0341,-2.50507 -0.4627,-0.77176 -1.3773,-0.10849 -2.2992,-0.371 -0.9184,-0.26152 -2.1608,-1.2408 -3.0527,-1.2408 z" />
  </g>
</svg>
