<?xml version="1.0" encoding="UTF-8" standalone="no"?>
<!-- Created with Inkscape (http://www.inkscape.org/) -->

<svg
   width="182.24139mm"
   height="178.09496mm"
   viewBox="0 0 182.2414 178.09495"
   version="1.1"
   id="svg142864"
   inkscape:version="1.1.2 (0a00cf5339, 2022-02-04)"
   sodipodi:docname="TriCol.svg"
   xmlns:inkscape="http://www.inkscape.org/namespaces/inkscape"
   xmlns:sodipodi="http://sodipodi.sourceforge.net/DTD/sodipodi-0.dtd"
   xmlns="http://www.w3.org/2000/svg"
   xmlns:svg="http://www.w3.org/2000/svg">
  <sodipodi:namedview
     id="namedview142866"
     pagecolor="#ffffff"
     bordercolor="#666666"
     borderopacity="1.0"
     inkscape:pageshadow="2"
     inkscape:pageopacity="0.0"
     inkscape:pagecheckerboard="0"
     inkscape:document-units="mm"
     showgrid="false"
     fit-margin-top="0"
     fit-margin-left="0"
     fit-margin-right="0"
     fit-margin-bottom="0"
     inkscape:zoom="0.64052329"
     inkscape:cx="-108.50503"
     inkscape:cy="347.37223"
     inkscape:window-width="1920"
     inkscape:window-height="1016"
     inkscape:window-x="0"
     inkscape:window-y="0"
     inkscape:window-maximized="1"
     inkscape:current-layer="layer1" />
  <defs
     id="defs142861" />
  <g
     inkscape:label="Layer 1"
     inkscape:groupmode="layer"
     id="layer1"
     transform="translate(-156.0143,-163.12103)">
    <g
       aria-label="AWAL"
       id="text145272"
       style="font-size:64.1019px;line-height:1.25;display:inline;fill:#4e84a6;stroke-width:0.801183"
       transform="translate(-6092.2127,-581.78314)">
      <path
         d="m 6282.4574,789.32678 q -0.7052,-2.30767 -1.6026,-4.74354 -0.8333,-2.43587 -1.6666,-4.87174 h -17.3075 q -0.8334,2.43587 -1.7308,4.87174 -0.8333,2.43587 -1.5384,4.74354 h -10.3845 q 2.4999,-7.17941 4.7435,-13.26909 2.2436,-6.08968 4.3589,-11.47424 2.1795,-5.38456 4.2308,-10.1922 2.1153,-4.87175 4.3589,-9.48708 h 9.5512 q 2.1794,4.61533 4.2948,9.48708 2.1154,4.80764 4.2307,10.1922 2.1795,5.38456 4.423,11.47424 2.2436,6.08968 4.7436,13.26909 z m -11.9871,-34.35862 q -0.3205,0.96153 -0.9615,2.62818 -0.641,1.66665 -1.4744,3.84612 -0.8333,2.17946 -1.8589,4.80764 -0.9615,2.62818 -1.9872,5.51276 h 12.6281 q -1.0256,-2.88458 -1.9872,-5.51276 -0.9615,-2.62818 -1.8589,-4.80764 -0.8333,-2.17947 -1.4744,-3.84612 -0.641,-1.66665 -1.0256,-2.62818 z"
         style="font-weight:bold;font-family:UBUNTU;-inkscape-font-specification:'UBUNTU, Bold'"
         id="path145599" />
      <path
         d="m 6326.1747,749.64771 q 0.7693,2.62818 1.6667,5.96147 0.9615,3.2692 1.9871,6.7948 1.0898,3.52561 2.1795,7.05121 1.0897,3.52561 2.1154,6.5384 0.8333,-3.2692 1.6666,-7.11531 0.8974,-3.84612 1.6667,-7.94864 0.7692,-4.10252 1.4743,-8.14094 0.7692,-4.10252 1.4102,-7.88453 h 10.3846 q -2.2436,11.15373 -5.1923,22.62797 -2.8846,11.47424 -6.282,21.79464 h -9.1666 q -2.2435,-6.15378 -4.3589,-12.88448 -2.1153,-6.7948 -4.1666,-13.5896 -2.0513,6.7948 -4.1025,13.5896 -2.0513,6.7307 -4.2949,12.88448 h -9.1665 q -3.3974,-10.3204 -6.3461,-21.79464 -2.8846,-11.47424 -5.1282,-22.62797 h 10.8333 q 0.641,3.78201 1.4102,7.88453 0.7692,4.03842 1.6025,8.14094 0.8334,4.10252 1.6667,7.94864 0.8974,3.84611 1.7948,7.11531 1.1539,-3.141 2.2436,-6.6666 1.0897,-3.5256 2.1154,-7.05121 1.0256,-3.5256 1.8589,-6.7948 0.8975,-3.2692 1.6026,-5.83327 z"
         style="font-weight:bold;font-family:UBUNTU;-inkscape-font-specification:'UBUNTU, Bold'"
         id="path145601" />
      <path
         d="m 6384.3151,789.32678 q -0.7051,-2.30767 -1.6026,-4.74354 -0.8333,-2.43587 -1.6666,-4.87174 h -17.3075 q -0.8334,2.43587 -1.7308,4.87174 -0.8333,2.43587 -1.5384,4.74354 h -10.3845 q 2.4999,-7.17941 4.7435,-13.26909 2.2436,-6.08968 4.3589,-11.47424 2.1795,-5.38456 4.2308,-10.1922 2.1153,-4.87175 4.3589,-9.48708 h 9.5512 q 2.1794,4.61533 4.2948,9.48708 2.1154,4.80764 4.2307,10.1922 2.1795,5.38456 4.4231,11.47424 2.2435,6.08968 4.7435,13.26909 z m -11.9871,-34.35862 q -0.3205,0.96153 -0.9615,2.62818 -0.641,1.66665 -1.4743,3.84612 -0.8334,2.17946 -1.859,4.80764 -0.9615,2.62818 -1.9872,5.51276 h 12.6281 q -1.0256,-2.88458 -1.9871,-5.51276 -0.9616,-2.62818 -1.859,-4.80764 -0.8333,-2.17947 -1.4743,-3.84612 -0.6411,-1.66665 -1.0257,-2.62818 z"
         style="font-weight:bold;font-family:UBUNTU;-inkscape-font-specification:'UBUNTU, Bold'"
         id="path145603" />
      <path
         d="m 6430.4684,780.73713 v 8.58965 h -29.6792 v -44.42261 h 9.9999 v 35.83296 z"
         style="font-weight:bold;font-family:UBUNTU;-inkscape-font-specification:'UBUNTU, Bold'"
         id="path145605" />
    </g>
    <g
       aria-label="Grand Lyon"
       id="text145276"
       style="font-size:16.9765px;line-height:1.25;display:inline;fill:#4e84a6;stroke-width:0.424414"
       transform="translate(-6092.2127,-581.78314)">
      <path
         d="m 6276.8596,804.25707 q -3.0275,0 -4.6403,1.89573 -1.5845,1.86743 -1.5845,5.20617 0,1.58448 0.3678,2.91432 0.3962,1.30154 1.1318,2.23526 0.764,0.93371 1.8674,1.47131 1.1318,0.5093 2.6314,0.5093 0.9337,0 1.6128,-0.0566 0.6791,-0.0849 1.0752,-0.19806 v -7.04531 h 3.5651 v 9.42204 q -0.7357,0.28294 -2.4899,0.62247 -1.7543,0.33954 -4.0461,0.33954 -2.1221,0 -3.8764,-0.67907 -1.7542,-0.67907 -2.9992,-1.98061 -1.2166,-1.30154 -1.8957,-3.19727 -0.6791,-1.89572 -0.6791,-4.35733 0,-2.46162 0.7357,-4.35734 0.7639,-1.89572 2.0655,-3.19727 1.3015,-1.32983 3.0558,-2.0089 1.7542,-0.67907 3.7348,-0.67907 1.3582,0 2.4051,0.19807 1.0752,0.16976 1.8391,0.39612 0.764,0.22635 1.245,0.481 0.5093,0.25465 0.7073,0.36783 l -1.0752,2.91432 q -0.8488,-0.5093 -2.1221,-0.84883 -1.2449,-0.36783 -2.6313,-0.36783 z"
         style="font-weight:500;font-size:28.2944px;font-family:Ubuntu;-inkscape-font-specification:'Ubuntu, Medium'"
         id="path145608" />
      <path
         d="m 6295.2792,809.46324 q -0.4244,-0.14147 -1.1884,-0.28294 -0.7356,-0.16977 -1.7259,-0.16977 -0.5659,0 -1.2167,0.11318 -0.6225,0.11318 -0.8771,0.19806 v 11.85535 h -3.4236 v -14.09061 q 0.9903,-0.36782 2.4616,-0.67906 1.4996,-0.33954 3.3104,-0.33954 0.3395,0 0.7923,0.0566 0.4527,0.0283 0.9054,0.11318 0.4527,0.0566 0.8771,0.16977 0.4244,0.0849 0.6791,0.16976 z"
         style="font-weight:500;font-size:28.2944px;font-family:Ubuntu;-inkscape-font-specification:'Ubuntu, Medium'"
         id="path145610" />
      <path
         d="m 6303.4563,818.7721 q 1.5845,0 2.405,-0.16977 v -3.79145 q -0.283,-0.0849 -0.8205,-0.16976 -0.5376,-0.0849 -1.1884,-0.0849 -0.5659,0 -1.1601,0.0849 -0.5659,0.0849 -1.0469,0.31124 -0.4527,0.22635 -0.7356,0.65077 -0.283,0.39612 -0.283,1.0186 0,1.21665 0.764,1.69766 0.7639,0.45271 2.0655,0.45271 z m -0.283,-12.76077 q 1.6977,0 2.8578,0.42441 1.16,0.42442 1.8391,1.18837 0.7074,0.76395 0.9903,1.86743 0.3112,1.07518 0.3112,2.37673 v 8.96932 q -0.7922,0.16977 -2.405,0.39612 -1.5845,0.25465 -3.5934,0.25465 -1.3298,0 -2.4333,-0.25465 -1.1035,-0.25465 -1.8957,-0.82053 -0.764,-0.56589 -1.2167,-1.47131 -0.4244,-0.90542 -0.4244,-2.23526 0,-1.27325 0.481,-2.15038 0.5093,-0.87712 1.3581,-1.41472 0.8489,-0.56588 1.9524,-0.79224 1.1317,-0.25465 2.3484,-0.25465 0.5659,0 1.1884,0.0849 0.6224,0.0566 1.3298,0.22635 v -0.56589 q 0,-0.59418 -0.1415,-1.13177 -0.1415,-0.5376 -0.5093,-0.93372 -0.3395,-0.42441 -0.9337,-0.65077 -0.5659,-0.22636 -1.443,-0.22636 -1.1884,0 -2.1787,0.16977 -0.9903,0.16977 -1.6128,0.39612 l -0.4244,-2.77285 q 0.6508,-0.22635 1.8957,-0.45271 1.245,-0.22635 2.6597,-0.22635 z"
         style="font-weight:500;font-size:28.2944px;font-family:Ubuntu;-inkscape-font-specification:'Ubuntu, Medium'"
         id="path145612" />
      <path
         d="m 6313.3593,806.86016 q 0.9903,-0.28295 2.5748,-0.5376 1.5844,-0.25465 3.5085,-0.25465 1.8108,0 3.0275,0.5093 1.2166,0.48101 1.924,1.38643 0.7356,0.87713 1.0186,2.15037 0.3112,1.24496 0.3112,2.74456 v 8.31855 h -3.4236 v -7.78096 q 0,-1.18836 -0.1698,-2.0089 -0.1414,-0.84883 -0.5093,-1.35813 -0.3395,-0.53759 -0.962,-0.76395 -0.5942,-0.25465 -1.4713,-0.25465 -0.6508,0 -1.3581,0.0849 -0.7074,0.0849 -1.0469,0.14147 v 11.94023 h -3.4236 z"
         style="font-weight:500;font-size:28.2944px;font-family:Ubuntu;-inkscape-font-specification:'Ubuntu, Medium'"
         id="path145614" />
      <path
         d="m 6332.5994,813.7357 q 0,2.26355 1.0752,3.56509 1.0752,1.27325 2.9709,1.27325 0.8206,0 1.3865,-0.0566 0.5941,-0.0849 0.962,-0.16977 v -8.48832 q -0.4527,-0.31123 -1.2167,-0.56588 -0.7357,-0.28295 -1.5845,-0.28295 -1.8674,0 -2.7445,1.27325 -0.8489,1.27325 -0.8489,3.45192 z m 9.8182,6.98871 q -1.0186,0.31124 -2.5748,0.56589 -1.5279,0.25465 -3.2256,0.25465 -1.7542,0 -3.1406,-0.53759 -1.3865,-0.5376 -2.3768,-1.5279 -0.962,-1.0186 -1.4996,-2.43332 -0.5093,-1.44301 -0.5093,-3.22556 0,-1.75425 0.4244,-3.16897 0.4527,-1.44302 1.3016,-2.46162 0.8488,-1.01859 2.0655,-1.55619 1.2166,-0.56589 2.8011,-0.56589 1.0752,0 1.8957,0.25465 0.8206,0.25465 1.4148,0.56589 v -7.10189 l 3.4236,-0.56589 z"
         style="font-weight:500;font-size:28.2944px;font-family:Ubuntu;-inkscape-font-specification:'Ubuntu, Medium'"
         id="path145616" />
      <path
         d="m 6365.9302,818.09303 v 3.08409 h -12.393 v -19.60801 h 3.5651 v 16.52392 z"
         style="font-weight:500;font-size:28.2944px;font-family:Ubuntu;-inkscape-font-specification:'Ubuntu, Medium'"
         id="path145618" />
      <path
         d="m 6379.9076,806.37915 q -2.2919,8.43173 -5.3194,15.27898 -0.5659,1.27325 -1.1601,2.17867 -0.5941,0.90542 -1.3298,1.4996 -0.7357,0.59418 -1.6411,0.84883 -0.9054,0.28295 -2.0938,0.28295 -0.7922,0 -1.5844,-0.16977 -0.764,-0.16977 -1.1601,-0.36783 l 0.6225,-2.74455 q 1.0186,0.39612 2.0089,0.39612 1.3298,0 2.0655,-0.65077 0.7639,-0.62248 1.3298,-1.95232 -1.6128,-3.11238 -3.1124,-6.79065 -1.4713,-3.67827 -2.6314,-7.80926 h 3.65 q 0.2829,1.18837 0.6791,2.57479 0.4244,1.38643 0.9054,2.82944 0.481,1.41472 1.0186,2.82944 0.5376,1.41472 1.0752,2.63138 0.9054,-2.5182 1.6976,-5.34764 0.7923,-2.85773 1.4431,-5.51741 z"
         style="font-weight:500;font-size:28.2944px;font-family:Ubuntu;-inkscape-font-specification:'Ubuntu, Medium'"
         id="path145620" />
      <path
         d="m 6395.8939,813.76399 q 0,1.75425 -0.5093,3.19727 -0.5093,1.44301 -1.443,2.46161 -0.9338,1.0186 -2.2636,1.58449 -1.3015,0.56589 -2.886,0.56589 -1.5845,0 -2.8861,-0.56589 -1.3015,-0.56589 -2.2352,-1.58449 -0.9337,-1.0186 -1.4713,-2.46161 -0.5093,-1.44302 -0.5093,-3.19727 0,-1.75425 0.5093,-3.16897 0.5376,-1.44302 1.4713,-2.46161 0.962,-1.0186 2.2635,-1.5562 1.3016,-0.56588 2.8578,-0.56588 1.5562,0 2.8577,0.56588 1.3298,0.5376 2.2636,1.5562 0.9337,1.01859 1.443,2.46161 0.5376,1.41472 0.5376,3.16897 z m -3.5085,0 q 0,-2.20696 -0.962,-3.48021 -0.9338,-1.30154 -2.6314,-1.30154 -1.6977,0 -2.6597,1.30154 -0.9337,1.27325 -0.9337,3.48021 0,2.23526 0.9337,3.5368 0.962,1.30154 2.6597,1.30154 1.6976,0 2.6314,-1.30154 0.962,-1.30154 0.962,-3.5368 z"
         style="font-weight:500;font-size:28.2944px;font-family:Ubuntu;-inkscape-font-specification:'Ubuntu, Medium'"
         id="path145622" />
      <path
         d="m 6399.4307,806.86016 q 0.9903,-0.28295 2.5747,-0.5376 1.5845,-0.25465 3.5085,-0.25465 1.8109,0 3.0275,0.5093 1.2167,0.48101 1.9241,1.38643 0.7356,0.87713 1.0186,2.15037 0.3112,1.24496 0.3112,2.74456 v 8.31855 h -3.4236 v -7.78096 q 0,-1.18836 -0.1698,-2.0089 -0.1415,-0.84883 -0.5093,-1.35813 -0.3395,-0.53759 -0.962,-0.76395 -0.5942,-0.25465 -1.4713,-0.25465 -0.6508,0 -1.3581,0.0849 -0.7074,0.0849 -1.0469,0.14147 v 11.94023 h -3.4236 z"
         style="font-weight:500;font-size:28.2944px;font-family:Ubuntu;-inkscape-font-specification:'Ubuntu, Medium'"
         id="path145624" />
    </g>
    <path
       id="path145278"
       style="display:inline;fill:#da2919;fill-opacity:1;stroke:none;stroke-width:80.3719;stroke-linecap:round;stroke-linejoin:round;stroke-miterlimit:4;stroke-dasharray:none;stroke-opacity:1"
       inkscape:transform-center-x="0.76271295"
       inkscape:transform-center-y="0.64071207"
       d="m 249.7686,253.61119 c -0.092,-9e-4 -0.213,0.19472 -0.2844,0.21137 -0.051,0.0999 -0.1292,0.34141 0.054,0.57583 0.028,0.30879 0.4147,0.81949 0.7878,1.15596 0.2457,0.57332 0.7577,0.67052 1.1659,0.97256 0.4564,0.38321 0.8365,0.67993 1.2354,0.98136 0.4159,0.31424 0.7226,0.6728 1.0058,1.00679 0.2297,0.27096 0.5637,0.86956 0.8048,1.1839 0.2831,0.54942 0.2309,0.60661 0.4148,0.86287 0.1065,0.461 0.4986,0.69483 0.7457,1.06101 0.247,0.36601 0.4604,0.80059 0.689,1.20864 0.1869,0.44006 0.4633,0.79303 0.6533,1.22952 0.1866,0.42865 0.3127,0.90213 0.4288,1.39897 0.1145,0.49092 0.1549,1.19617 0.1999,1.68429 0,0.63121 -0.024,1.13235 -0.034,1.5406 -0.085,0.68064 -0.1145,0.75806 -0.1618,1.12258 -0.1372,0.473 -0.185,0.85354 -0.3038,1.29314 -0.1614,0.40587 -0.2809,0.91985 -0.4708,1.35997 -0.1813,0.42525 -0.3976,0.8564 -0.6428,1.25544 -0.2391,0.40491 -0.4007,0.79027 -0.7013,1.14999 -0.1976,0.38845 -0.676,0.60902 -1.0609,0.93724 -0.3763,0.19277 -0.7482,0.60381 -1.1674,0.88882 -0.379,0.25312 -0.822,0.49924 -1.257,0.72522 -0.4322,0.22448 -0.9041,0.47057 -1.3636,0.62811 l 0.1211,-1.48115 0.1225,-1.51501 0.076,-1.65201 0.169,-1.16693 0.1387,-1.38535 0.1694,-1.54762 c -0.02,-0.50321 -0.1383,-0.9699 -0.3415,-1.39351 -0.2018,-0.42009 -0.5109,-0.99502 -0.8611,-1.30896 -0.3597,-0.49769 -0.8396,-0.43802 -1.2756,-0.56175 -0.4596,-0.13047 -0.9129,-0.33136 -1.4495,-0.32912 -0.5232,9e-4 -1.0567,0.0479 -1.5041,0.22851 -0.4893,0.12569 -0.7883,0.43677 -1.1184,0.76518 -0.2717,0.31778 -0.5831,0.63294 -0.7765,1.06347 -0.187,0.41657 -0.441,1.07605 -0.4387,1.53186 l 0.1039,1.43967 0.1304,1.42864 0.2192,1.50134 0.026,1.61129 0.1224,1.36295 0.2309,1.7261 0.2004,0.85229 0.1453,2.11206 0.077,0.97213 0.06,1.59635 0.044,1.36292 0.056,1.54018 0.053,1.51457 0.072,1.44564 0.1476,1.38496 -0.1265,1.52807 -1.505,0.29066 -1.4765,-0.031 -1.3742,0.16495 -1.552,-0.17789 -1.6591,0.0416 -1.373,-0.0189 -1.5611,-0.0588 -1.4357,-0.0482 -1.5582,-0.27615 -1.2879,0.13194 -1.5674,0.0754 -1.7006,-0.28418 -1.1786,0.2805 -1.4673,0.0651 -1.6172,0.0839 c -0.4816,-0.0603 -0.8396,-0.1768 -1.2533,-0.0382 -0.3576,-0.0138 -0.8802,0.41077 -1.226,0.77737 -0.3017,0.28804 -0.446,0.66609 -0.6138,1.07853 -0.1711,0.41978 -0.5307,0.76113 -0.5304,1.21159 0,0.47044 0.1065,0.78961 0.2959,1.21003 0.1986,0.3041 0.5178,0.93278 0.8714,1.29006 0.345,0.39199 0.6488,0.56795 1.0395,0.74497 0.4205,0.19058 0.9445,0.14668 1.42,0.14613 l 1.4777,0.31233 1.4266,-0.13461 1.6311,-0.11728 1.4,-0.0273 1.5431,0.18963 1.2312,0.12382 1.7369,-0.24333 1.3426,0.17278 1.6017,-0.11423 1.4169,-0.0386 1.5938,-0.0133 1.4769,-0.3635 1.4047,-0.0943 1.2924,0.11596 1.6763,-0.1661 1.4738,-0.11317 1.4683,0.0368 1.3263,0.13482 1.6755,0.0133 1.3374,-0.16306 1.6209,-0.0246 1.4586,-0.34128 1.5086,0.033 1.3818,0.0198 1.5155,0.10345 1.5981,-0.0411 1.3237,-0.0312 1.561,0.0434 1.4241,-0.005 -0.6795,1.3116 -0.7246,1.34563 -0.5402,1.30248 -0.7813,1.37406 -0.6393,1.39937 -0.5486,1.47708 -0.7792,1.45962 -0.5669,0.96977 -0.8718,1.23908 -0.6616,1.52705 -0.6651,1.32285 -0.6856,1.24605 -0.7244,1.32747 -0.7623,1.51788 -0.6371,1.0975 -0.7555,1.287 -0.7831,1.46025 -0.5675,1.06841 -0.941,1.19335 -0.8819,1.28985 -0.7362,1.35052 -0.8157,1.43172 -0.677,1.4204 -0.643,0.95951 -0.6585,1.44332 -0.4349,1.46839 c -0.4994,-0.64824 -1.1172,-1.51345 -1.6046,-2.1514 -0.5597,-0.79195 -0.8255,-1.01287 -1.2509,-1.57311 -0.46,-0.53639 -0.9995,-1.35898 -1.4858,-2.00329 -0.4591,-0.64902 -0.9177,-1.10471 -1.3587,-1.69151 -0.4785,-0.5237 -0.9542,-1.25079 -1.402,-1.84843 -0.463,-0.59794 -0.7288,-0.89104 -1.1412,-1.4426 -0.3582,-0.39657 -0.9149,-1.13231 -1.3718,-1.74384 -0.4046,-0.44923 -0.7824,-0.99187 -1.1964,-1.54564 -0.354,-0.41792 -0.963,-1.08754 -1.3703,-1.6305 -0.4886,-0.45221 -0.7395,-0.83639 -1.0903,-1.30283 -0.3936,-0.37394 -0.7225,-1.02671 -1.0825,-1.50385 -0.314,-0.48199 -0.5895,-0.55072 -0.9118,-0.97421 -0.3105,-0.1778 -0.6915,-0.95405 -1.0589,-1.43169 -0.2464,-0.367 -0.639,-0.82812 -0.9456,-1.21981 -0.2866,-0.36608 -0.5651,-0.7107 -0.8362,-1.04843 -0.2694,-0.32845 -0.5102,-0.66647 -0.7641,-0.97226 -0.2304,-0.31179 -0.4889,-0.56194 -0.7248,-0.83246 -0.2313,-0.2442 -0.3595,-0.72046 -0.5809,-0.95834 -0.091,-0.40558 -0.4001,-0.4022 -0.5892,-0.57981 -0.2082,-0.18199 -0.3987,-0.28016 -0.5868,-0.42813 -0.1983,-0.0759 -0.4057,-0.26421 -0.5856,-0.37762 -0.18,-0.0749 -0.3205,-0.19894 -0.4645,-0.26606 -0.1423,-0.0744 -0.1305,-0.34331 -0.2508,-0.36913 -0.02,-0.26627 -0.407,0.11543 -0.5698,0.2216 -0.1037,0.0682 -0.187,0.18716 -0.2518,0.24416 -0.043,0.0317 -0.034,-0.0209 -0.017,0.0965 0.039,0.009 0.074,0.41678 0.1714,0.6627 0.065,0.26629 0.1428,0.33812 0.2527,0.57345 0.1119,0.22957 0.3648,0.56878 0.547,0.92218 0.2466,0.29998 0.3463,0.68316 0.5587,1.0736 0.1981,0.38521 0.5677,0.64973 0.8228,1.10187 0.3791,0.29443 0.7307,0.88166 1.0321,1.40387 0.4617,0.40001 0.6208,0.87767 0.9289,1.4046 0.3664,0.43369 0.6543,1.10214 1.0021,1.69204 0.3308,0.5465 0.6392,1.13961 0.9949,1.73897 0.312,0.58275 0.8019,1.1646 1.1742,1.78833 0.4437,0.55949 0.6008,1.2168 0.9761,1.84387 0.2512,0.63001 0.8149,1.27684 1.2097,1.93307 0.4141,0.60528 0.796,1.30871 1.1775,1.94102 0.4046,0.65699 0.7109,1.19892 1.0786,1.80698 0.3533,0.60514 0.7664,1.26152 1.1424,1.88184 0.3705,0.60623 0.7987,1.22547 1.1559,1.81362 0.4135,0.58971 0.6953,1.111 1.0272,1.65806 0.3486,0.54081 0.7203,1.24144 1.0416,1.77218 0.3387,0.61271 0.6434,0.95911 0.9155,1.40794 0.3518,0.47738 0.5634,0.92564 0.8197,1.35184 0.2664,0.43678 0.53,0.76521 0.7571,1.14579 0.2611,0.31916 0.3032,0.49761 0.4979,0.83489 0.084,0.13736 0.4425,0.93192 0.6314,1.27059 0.1038,0.34395 0.2327,0.40555 0.3265,0.55587 0.1092,0.17673 0.3528,0.0211 0.4121,0.10558 0.061,0.0867 -0.062,0.39554 -0.062,0.39554 0.266,0.44819 0.566,0.69579 0.9545,0.96382 0.3606,0.16787 0.8998,0.40038 1.3714,0.49552 0.4694,0.0199 0.8355,0.16673 1.2579,0.10518 0.4273,-9e-4 1.0597,-0.0413 1.4588,-0.31587 0.3879,-0.26698 0.6249,-0.82667 0.8837,-1.27599 l 0.7949,-1.12817 0.7525,-1.34306 0.9812,-1.13385 0.7668,-1.43027 0.8953,-1.48902 0.6246,-1.28266 0.6901,-1.19807 0.7552,-1.58292 0.5225,-1.35329 0.5702,-1.27083 0.6653,-1.18925 0.8251,-1.44211 0.8396,-1.37915 0.6921,-1.1725 0.821,-1.08382 0.8309,-1.57412 0.6349,-1.08316 0.805,-1.51021 0.5948,-1.60197 0.7015,-1.08207 0.7476,-1.28192 0.7667,-1.31354 0.7364,-1.35449 0.8217,-1.23932 0.7937,-1.13126 0.8152,-1.48536 0.8263,-1.16218 0.7837,-1.34824 0.6553,-1.10576 0.8772,-1.48476 0.7949,-1.09736 0.6438,-1.48957 c 0.2718,-0.46543 0.4395,-0.97757 0.4873,-1.45702 0.064,-0.49992 -0.065,-1.09776 -0.2077,-1.53066 -0.1898,-0.56127 -0.3786,-0.66362 -0.6391,-0.96888 -0.3496,-0.25662 -0.8368,-0.95886 -1.2752,-1.17438 -0.4183,-0.20568 -0.7442,-0.0133 -1.2802,-0.0133 l -1.5289,0.008 -1.2896,0.0253 -1.7453,0.0298 -1.4881,-0.12196 -1.4172,-0.0494 -1.4476,-0.0527 -1.6462,-0.0858 -1.3301,0.0686 -1.5407,-0.044 -1.4175,0.0347 -1.5259,0.003 -1.4931,0.0372 -1.415,0.12567 -1.5263,0.13408 -1.5743,-0.11556 0.07,-1.16035 0.2045,-1.54342 0.1771,-1.04178 0.1892,-1.29962 0.1265,-1.40364 -0.096,-1.44885 c 0.5128,-0.11796 1.1805,-0.26503 1.6694,-0.4278 0.6059,-0.15241 0.8115,-0.0909 1.2295,-0.27133 0.4593,-0.004 1.0464,-0.56108 1.5287,-0.83486 0.4492,-0.32664 0.8192,-0.60691 1.2105,-0.87945 0.3863,-0.38591 0.7483,-0.43548 1.1106,-0.73912 0.3847,-0.21322 0.7783,-0.60858 1.1454,-0.98503 0.3486,-0.28149 0.7628,-0.78093 1.0861,-1.18575 0.3545,-0.39217 0.5589,-0.72138 0.8204,-1.11708 0.261,-0.38616 0.4564,-0.83461 0.6935,-1.27939 0.1592,-0.42726 0.5487,-0.85182 0.7467,-1.31891 0.2859,-0.40444 0.3512,-0.82439 0.5012,-1.29778 0.1445,-0.40123 0.2464,-0.847 0.357,-1.36392 0.068,-0.36989 0.2814,-1.10013 0.3475,-1.65287 0.1366,-0.51139 0.1683,-1.00413 0.1817,-1.49149 0.09,-0.53379 0.014,-1.00366 -0.025,-1.49306 -0.024,-0.52536 -0.084,-1.01432 -0.1731,-1.51069 -0.092,-0.51059 -0.3277,-1.25309 -0.4462,-1.75928 -0.1493,-0.64071 -0.2108,-1.45665 -0.459,-2.03153 -0.09,-0.75275 -0.4724,-1.13145 -0.772,-1.60507 -0.2783,-0.57699 -0.7152,-0.94781 -1.0693,-1.36263 -0.4064,-0.40395 -0.7082,-0.78865 -1.0543,-1.11976 -0.3465,-0.33744 -0.6172,-0.68396 -0.9238,-0.93472 -0.2376,-0.30882 -0.5825,-0.36638 -0.8255,-0.51999 -0.2314,-0.14632 -0.3174,-0.60303 -0.4158,-0.6848 -0.3111,-0.25855 -0.7077,-0.49075 -1.0953,-0.75134 -0.4218,-0.22608 -0.785,-0.52428 -1.2055,-0.76885 -0.4175,-0.25858 -0.8575,-0.74327 -1.2879,-0.95771 -0.405,-0.46456 -0.7692,-0.59215 -1.1535,-0.71424 -0.3807,-0.36432 -0.8437,-0.21208 -1.2089,-0.20881 -0.3331,0.003 -0.5919,0.0229 -0.8141,0.0186 z m -16.1302,14.61763 c -0.2322,9e-4 -0.6192,0.4962 -0.8531,0.55085 -0.4297,0.10038 -0.8523,-0.0296 -1.1806,0.19405 -0.4161,-0.0416 -0.6704,0.67371 -0.8776,1.10906 -0.1551,0.38053 -0.2583,0.7001 -0.3055,1.07605 -0.051,0.40487 -0.025,0.86967 0.071,1.28191 0.052,0.22814 -0.085,0.63925 0.016,0.85015 0.1278,0.5005 0.2881,0.77001 0.4632,1.2428 0.2041,0.3137 0.3585,1.13156 0.6093,1.63261 0.1512,0.51137 0.5998,0.76783 0.8516,1.16956 0.4062,0.33054 0.3316,0.58728 0.6156,0.9676 0.1474,0.24321 0.7454,0.80629 1.1359,1.23498 0.3678,0.2687 0.7048,0.73618 1.0613,1.07848 0.3693,0.34486 0.6737,0.6638 1.0285,0.96096 0.3585,0.33693 0.7441,0.59619 1.1304,0.86537 0.398,0.2772 0.8084,0.52557 1.2238,0.75957 0.4234,0.23841 0.8085,0.53598 1.2472,0.72672 0.036,-0.33966 0.042,-0.70084 0.023,-1.08281 -0.02,-0.38093 -0.061,-0.79196 -0.1265,-1.20974 -0.062,-0.42305 -0.1639,-0.86522 -0.2649,-1.30837 -0.1146,-0.45852 -0.1431,-0.92186 -0.2706,-1.38139 -0.056,-0.49669 -0.4035,-0.85749 -0.5549,-1.33535 -0.2877,-0.41049 -0.2673,-0.97197 -0.4274,-1.47549 -0.1105,-0.4797 -0.3007,-0.92772 -0.4619,-1.43122 -0.1429,-0.43394 -0.3253,-1.01946 -0.4847,-1.53403 -0.1483,-0.4791 -0.3697,-1.26037 -0.5061,-1.73309 -0.1382,-0.47764 -0.1782,-0.64367 -0.2899,-1.08494 -0.1771,-0.3887 -0.4128,-0.75519 -0.7119,-1.03506 -0.2863,-0.30695 -0.6703,-0.35593 -1.0524,-0.49834 -0.3807,-0.14207 -0.696,-0.59452 -1.1089,-0.59089 z m 13.1198,38.90851 c -0.4285,0 -0.6842,0.20246 -1.0697,0.3308 -0.2599,0.2548 -0.7113,0.5105 -1.0536,0.74425 -0.2383,0.39814 -0.633,0.44969 -0.8768,0.6997 -0.3156,0.29077 -0.4423,0.4327 -0.5888,0.76822 -0.1554,0.35651 -0.1292,0.97194 -0.1292,1.42605 0,0.42862 0.1292,0.48242 0.2481,0.86294 0.2053,0.0921 0.3271,0.86133 0.5991,1.25749 0.1885,0.28489 0.4105,0.4916 0.6961,0.73712 0.2435,0.15138 0.6398,0.53383 1.0162,0.70697 0.3697,0.17009 0.7537,0.31878 1.1579,0.31878 0.4286,0 0.8392,0.0608 1.226,-0.0727 0.4074,-0.008 0.7546,-0.37455 1.0922,-0.65188 0.2802,-0.27345 0.5104,-0.77428 0.7461,-1.11779 0.1265,-0.51888 0.3854,-0.55081 0.5325,-0.8626 0.1719,-0.36371 0.3313,-0.83324 0.3313,-1.28347 0,-0.42863 -0.079,-0.85227 -0.2085,-1.23606 -0.1366,-0.39214 -0.1878,-0.47498 -0.4216,-0.7898 -0.1438,-0.1085 -0.5026,-0.82196 -0.9082,-1.11836 -0.2065,-0.34455 -0.6148,-0.0485 -1.0264,-0.16562 -0.41,-0.11677 -0.9646,-0.55395 -1.3629,-0.55395 z" />
  </g>
</svg>
