<?xml version="1.0" encoding="UTF-8" standalone="no"?>
<!-- Created with Inkscape (http://www.inkscape.org/) -->

<svg
   width="146.86708mm"
   height="146.86804mm"
   viewBox="0 0 146.86708 146.86804"
   version="1.1"
   id="svg996"
   inkscape:version="1.1.2 (0a00cf5339, 2022-02-04)"
   sodipodi:docname="githubButton.svg"
   xmlns:inkscape="http://www.inkscape.org/namespaces/inkscape"
   xmlns:sodipodi="http://sodipodi.sourceforge.net/DTD/sodipodi-0.dtd"
   xmlns="http://www.w3.org/2000/svg"
   xmlns:svg="http://www.w3.org/2000/svg">
  <sodipodi:namedview
     id="namedview998"
     pagecolor="#ffffff"
     bordercolor="#666666"
     borderopacity="1.0"
     inkscape:pageshadow="2"
     inkscape:pageopacity="0.0"
     inkscape:pagecheckerboard="0"
     inkscape:document-units="mm"
     showgrid="false"
     fit-margin-top="20"
     fit-margin-left="20"
     fit-margin-right="20"
     fit-margin-bottom="20"
     inkscape:snap-bbox="true"
     inkscape:bbox-paths="true"
     inkscape:bbox-nodes="true"
     inkscape:snap-bbox-edge-midpoints="true"
     inkscape:snap-bbox-midpoints="true"
     inkscape:snap-global="true"
     inkscape:zoom="0.45888313"
     inkscape:cx="0.0104575"
     inkscape:cy="232.0878"
     inkscape:window-width="1920"
     inkscape:window-height="1016"
     inkscape:window-x="0"
     inkscape:window-y="0"
     inkscape:window-maximized="1"
     inkscape:current-layer="layer1" />
  <defs
     id="defs993" />
  <g
     inkscape:label="Layer 1"
     inkscape:groupmode="layer"
     id="layer1"
     transform="translate(-31.900253,-79.816328)">
    <g
       aria-label="votre projet"
       transform="rotate(90,-2.065374,-16.522946)"
       id="text7430"
       style="font-size:16.0973px;line-height:1.25;display:inline;fill:#3ad837;stroke-width:0.402431;fill-opacity:1">
      <g
         aria-label="mon github"
         id="text40211"
         style="font-size:16.1618px;stroke-width:0.162601">
        <path
           d="m 135.90339,-77.634074 q 0,-1.163649 -0.30707,-1.648503 -0.29092,-0.484854 -1.0182,-0.484854 -0.22626,0 -0.46869,0.03232 -0.24243,0.01616 -0.46869,0.04849 v 6.561691 h -2.40811 v -8.210195 q 0.30707,-0.08081 0.71112,-0.161618 0.42021,-0.09697 0.87274,-0.161618 0.46869,-0.08081 0.95354,-0.113133 0.48486,-0.04848 0.95355,-0.04848 0.92122,0 1.48688,0.242427 0.58183,0.226265 0.95355,0.549501 0.51718,-0.371721 1.17981,-0.581825 0.6788,-0.210103 1.24446,-0.210103 1.01819,0 1.66467,0.290912 0.66263,0.274751 1.05051,0.791929 0.38789,0.517177 0.53334,1.228297 0.14546,0.711119 0.14546,1.583856 v 4.800055 h -2.40811 v -4.509143 q 0,-1.163649 -0.30707,-1.648503 -0.29092,-0.484854 -1.0182,-0.484854 -0.19394,0 -0.5495,0.09697 -0.3394,0.09697 -0.56566,0.242427 0.11313,0.371721 0.14545,0.791928 0.0323,0.404045 0.0323,0.872737 v 4.638437 h -2.40811 z"
           style="font-weight:bold;font-family:Ubuntu;-inkscape-font-specification:'Ubuntu, Normal'"
           id="path70487" />
        <path
           d="m 153.1157,-77.391647 q 0,1.002032 -0.29091,1.842446 -0.29092,0.824251 -0.84042,1.422238 -0.5495,0.581825 -1.32526,0.905061 -0.75961,0.323236 -1.71316,0.323236 -0.93738,0 -1.71315,-0.323236 -0.7596,-0.323236 -1.3091,-0.905061 -0.5495,-0.597987 -0.85658,-1.422238 -0.30707,-0.840414 -0.30707,-1.842446 0,-1.002031 0.30707,-1.826283 0.32324,-0.824252 0.87274,-1.406077 0.56566,-0.581825 1.32527,-0.905061 0.77576,-0.323236 1.68082,-0.323236 0.92123,0 1.68083,0.323236 0.77577,0.323236 1.32527,0.905061 0.5495,0.581825 0.85657,1.406077 0.30708,0.824252 0.30708,1.826283 z m -2.45659,0 q 0,-1.115164 -0.45253,-1.745474 -0.43637,-0.646472 -1.26063,-0.646472 -0.82425,0 -1.27678,0.646472 -0.45253,0.63031 -0.45253,1.745474 0,1.115165 0.45253,1.777798 0.45253,0.646472 1.27678,0.646472 0.82426,0 1.26063,-0.646472 0.45253,-0.662633 0.45253,-1.777798 z"
           style="font-weight:bold;font-family:Ubuntu;-inkscape-font-specification:'Ubuntu, Normal'"
           id="path70489" />
        <path
           d="m 154.97428,-81.335126 q 0.61415,-0.17778 1.58386,-0.323236 0.96971,-0.161618 2.03638,-0.161618 1.08284,0 1.79396,0.290912 0.72728,0.274751 1.14749,0.791929 0.42021,0.517177 0.59799,1.228297 0.17778,0.711119 0.17778,1.583856 v 4.800055 h -2.40811 v -4.509143 q 0,-1.163649 -0.30707,-1.648503 -0.30708,-0.484854 -1.14749,-0.484854 -0.25859,0 -0.5495,0.03232 -0.29092,0.01616 -0.51718,0.04849 v 6.561691 h -2.40811 z"
           style="font-weight:bold;font-family:Ubuntu;-inkscape-font-specification:'Ubuntu, Normal'"
           id="path70491" />
        <path
           d="m 170.42494,-77.650235 q 0,2.020225 1.63234,2.020225 0.37172,0 0.69496,-0.09697 0.32324,-0.09697 0.5495,-0.226265 v -3.846509 q -0.17778,-0.03232 -0.42021,-0.04848 -0.24242,-0.03232 -0.56566,-0.03232 -0.95354,0 -1.42224,0.63031 -0.46869,0.630311 -0.46869,1.600019 z m 5.28491,3.458625 q 0,2.084872 -1.06668,3.086904 -1.05052,1.018193 -3.26468,1.018193 -0.77577,0 -1.55154,-0.145456 -0.77576,-0.129294 -1.4384,-0.35556 l 0.42021,-2.020225 q 0.56566,0.226265 1.17981,0.35556 0.63031,0.129294 1.42224,0.129294 1.03436,0 1.45456,-0.45253 0.43637,-0.452531 0.43637,-1.16365 v -0.307074 q -0.38788,0.17778 -0.80809,0.274751 -0.40404,0.08081 -0.8889,0.08081 -1.76163,0 -2.69902,-1.034356 -0.93738,-1.050517 -0.93738,-2.925285 0,-0.937385 0.29091,-1.696989 0.29091,-0.775767 0.84041,-1.325268 0.56567,-0.549501 1.37376,-0.840414 0.80809,-0.307074 1.82628,-0.307074 0.43637,0 0.8889,0.04848 0.46869,0.03232 0.92122,0.09697 0.45253,0.06465 0.85658,0.161618 0.4202,0.08081 0.74344,0.17778 z"
           style="font-weight:bold;font-family:Ubuntu;-inkscape-font-specification:'Ubuntu, Normal'"
           id="path70493" />
        <path
           d="m 180.38061,-73.124931 h -2.40811 v -8.501107 h 2.40811 z m 0.22626,-10.957701 q 0,0.662634 -0.43637,1.050517 -0.4202,0.371721 -1.00203,0.371721 -0.58182,0 -1.01819,-0.371721 -0.42021,-0.387883 -0.42021,-1.050517 0,-0.662634 0.42021,-1.034355 0.43637,-0.387883 1.01819,-0.387883 0.58183,0 1.00203,0.387883 0.43637,0.371721 0.43637,1.034355 z"
           style="font-weight:bold;font-family:Ubuntu;-inkscape-font-specification:'Ubuntu, Normal'"
           id="path70495" />
        <path
           d="m 182.56244,-83.743234 2.40811,-0.387883 v 2.505079 h 2.89296 v 2.004063 h -2.89296 v 2.989933 q 0,0.759605 0.25859,1.212135 0.27475,0.45253 1.08284,0.45253 0.38788,0 0.79193,-0.06465 0.4202,-0.08081 0.7596,-0.210103 l 0.3394,1.874769 q -0.43637,0.177779 -0.96971,0.307074 -0.53334,0.129294 -1.3091,0.129294 -0.98587,0 -1.63235,-0.258589 -0.64647,-0.27475 -1.03435,-0.743442 -0.38788,-0.484854 -0.5495,-1.16365 -0.14546,-0.678796 -0.14546,-1.503047 z"
           style="font-weight:bold;font-family:Ubuntu;-inkscape-font-specification:'Ubuntu, Normal'"
           id="path70497" />
        <path
           d="m 189.81906,-73.124931 v -12.153674 l 2.40811,-0.387883 v 4.072773 q 0.24243,-0.08081 0.61415,-0.145456 0.38788,-0.08081 0.74344,-0.08081 1.03436,0 1.71315,0.290912 0.69496,0.274751 1.09901,0.791929 0.4202,0.517177 0.58182,1.228297 0.17778,0.711119 0.17778,1.583856 v 4.800055 h -2.40811 v -4.509143 q 0,-1.163649 -0.30707,-1.648503 -0.29091,-0.484854 -1.099,-0.484854 -0.32324,0 -0.61415,0.06465 -0.27475,0.04848 -0.50102,0.113133 v 6.46472 z"
           style="font-weight:bold;font-family:Ubuntu;-inkscape-font-specification:'Ubuntu, Normal'"
           id="path70499" />
        <path
           d="m 206.59499,-73.415844 q -0.61415,0.17778 -1.58386,0.323236 -0.9697,0.161618 -2.03638,0.161618 -1.08284,0 -1.81012,-0.290912 -0.71112,-0.290913 -1.13133,-0.80809 -0.42021,-0.53334 -0.59799,-1.260621 -0.17778,-0.727281 -0.17778,-1.600018 v -4.735407 h 2.40811 v 4.444495 q 0,1.163649 0.30708,1.680827 0.30707,0.517178 1.14748,0.517178 0.25859,0 0.5495,-0.01616 0.29092,-0.03232 0.51718,-0.06465 v -6.561691 h 2.40811 z"
           style="font-weight:bold;font-family:Ubuntu;-inkscape-font-specification:'Ubuntu, Normal'"
           id="path70501" />
        <path
           d="m 214.30416,-77.440132 q 0,-2.327299 -1.71315,-2.327299 -0.37173,0 -0.74345,0.09697 -0.35556,0.09697 -0.58182,0.242427 v 4.379847 q 0.17778,0.03232 0.45253,0.06465 0.27475,0.01616 0.59798,0.01616 0.98587,0 1.48689,-0.678795 0.50102,-0.678796 0.50102,-1.79396 z m 2.45659,0.06465 q 0,1.018194 -0.30707,1.842445 -0.29092,0.824252 -0.85658,1.406077 -0.56566,0.581825 -1.38991,0.905061 -0.82426,0.307074 -1.87477,0.307074 -0.43637,0 -0.92123,-0.04848 -0.46869,-0.03232 -0.93738,-0.09697 -0.45253,-0.06465 -0.87274,-0.145456 -0.4202,-0.09697 -0.74344,-0.193942 v -11.878923 l 2.40811,-0.387883 v 4.234391 q 0.40404,-0.17778 0.84041,-0.27475 0.43637,-0.09697 0.93739,-0.09697 0.90506,0 1.60001,0.323236 0.69496,0.307074 1.16365,0.888899 0.4687,0.581825 0.71112,1.406077 0.24243,0.80809 0.24243,1.810121 z"
           style="font-weight:bold;font-family:Ubuntu;-inkscape-font-specification:'Ubuntu, Normal'"
           id="path70503" />
      </g>
      <g
         aria-label="mon github"
         transform="rotate(-90)"
         id="text3015"
         style="font-size:16.1618px;stroke-width:0.162601">
        <path
           d="m 92.117585,212.10159 q 0,-1.16365 -0.307075,-1.6485 -0.290912,-0.48486 -1.018193,-0.48486 -0.226265,0 -0.468692,0.0323 -0.242427,0.0162 -0.468692,0.0485 v 6.56169 h -2.408109 v -8.21019 q 0.307075,-0.0808 0.71112,-0.16162 0.420206,-0.097 0.872737,-0.16162 0.468692,-0.0808 0.953546,-0.11313 0.484854,-0.0485 0.953546,-0.0485 0.921223,0 1.486886,0.24243 0.581825,0.22627 0.953546,0.5495 0.517178,-0.37172 1.179812,-0.58182 0.678795,-0.21011 1.244458,-0.21011 1.018194,0 1.664666,0.29092 0.662633,0.27475 1.050517,0.79193 0.387883,0.51717 0.533339,1.22829 0.145456,0.71112 0.145456,1.58386 v 4.80005 h -2.408108 v -4.50914 q 0,-1.16365 -0.307074,-1.6485 -0.290913,-0.48486 -1.018194,-0.48486 -0.193941,0 -0.549501,0.097 -0.339398,0.097 -0.565663,0.24243 0.113133,0.37172 0.145456,0.79193 0.03232,0.40404 0.03232,0.87274 v 4.63843 h -2.408108 z"
           style="font-weight:bold;font-family:Ubuntu;-inkscape-font-specification:'Ubuntu, Normal'"
           id="path70468" />
        <path
           d="m 109.32989,212.34402 q 0,1.00203 -0.29091,1.84244 -0.29091,0.82425 -0.84041,1.42224 -0.5495,0.58183 -1.32527,0.90506 -0.7596,0.32324 -1.71315,0.32324 -0.93738,0 -1.71315,-0.32324 -0.75961,-0.32323 -1.30911,-0.90506 -0.5495,-0.59799 -0.85657,-1.42224 -0.30708,-0.84041 -0.30708,-1.84244 0,-1.00203 0.30708,-1.82629 0.32323,-0.82425 0.87273,-1.40607 0.56567,-0.58183 1.32527,-0.90506 0.77577,-0.32324 1.68083,-0.32324 0.92122,0 1.68083,0.32324 0.77576,0.32323 1.32526,0.90506 0.54951,0.58182 0.85658,1.40607 0.30707,0.82426 0.30707,1.82629 z m -2.45659,0 q 0,-1.11517 -0.45253,-1.74548 -0.43637,-0.64647 -1.26062,-0.64647 -0.82425,0 -1.27678,0.64647 -0.45253,0.63031 -0.45253,1.74548 0,1.11516 0.45253,1.7778 0.45253,0.64647 1.27678,0.64647 0.82425,0 1.26062,-0.64647 0.45253,-0.66264 0.45253,-1.7778 z"
           style="font-weight:bold;font-family:Ubuntu;-inkscape-font-specification:'Ubuntu, Normal'"
           id="path70470" />
        <path
           d="m 111.18848,208.40054 q 0.61414,-0.17778 1.58385,-0.32324 0.96971,-0.16162 2.03639,-0.16162 1.08284,0 1.79396,0.29092 0.72728,0.27475 1.14749,0.79193 0.4202,0.51717 0.59798,1.22829 0.17778,0.71112 0.17778,1.58386 v 4.80005 h -2.4081 v -4.50914 q 0,-1.16365 -0.30708,-1.6485 -0.30707,-0.48486 -1.14749,-0.48486 -0.25859,0 -0.5495,0.0323 -0.29091,0.0162 -0.51718,0.0485 v 6.56169 h -2.4081 z"
           style="font-weight:bold;font-family:Ubuntu;-inkscape-font-specification:'Ubuntu, Normal'"
           id="path70472" />
        <path
           d="m 126.63914,212.08543 q 0,2.02022 1.63234,2.02022 0.37172,0 0.69496,-0.097 0.32323,-0.097 0.5495,-0.22626 v -3.84651 q -0.17778,-0.0323 -0.42021,-0.0485 -0.24243,-0.0323 -0.56566,-0.0323 -0.95355,0 -1.42224,0.63031 -0.46869,0.63031 -0.46869,1.60002 z m 5.2849,3.45862 q 0,2.08488 -1.06667,3.08691 -1.05052,1.01819 -3.26469,1.01819 -0.77576,0 -1.55153,-0.14545 -0.77577,-0.1293 -1.4384,-0.35556 l 0.42021,-2.02023 q 0.56566,0.22627 1.17981,0.35556 0.63031,0.12929 1.42224,0.12929 1.03435,0 1.45456,-0.45253 0.43637,-0.45253 0.43637,-1.16365 v -0.30707 q -0.38789,0.17778 -0.80809,0.27475 -0.40405,0.0808 -0.8889,0.0808 -1.76164,0 -2.69902,-1.03436 -0.93739,-1.05051 -0.93739,-2.92528 0,-0.93739 0.29091,-1.69699 0.29092,-0.77577 0.84042,-1.32527 0.56566,-0.5495 1.37375,-0.84041 0.80809,-0.30708 1.82628,-0.30708 0.43637,0 0.8889,0.0485 0.4687,0.0323 0.92123,0.097 0.45253,0.0647 0.85657,0.16162 0.42021,0.0808 0.74344,0.17778 z"
           style="font-weight:bold;font-family:Ubuntu;-inkscape-font-specification:'Ubuntu, Normal'"
           id="path70474" />
        <path
           d="m 136.5948,216.61073 h -2.40811 v -8.5011 h 2.40811 z m 0.22627,-10.9577 q 0,0.66264 -0.43637,1.05052 -0.42021,0.37172 -1.00203,0.37172 -0.58183,0 -1.0182,-0.37172 -0.4202,-0.38788 -0.4202,-1.05052 0,-0.66263 0.4202,-1.03435 0.43637,-0.38789 1.0182,-0.38789 0.58182,0 1.00203,0.38789 0.43637,0.37172 0.43637,1.03435 z"
           style="font-weight:bold;font-family:Ubuntu;-inkscape-font-specification:'Ubuntu, Normal'"
           id="path70476" />
        <path
           d="m 138.77664,205.99243 2.40811,-0.38788 v 2.50508 h 2.89296 v 2.00406 h -2.89296 v 2.98993 q 0,0.75961 0.25858,1.21214 0.27475,0.45253 1.08284,0.45253 0.38789,0 0.79193,-0.0647 0.42021,-0.0808 0.75961,-0.2101 l 0.3394,1.87477 q -0.43637,0.17778 -0.96971,0.30707 -0.53334,0.12929 -1.30911,0.12929 -0.98587,0 -1.63234,-0.25858 -0.64647,-0.27475 -1.03436,-0.74345 -0.38788,-0.48485 -0.5495,-1.16365 -0.14545,-0.67879 -0.14545,-1.50304 z"
           style="font-weight:bold;font-family:Ubuntu;-inkscape-font-specification:'Ubuntu, Normal'"
           id="path70478" />
        <path
           d="m 146.03326,216.61073 v -12.15367 l 2.40811,-0.38788 v 4.07277 q 0.24242,-0.0808 0.61414,-0.14546 0.38789,-0.0808 0.74345,-0.0808 1.03435,0 1.71315,0.29092 0.69496,0.27475 1.099,0.79193 0.42021,0.51717 0.58183,1.22829 0.17778,0.71112 0.17778,1.58386 v 4.80005 h -2.40811 v -4.50914 q 0,-1.16365 -0.30708,-1.6485 -0.29091,-0.48486 -1.099,-0.48486 -0.32324,0 -0.61415,0.0647 -0.27475,0.0485 -0.50101,0.11313 v 6.46472 z"
           style="font-weight:bold;font-family:Ubuntu;-inkscape-font-specification:'Ubuntu, Normal'"
           id="path70480" />
        <path
           d="m 162.80919,216.31982 q -0.61415,0.17778 -1.58386,0.32324 -0.96971,0.16161 -2.03639,0.16161 -1.08284,0 -1.81012,-0.29091 -0.71112,-0.29091 -1.13133,-0.80809 -0.4202,-0.53334 -0.59798,-1.26062 -0.17778,-0.72728 -0.17778,-1.60002 v -4.7354 h 2.40811 v 4.44449 q 0,1.16365 0.30707,1.68083 0.30707,0.51718 1.14749,0.51718 0.25859,0 0.5495,-0.0162 0.29091,-0.0323 0.51718,-0.0646 v -6.56169 h 2.40811 z"
           style="font-weight:bold;font-family:Ubuntu;-inkscape-font-specification:'Ubuntu, Normal'"
           id="path70482" />
        <path
           d="m 170.51835,212.29553 q 0,-2.3273 -1.71315,-2.3273 -0.37172,0 -0.74344,0.097 -0.35556,0.097 -0.58183,0.24243 v 4.37985 q 0.17778,0.0323 0.45253,0.0647 0.27475,0.0162 0.59799,0.0162 0.98587,0 1.48689,-0.6788 0.50101,-0.67879 0.50101,-1.79396 z m 2.45659,0.0647 q 0,1.01819 -0.30707,1.84244 -0.29091,0.82426 -0.85657,1.40608 -0.56567,0.58183 -1.38992,0.90506 -0.82425,0.30708 -1.87477,0.30708 -0.43637,0 -0.92122,-0.0485 -0.46869,-0.0323 -0.93739,-0.097 -0.45253,-0.0647 -0.87273,-0.14546 -0.42021,-0.097 -0.74345,-0.19394 v -11.87892 l 2.40811,-0.38788 v 4.23439 q 0.40405,-0.17778 0.84042,-0.27475 0.43636,-0.097 0.93738,-0.097 0.90506,0 1.60002,0.32323 0.69496,0.30708 1.16365,0.8889 0.46869,0.58183 0.71112,1.40608 0.24242,0.80809 0.24242,1.81012 z"
           style="font-weight:bold;font-family:Ubuntu;-inkscape-font-specification:'Ubuntu, Normal'"
           id="path70484" />
      </g>
      <g
         aria-label="mon github"
         transform="rotate(90)"
         id="text40215"
         style="font-size:16.1618px;stroke-width:0.162601">
        <path
           d="m -153.83227,-121.41991 q 0,-1.16365 -0.30707,-1.6485 -0.29091,-0.48486 -1.01819,-0.48486 -0.22627,0 -0.4687,0.0323 -0.24242,0.0162 -0.46869,0.0485 v 6.56169 h -2.40811 v -8.21019 q 0.30708,-0.0808 0.71112,-0.16162 0.42021,-0.097 0.87274,-0.16162 0.46869,-0.0808 0.95355,-0.11313 0.48485,-0.0485 0.95354,-0.0485 0.92122,0 1.48689,0.24243 0.58182,0.22627 0.95354,0.5495 0.51718,-0.37172 1.17981,-0.58182 0.6788,-0.21011 1.24446,-0.21011 1.0182,0 1.66467,0.29092 0.66263,0.27475 1.05052,0.79193 0.38788,0.51717 0.53334,1.22829 0.14545,0.71112 0.14545,1.58386 v 4.80005 h -2.40811 v -4.50914 q 0,-1.16365 -0.30707,-1.6485 -0.29091,-0.48486 -1.01819,-0.48486 -0.19395,0 -0.54951,0.097 -0.33939,0.097 -0.56566,0.24243 0.11313,0.37172 0.14546,0.79193 0.0323,0.40404 0.0323,0.87274 v 4.63843 h -2.40811 z"
           style="font-weight:bold;font-family:Ubuntu;-inkscape-font-specification:'Ubuntu, Normal'"
           id="path70506" />
        <path
           d="m -136.61996,-121.17748 q 0,1.00203 -0.29091,1.84244 -0.29091,0.82426 -0.84041,1.42224 -0.5495,0.58183 -1.32527,0.90506 -0.75961,0.32324 -1.71315,0.32324 -0.93739,0 -1.71315,-0.32324 -0.75961,-0.32323 -1.30911,-0.90506 -0.5495,-0.59798 -0.85657,-1.42224 -0.30708,-0.84041 -0.30708,-1.84244 0,-1.00203 0.30708,-1.82629 0.32323,-0.82425 0.87273,-1.40607 0.56567,-0.58183 1.32527,-0.90506 0.77577,-0.32324 1.68083,-0.32324 0.92122,0 1.68083,0.32324 0.77576,0.32323 1.32526,0.90506 0.5495,0.58182 0.85658,1.40607 0.30707,0.82426 0.30707,1.82629 z m -2.45659,0 q 0,-1.11517 -0.45253,-1.74548 -0.43637,-0.64647 -1.26062,-0.64647 -0.82425,0 -1.27678,0.64647 -0.45253,0.63031 -0.45253,1.74548 0,1.11516 0.45253,1.7778 0.45253,0.64647 1.27678,0.64647 0.82425,0 1.26062,-0.64647 0.45253,-0.66264 0.45253,-1.7778 z"
           style="font-weight:bold;font-family:Ubuntu;-inkscape-font-specification:'Ubuntu, Normal'"
           id="path70508" />
        <path
           d="m -134.76138,-125.12096 q 0.61415,-0.17778 1.58386,-0.32324 0.96971,-0.16162 2.03639,-0.16162 1.08284,0 1.79396,0.29092 0.72728,0.27475 1.14748,0.79193 0.42021,0.51717 0.59799,1.22829 0.17778,0.71112 0.17778,1.58386 v 4.80005 h -2.40811 v -4.50914 q 0,-1.16365 -0.30707,-1.6485 -0.30708,-0.48486 -1.14749,-0.48486 -0.25859,0 -0.5495,0.0323 -0.29091,0.0162 -0.51718,0.0485 v 6.56169 h -2.40811 z"
           style="font-weight:bold;font-family:Ubuntu;-inkscape-font-specification:'Ubuntu, Normal'"
           id="path70510" />
        <path
           d="m -119.31072,-121.43607 q 0,2.02022 1.63235,2.02022 0.37172,0 0.69495,-0.097 0.32324,-0.097 0.5495,-0.22626 v -3.84651 q -0.17778,-0.0323 -0.4202,-0.0485 -0.24243,-0.0323 -0.56567,-0.0323 -0.95354,0 -1.42223,0.63031 -0.4687,0.63031 -0.4687,1.60002 z m 5.28491,3.45862 q 0,2.08488 -1.06668,3.08691 -1.05051,1.01819 -3.26468,1.01819 -0.77577,0 -1.55153,-0.14545 -0.77577,-0.1293 -1.4384,-0.35556 l 0.4202,-2.02023 q 0.56567,0.22627 1.17982,0.35556 0.63031,0.1293 1.42223,0.1293 1.03436,0 1.45457,-0.45254 0.43636,-0.45253 0.43636,-1.16365 v -0.30707 q -0.38788,0.17778 -0.80809,0.27475 -0.40404,0.0808 -0.88889,0.0808 -1.76164,0 -2.69903,-1.03435 -0.93738,-1.05052 -0.93738,-2.92529 0,-0.93739 0.29091,-1.69699 0.29092,-0.77577 0.84042,-1.32527 0.56566,-0.5495 1.37375,-0.84041 0.80809,-0.30708 1.82628,-0.30708 0.43637,0 0.8889,0.0485 0.46869,0.0323 0.92122,0.097 0.45253,0.0647 0.85658,0.16162 0.42021,0.0808 0.74344,0.17778 z"
           style="font-weight:bold;font-family:Ubuntu;-inkscape-font-specification:'Ubuntu, Normal'"
           id="path70512" />
        <path
           d="m -109.35505,-116.91077 h -2.40811 v -8.5011 h 2.40811 z m 0.22626,-10.9577 q 0,0.66264 -0.43636,1.05052 -0.42021,0.37172 -1.00204,0.37172 -0.58182,0 -1.01819,-0.37172 -0.42021,-0.38788 -0.42021,-1.05052 0,-0.66263 0.42021,-1.03435 0.43637,-0.38789 1.01819,-0.38789 0.58183,0 1.00204,0.38789 0.43636,0.37172 0.43636,1.03435 z"
           style="font-weight:bold;font-family:Ubuntu;-inkscape-font-specification:'Ubuntu, Normal'"
           id="path70514" />
        <path
           d="m -107.17321,-127.52907 2.4081,-0.38788 v 2.50508 h 2.89297 v 2.00406 h -2.89297 v 2.98993 q 0,0.75961 0.25859,1.21214 0.27475,0.45253 1.08284,0.45253 0.38789,0 0.79193,-0.0647 0.42021,-0.0808 0.75961,-0.2101 l 0.33939,1.87477 q -0.43637,0.17778 -0.9697,0.30707 -0.53334,0.1293 -1.30911,0.1293 -0.98587,0 -1.63234,-0.25859 -0.64647,-0.27475 -1.03436,-0.74345 -0.38788,-0.48485 -0.5495,-1.16365 -0.14545,-0.67879 -0.14545,-1.50304 z"
           style="font-weight:bold;font-family:Ubuntu;-inkscape-font-specification:'Ubuntu, Normal'"
           id="path70516" />
        <path
           d="m -99.916594,-116.91077 v -12.15367 l 2.408108,-0.38788 v 4.07277 q 0.242427,-0.0808 0.614148,-0.14546 0.387884,-0.0808 0.743443,-0.0808 1.034356,0 1.713151,0.29092 0.694958,0.27475 1.099003,0.79193 0.420206,0.51717 0.581824,1.22829 0.17778,0.71112 0.17778,1.58386 v 4.80005 h -2.408108 v -4.50914 q 0,-1.16365 -0.307074,-1.6485 -0.290913,-0.48486 -1.099003,-0.48486 -0.323236,0 -0.614148,0.0647 -0.274751,0.0485 -0.501016,0.11313 v 6.46472 z"
           style="font-weight:bold;font-family:Ubuntu;-inkscape-font-specification:'Ubuntu, Normal'"
           id="path70518" />
        <path
           d="m -83.140666,-117.20168 q -0.614149,0.17778 -1.583857,0.32324 -0.969708,0.16162 -2.036387,0.16162 -1.08284,0 -1.810121,-0.29092 -0.711119,-0.29091 -1.131326,-0.80809 -0.420207,-0.53334 -0.597987,-1.26062 -0.17778,-0.72728 -0.17778,-1.60002 v -4.7354 h 2.408109 v 4.44449 q 0,1.16365 0.307074,1.68083 0.307074,0.51718 1.147488,0.51718 0.258588,0 0.549501,-0.0162 0.290912,-0.0323 0.517177,-0.0646 v -6.56169 h 2.408109 z"
           style="font-weight:bold;font-family:Ubuntu;-inkscape-font-specification:'Ubuntu, Normal'"
           id="path70520" />
        <path
           d="m -75.431501,-121.22597 q 0,-2.3273 -1.713151,-2.3273 -0.371721,0 -0.743443,0.097 -0.355559,0.097 -0.581824,0.24243 v 4.37985 q 0.177779,0.0323 0.45253,0.0647 0.274751,0.0162 0.597987,0.0162 0.985869,0 1.486885,-0.6788 0.501016,-0.67879 0.501016,-1.79396 z m 2.456594,0.0647 q 0,1.01819 -0.307074,1.84245 -0.290913,0.82425 -0.856576,1.40607 -0.565663,0.58183 -1.389915,0.90506 -0.824252,0.30708 -1.874769,0.30708 -0.436368,0 -0.921222,-0.0485 -0.468692,-0.0323 -0.937385,-0.097 -0.45253,-0.0647 -0.872737,-0.14546 -0.420207,-0.097 -0.743443,-0.19394 v -11.87892 l 2.408109,-0.38788 v 4.23439 q 0.404045,-0.17778 0.840413,-0.27475 0.436369,-0.097 0.937385,-0.097 0.905061,0 1.600018,0.32323 0.694957,0.30708 1.16365,0.8889 0.468692,0.58183 0.711119,1.40608 0.242427,0.80809 0.242427,1.81012 z"
           style="font-weight:bold;font-family:Ubuntu;-inkscape-font-specification:'Ubuntu, Normal'"
           id="path70522" />
      </g>
      <g
         aria-label="mon github"
         transform="scale(-1)"
         id="text40219"
         style="font-size:16.1618px;stroke-width:0.162601">
        <path
           d="m -197.61811,168.31578 q 0,-1.16365 -0.30707,-1.64851 -0.29092,-0.48485 -1.0182,-0.48485 -0.22626,0 -0.46869,0.0323 -0.24243,0.0162 -0.46869,0.0485 v 6.56169 h -2.40811 v -8.21019 q 0.30707,-0.0808 0.71112,-0.16162 0.42021,-0.097 0.87274,-0.16162 0.46869,-0.0808 0.95354,-0.11313 0.48486,-0.0485 0.95355,-0.0485 0.92122,0 1.48688,0.24243 0.58183,0.22626 0.95355,0.5495 0.51718,-0.37172 1.17981,-0.58182 0.6788,-0.21011 1.24446,-0.21011 1.01819,0 1.66467,0.29091 0.66263,0.27476 1.05051,0.79193 0.38789,0.51718 0.53334,1.2283 0.14546,0.71112 0.14546,1.58386 v 4.80005 h -2.40811 v -4.50914 q 0,-1.16365 -0.30707,-1.64851 -0.29092,-0.48485 -1.0182,-0.48485 -0.19394,0 -0.5495,0.097 -0.3394,0.097 -0.56566,0.24243 0.11313,0.37172 0.14545,0.79193 0.0323,0.40404 0.0323,0.87273 v 4.63844 h -2.40811 z"
           style="font-weight:bold;font-family:Ubuntu;-inkscape-font-specification:'Ubuntu, Normal'"
           id="path70525" />
        <path
           d="m -180.4058,168.55821 q 0,1.00203 -0.29091,1.84244 -0.29092,0.82425 -0.84042,1.42224 -0.5495,0.58182 -1.32526,0.90506 -0.75961,0.32324 -1.71316,0.32324 -0.93738,0 -1.71315,-0.32324 -0.7596,-0.32324 -1.3091,-0.90506 -0.5495,-0.59799 -0.85658,-1.42224 -0.30707,-0.84041 -0.30707,-1.84244 0,-1.00204 0.30707,-1.82629 0.32324,-0.82425 0.87274,-1.40607 0.56566,-0.58183 1.32527,-0.90507 0.77576,-0.32323 1.68082,-0.32323 0.92123,0 1.68083,0.32323 0.77577,0.32324 1.32527,0.90507 0.5495,0.58182 0.85658,1.40607 0.30707,0.82425 0.30707,1.82629 z m -2.45659,0 q 0,-1.11517 -0.45253,-1.74548 -0.43637,-0.64647 -1.26063,-0.64647 -0.82425,0 -1.27678,0.64647 -0.45253,0.63031 -0.45253,1.74548 0,1.11516 0.45253,1.77779 0.45253,0.64648 1.27678,0.64648 0.82426,0 1.26063,-0.64648 0.45253,-0.66263 0.45253,-1.77779 z"
           style="font-weight:bold;font-family:Ubuntu;-inkscape-font-specification:'Ubuntu, Normal'"
           id="path70527" />
        <path
           d="m -178.54722,164.61473 q 0.61415,-0.17778 1.58386,-0.32324 0.96971,-0.16162 2.03638,-0.16162 1.08284,0 1.79396,0.29091 0.72729,0.27476 1.14749,0.79193 0.42021,0.51718 0.59799,1.2283 0.17778,0.71112 0.17778,1.58386 v 4.80005 h -2.40811 v -4.50914 q 0,-1.16365 -0.30707,-1.64851 -0.30708,-0.48485 -1.14749,-0.48485 -0.25859,0 -0.5495,0.0323 -0.29092,0.0162 -0.51718,0.0485 v 6.56169 h -2.40811 z"
           style="font-weight:bold;font-family:Ubuntu;-inkscape-font-specification:'Ubuntu, Normal'"
           id="path70529" />
        <path
           d="m -163.09656,168.29962 q 0,2.02022 1.63234,2.02022 0.37172,0 0.69496,-0.097 0.32324,-0.097 0.5495,-0.22626 v -3.84651 q -0.17778,-0.0323 -0.42021,-0.0485 -0.24242,-0.0323 -0.56566,-0.0323 -0.95354,0 -1.42224,0.63031 -0.46869,0.63031 -0.46869,1.60002 z m 5.28491,3.45862 q 0,2.08487 -1.06668,3.08691 -1.05052,1.01819 -3.26468,1.01819 -0.77577,0 -1.55154,-0.14546 -0.77576,-0.12929 -1.4384,-0.35556 l 0.42021,-2.02022 q 0.56566,0.22626 1.17981,0.35556 0.63031,0.12929 1.42224,0.12929 1.03436,0 1.45456,-0.45253 0.43637,-0.45253 0.43637,-1.16365 v -0.30707 q -0.38788,0.17778 -0.80809,0.27475 -0.40404,0.0808 -0.8889,0.0808 -1.76163,0 -2.69902,-1.03436 -0.93738,-1.05051 -0.93738,-2.92528 0,-0.93739 0.29091,-1.69699 0.29091,-0.77577 0.84041,-1.32527 0.56567,-0.5495 1.37376,-0.84041 0.80809,-0.30708 1.82628,-0.30708 0.43637,0 0.8889,0.0485 0.46869,0.0323 0.92122,0.097 0.45253,0.0647 0.85658,0.16162 0.4202,0.0808 0.74344,0.17778 z"
           style="font-weight:bold;font-family:Ubuntu;-inkscape-font-specification:'Ubuntu, Normal'"
           id="path70531" />
        <path
           d="m -153.14089,172.82492 h -2.40811 v -8.50111 h 2.40811 z m 0.22626,-10.9577 q 0,0.66263 -0.43637,1.05052 -0.4202,0.37172 -1.00203,0.37172 -0.58182,0 -1.01819,-0.37172 -0.42021,-0.38789 -0.42021,-1.05052 0,-0.66263 0.42021,-1.03436 0.43637,-0.38788 1.01819,-0.38788 0.58183,0 1.00203,0.38788 0.43637,0.37173 0.43637,1.03436 z"
           style="font-weight:bold;font-family:Ubuntu;-inkscape-font-specification:'Ubuntu, Normal'"
           id="path70533" />
        <path
           d="m -150.95906,162.20662 2.40811,-0.38789 v 2.50508 h 2.89296 v 2.00407 h -2.89296 v 2.98993 q 0,0.7596 0.25859,1.21213 0.27475,0.45254 1.08284,0.45254 0.38788,0 0.79193,-0.0647 0.4202,-0.0808 0.7596,-0.21011 l 0.3394,1.87477 q -0.43637,0.17778 -0.96971,0.30708 -0.53334,0.12929 -1.3091,0.12929 -0.98587,0 -1.63235,-0.25859 -0.64647,-0.27475 -1.03435,-0.74344 -0.38788,-0.48485 -0.5495,-1.16365 -0.14546,-0.67879 -0.14546,-1.50305 z"
           style="font-weight:bold;font-family:Ubuntu;-inkscape-font-specification:'Ubuntu, Normal'"
           id="path70535" />
        <path
           d="m -143.70244,172.82492 v -12.15367 l 2.40811,-0.38789 v 4.07278 q 0.24243,-0.0808 0.61415,-0.14546 0.38788,-0.0808 0.74344,-0.0808 1.03436,0 1.71315,0.29091 0.69496,0.27476 1.09901,0.79193 0.4202,0.51718 0.58182,1.2283 0.17778,0.71112 0.17778,1.58386 v 4.80005 h -2.40811 v -4.50914 q 0,-1.16365 -0.30707,-1.64851 -0.29091,-0.48485 -1.099,-0.48485 -0.32324,0 -0.61415,0.0647 -0.27475,0.0485 -0.50102,0.11313 v 6.46472 z"
           style="font-weight:bold;font-family:Ubuntu;-inkscape-font-specification:'Ubuntu, Normal'"
           id="path70537" />
        <path
           d="m -126.92651,172.53401 q -0.61415,0.17778 -1.58386,0.32323 -0.9697,0.16162 -2.03638,0.16162 -1.08284,0 -1.81012,-0.29091 -0.71112,-0.29091 -1.13133,-0.80809 -0.42021,-0.53334 -0.59799,-1.26062 -0.17778,-0.72728 -0.17778,-1.60002 v -4.73541 h 2.40811 v 4.4445 q 0,1.16365 0.30708,1.68083 0.30707,0.51717 1.14748,0.51717 0.25859,0 0.5495,-0.0162 0.29092,-0.0323 0.51718,-0.0647 v -6.56169 h 2.40811 z"
           style="font-weight:bold;font-family:Ubuntu;-inkscape-font-specification:'Ubuntu, Normal'"
           id="path70539" />
        <path
           d="m -119.21734,168.50972 q 0,-2.3273 -1.71315,-2.3273 -0.37173,0 -0.74345,0.097 -0.35556,0.097 -0.58182,0.24243 v 4.37985 q 0.17778,0.0323 0.45253,0.0646 0.27475,0.0162 0.59798,0.0162 0.98587,0 1.48689,-0.6788 0.50102,-0.6788 0.50102,-1.79396 z m 2.45659,0.0647 q 0,1.01819 -0.30707,1.84244 -0.29092,0.82425 -0.85658,1.40608 -0.56566,0.58182 -1.38991,0.90506 -0.82426,0.30707 -1.87477,0.30707 -0.43637,0 -0.92123,-0.0485 -0.46869,-0.0323 -0.93738,-0.097 -0.45253,-0.0647 -0.87274,-0.14546 -0.4202,-0.097 -0.74344,-0.19394 v -11.87892 l 2.40811,-0.38789 v 4.2344 q 0.40404,-0.17778 0.84041,-0.27476 0.43637,-0.097 0.93739,-0.097 0.90506,0 1.60001,0.32324 0.69496,0.30707 1.16365,0.8889 0.4687,0.58182 0.71112,1.40608 0.24243,0.80809 0.24243,1.81012 z"
           style="font-weight:bold;font-family:Ubuntu;-inkscape-font-specification:'Ubuntu, Normal'"
           id="path70541" />
      </g>
      <g
         aria-label="→"
         transform="rotate(-90)"
         id="text69906"
         style="font-size:49.8014px;stroke-width:0.501044">
        <path
           d="M 138.68822,167.70792 123.74781,152.7675 h -0.49802 v 10.20929 H 109.156 v 9.46226 h 14.09379 v 10.20929 h 0.49802 z"
           style="font-family:'Frick 0.3';-inkscape-font-specification:'Frick 0.3, Normal'"
           id="path70544" />
      </g>
    </g>
  </g>
</svg>
