<?xml version="1.0" encoding="UTF-8" standalone="no"?>
<!-- Created with Inkscape (http://www.inkscape.org/) -->

<svg
   width="146.86708mm"
   height="146.86804mm"
   viewBox="0 0 146.86706 146.86804"
   version="1.1"
   id="svg9568"
   inkscape:version="1.1.2 (0a00cf5339, 2022-02-04)"
   sodipodi:docname="yourProjectButtonV2.svg"
   xmlns:inkscape="http://www.inkscape.org/namespaces/inkscape"
   xmlns:sodipodi="http://sodipodi.sourceforge.net/DTD/sodipodi-0.dtd"
   xmlns="http://www.w3.org/2000/svg"
   xmlns:svg="http://www.w3.org/2000/svg">
  <sodipodi:namedview
     id="namedview9570"
     pagecolor="#ffffff"
     bordercolor="#666666"
     borderopacity="1.0"
     inkscape:pageshadow="2"
     inkscape:pageopacity="0"
     inkscape:pagecheckerboard="0"
     inkscape:document-units="mm"
     showgrid="false"
     fit-margin-top="20"
     fit-margin-left="20"
     fit-margin-right="20"
     fit-margin-bottom="20"
     inkscape:zoom="0.36193356"
     inkscape:cx="338.45991"
     inkscape:cy="120.1878"
     inkscape:window-width="1920"
     inkscape:window-height="1016"
     inkscape:window-x="0"
     inkscape:window-y="0"
     inkscape:window-maximized="1"
     inkscape:current-layer="layer1"
     inkscape:snap-global="true"
     lock-margins="true"
     inkscape:snap-center="true"
     inkscape:snap-object-midpoints="true" />
  <defs
     id="defs9565">
    <filter
       inkscape:collect="always"
       style="color-interpolation-filters:sRGB"
       id="filter140439"
       x="-0.5736511"
       y="-0.5736511"
       width="2.1473022"
       height="2.1473022">
      <feGaussianBlur
         inkscape:collect="always"
         stdDeviation="16.688872"
         id="feGaussianBlur140441" />
    </filter>
  </defs>
  <g
     inkscape:label="Layer 1"
     inkscape:groupmode="layer"
     id="layer1"
     transform="translate(-50.488573,-94.2739)">
    <circle
       style="opacity:1;mix-blend-mode:normal;fill:#ff0000;stroke:none;stroke-width:0.371331;stroke-linecap:round;stroke-opacity:0.973669;filter:url(#filter140439)"
       id="path140169"
       cx="123.92211"
       cy="167.70792"
       r="34.910847"
       transform="matrix(2.5389603,0,0,2.5389603,-190.71121,-258.09582)" />
    <g
       aria-label="+"
       id="text7162"
       style="font-size:49.9436px;line-height:1.25;display:inline;fill:#ffffff;stroke-width:1.2486" />
    <g
       aria-label="votre projet"
       id="text7166"
       style="font-size:16.0973px;line-height:1.25;display:inline;fill:#ffffff;stroke-width:0.402431" />
    <g
       aria-label="votre projet"
       transform="rotate(-90)"
       id="text7422"
       style="font-size:16.0973px;line-height:1.25;display:inline;fill:#ffffff;stroke-width:0.402431" />
    <g
       aria-label="votre projet"
       transform="scale(-1)"
       id="text7426"
       style="font-size:16.0973px;line-height:1.25;display:inline;fill:#ffffff;stroke-width:0.402431" />
    <g
       aria-label="votre projet"
       transform="rotate(90)"
       id="text7430"
       style="font-size:16.0973px;line-height:1.25;display:inline;fill:#ffffff;stroke-width:0.402431">
      <path
         id="path9739"
         style="font-family:UBUNTU;-inkscape-font-specification:UBUNTU"
         d="m 215.22938,-81.869375 h 3.17117 v 1.255589 h -3.17117 v 3.863352 q 0,0.627795 0.0966,1.046325 0.0966,0.402432 0.28975,0.643892 0.19317,0.225362 0.48292,0.321946 0.28975,0.09658 0.67609,0.09658 0.67609,0 1.07852,-0.144875 0.41853,-0.160973 0.5795,-0.225362 l 0.28975,1.239492 q -0.22536,0.112681 -0.78876,0.273654 -0.56341,0.17707 -1.28779,0.17707 -0.85316,0 -1.41656,-0.209265 -0.54731,-0.225362 -0.88535,-0.659989 -0.33805,-0.434627 -0.48292,-1.062422 -0.12878,-0.643892 -0.12878,-1.480952 v -7.469147 l 1.49705,-0.257556 z m -10.86565,4.201395 q 0,-1.110714 0.32195,-1.931676 0.32194,-0.837059 0.85316,-1.384368 0.53121,-0.547308 1.22339,-0.820962 0.69218,-0.273654 1.41656,-0.273654 1.69022,0 2.59167,1.062422 0.90145,1.046324 0.90145,3.203362 0,0.09658 0,0.257557 0,0.144876 -0.0161,0.273654 h -5.73064 q 0.0966,1.303882 0.75657,1.979968 0.65999,0.676087 2.06046,0.676087 0.78877,0 1.31998,-0.128779 0.5473,-0.144875 0.82096,-0.273654 l 0.20926,1.25559 q -0.27365,0.144875 -0.96583,0.305848 -0.67609,0.160973 -1.54534,0.160973 -1.09462,0 -1.89949,-0.321946 -0.78876,-0.338043 -1.30388,-0.917546 -0.51511,-0.579503 -0.77267,-1.36827 -0.24146,-0.804865 -0.24146,-1.754606 z m 5.74674,-0.820962 q 0.0161,-1.01413 -0.51511,-1.658022 -0.51512,-0.659989 -1.43266,-0.659989 -0.51512,0 -0.91755,0.209265 -0.38634,0.193167 -0.65999,0.515113 -0.27365,0.321946 -0.43463,0.740476 -0.14487,0.41853 -0.19316,0.853157 z m -10.72078,8.000358 q -0.19317,0 -0.49902,-0.04829 -0.30584,-0.04829 -0.51511,-0.128779 l 0.19317,-1.223394 q 0.16097,0.04829 0.37024,0.08049 0.20926,0.0322 0.38633,0.0322 0.77267,0 1.09462,-0.482919 0.33804,-0.466822 0.33804,-1.384368 v -8.22572 h 1.49705 v 8.209623 q 0,1.60973 -0.74048,2.3824 -0.72437,0.788768 -2.12484,0.788768 z m 2.10875,-12.893937 q -0.40244,0 -0.69219,-0.257557 -0.27365,-0.273654 -0.27365,-0.724379 0,-0.450724 0.27365,-0.708281 0.28975,-0.273654 0.69219,-0.273654 0.40243,0 0.67608,0.273654 0.28975,0.257557 0.28975,0.708281 0,0.450725 -0.28975,0.724379 -0.27365,0.257557 -0.67608,0.257557 z m -2.84919,5.698444 q 0,0.998032 -0.28976,1.802897 -0.28975,0.804865 -0.82096,1.384368 -0.51511,0.579503 -1.23949,0.901449 -0.72438,0.305849 -1.57754,0.305849 -0.85315,0 -1.57753,-0.305849 -0.72438,-0.321946 -1.25559,-0.901449 -0.51511,-0.579503 -0.80487,-1.384368 -0.28975,-0.804865 -0.28975,-1.802897 0,-0.981935 0.28975,-1.7868 0.28976,-0.820963 0.80487,-1.400466 0.53121,-0.579502 1.25559,-0.885351 0.72438,-0.321946 1.57753,-0.321946 0.85316,0 1.57754,0.321946 0.72438,0.305849 1.23949,0.885351 0.53121,0.579503 0.82096,1.400466 0.28976,0.804865 0.28976,1.7868 z m -1.56144,0 q 0,-1.416563 -0.64389,-2.237525 -0.6278,-0.837059 -1.72242,-0.837059 -1.09461,0 -1.7385,0.837059 -0.6278,0.820962 -0.6278,2.237525 0,1.416562 0.6278,2.253622 0.64389,0.820962 1.7385,0.820962 1.09462,0 1.72242,-0.820962 0.64389,-0.83706 0.64389,-2.253622 z m -8.9501,-4.362368 q 0.19317,0 0.43463,0.03219 0.25756,0.0161 0.49902,0.06439 0.24146,0.0322 0.43462,0.08049 0.20927,0.0322 0.30585,0.06439 l -0.25756,1.303881 q -0.17707,-0.06439 -0.5956,-0.144875 -0.40243,-0.09658 -1.04632,-0.09658 -0.41853,0 -0.83706,0.09658 -0.40243,0.08049 -0.53121,0.112681 v 7.03452 h -1.49705 v -8.016455 q 0.53121,-0.193168 1.31998,-0.354141 0.78877,-0.17707 1.7707,-0.177071 z m -6.76084,4.378465 q 0,-1.464854 -0.72438,-2.253622 -0.72438,-0.788768 -1.93168,-0.788768 -0.67608,0 -1.06242,0.04829 -0.37024,0.04829 -0.5956,0.112681 v 5.279915 q 0.27365,0.225362 0.78877,0.434627 0.51511,0.209265 1.12681,0.209265 0.64389,0 1.09462,-0.225362 0.46682,-0.24146 0.75657,-0.643892 0.28975,-0.41853 0.41853,-0.965838 0.12878,-0.563406 0.12878,-1.207298 z m 1.56144,0 q 0,0.949741 -0.25756,1.754606 -0.24146,0.804865 -0.72438,1.384368 -0.48292,0.579502 -1.1912,0.901448 -0.69218,0.321946 -1.59363,0.321946 -0.72438,0 -1.28779,-0.193167 -0.54731,-0.193168 -0.82096,-0.370238 v 3.348238 h -1.49705 v -11.091039 q 0.53121,-0.128779 1.31998,-0.273654 0.80487,-0.160973 1.85119,-0.160973 0.96584,0 1.73851,0.305848 0.77267,0.305849 1.31998,0.869254 0.54731,0.563406 0.83706,1.384368 0.30585,0.804865 0.30585,1.818995 z m -20.55621,0 q 0,-1.110714 0.32195,-1.931676 0.32194,-0.837059 0.85315,-1.384368 0.53121,-0.547308 1.2234,-0.820962 0.69218,-0.273654 1.41656,-0.273654 1.69022,0 2.59167,1.062422 0.90144,1.046324 0.90144,3.203362 0,0.09658 0,0.257557 0,0.144876 -0.0161,0.273654 h -5.73064 q 0.0966,1.303882 0.75657,1.979968 0.65999,0.676087 2.06046,0.676087 0.78876,0 1.31997,-0.128779 0.54731,-0.144875 0.82097,-0.273654 l 0.20926,1.25559 q -0.27365,0.144875 -0.96584,0.305848 -0.67608,0.160973 -1.54534,0.160973 -1.09461,0 -1.89948,-0.321946 -0.78877,-0.338043 -1.30388,-0.917546 -0.51511,-0.579503 -0.77267,-1.36827 -0.24146,-0.804865 -0.24146,-1.754606 z m 5.74674,-0.820962 q 0.0161,-1.01413 -0.51512,-1.658022 -0.51511,-0.659989 -1.43266,-0.659989 -0.51511,0 -0.91754,0.209265 -0.38634,0.193167 -0.65999,0.515113 -0.27366,0.321946 -0.43463,0.740476 -0.14488,0.41853 -0.19317,0.853157 z m -8.40279,-3.557503 q 0.19317,0 0.43463,0.03219 0.25756,0.0161 0.49901,0.06439 0.24146,0.0322 0.43463,0.08049 0.20927,0.0322 0.30585,0.06439 l -0.25756,1.303881 q -0.17707,-0.06439 -0.5956,-0.144875 -0.40243,-0.09658 -1.04632,-0.09658 -0.41853,0 -0.83706,0.09658 -0.40243,0.08049 -0.53121,0.112681 v 7.03452 h -1.49705 v -8.016455 q 0.53121,-0.193168 1.31998,-0.354141 0.78877,-0.17707 1.7707,-0.17707 z m -8.16131,0.17707 h 3.17117 v 1.255589 h -3.17117 v 3.863352 q 0,0.627795 0.0966,1.046325 0.0966,0.402432 0.28975,0.643892 0.19317,0.225362 0.48292,0.321946 0.28975,0.09658 0.67609,0.09658 0.67608,0 1.07851,-0.144875 0.41853,-0.160973 0.57951,-0.225362 l 0.28975,1.239492 q -0.22536,0.112681 -0.78877,0.273654 -0.5634,0.17707 -1.28778,0.17707 -0.85316,0 -1.41657,-0.209265 -0.5473,-0.225362 -0.88535,-0.659989 -0.33804,-0.434627 -0.48292,-1.062422 -0.12877,-0.643892 -0.12877,-1.480952 v -7.469147 l 1.49704,-0.257556 z m -3.50918,4.185298 q 0,0.998032 -0.28975,1.802897 -0.28975,0.804865 -0.82096,1.384368 -0.51512,0.579503 -1.23949,0.901449 -0.72438,0.305849 -1.57754,0.305849 -0.85316,0 -1.57754,-0.305849 -0.72437,-0.321946 -1.25558,-0.901449 -0.51512,-0.579503 -0.80487,-1.384368 -0.28975,-0.804865 -0.28975,-1.802897 0,-0.981935 0.28975,-1.7868 0.28975,-0.820963 0.80487,-1.400466 0.53121,-0.579502 1.25558,-0.885351 0.72438,-0.321946 1.57754,-0.321946 0.85316,0 1.57754,0.321946 0.72437,0.305849 1.23949,0.885351 0.53121,0.579503 0.82096,1.400466 0.28975,0.804865 0.28975,1.7868 z m -1.56144,0 q 0,-1.416563 -0.64389,-2.237525 -0.62779,-0.837059 -1.72241,-0.837059 -1.09462,0 -1.73851,0.837059 -0.62779,0.820962 -0.62779,2.237525 0,1.416562 0.62779,2.253622 0.64389,0.820962 1.73851,0.820962 1.09462,0 1.72241,-0.820962 0.64389,-0.83706 0.64389,-2.253622 z m -7.14715,-4.185298 q -0.6278,2.350206 -1.48095,4.507244 -0.83706,2.157038 -1.62583,3.863352 h -1.35217 q -0.78877,-1.706314 -1.64193,-3.863352 -0.83706,-2.157038 -1.46485,-4.507244 h 1.60973 q 0.19317,0.788768 0.45072,1.690216 0.27366,0.885352 0.56341,1.770703 0.30585,0.869255 0.6117,1.690217 0.30584,0.820962 0.5795,1.464854 0.27365,-0.643892 0.5795,-1.464854 0.30585,-0.820962 0.5956,-1.690217 0.30585,-0.885351 0.56341,-1.770703 0.27365,-0.901448 0.46682,-1.690216 z m -13.69227,5.468826 v 3.171168 h -1.25559 v -3.171168 h -3.86335 q -0.6278,0 -1.04633,0.09658 -0.40243,0.09658 -0.64389,0.289752 -0.22536,0.193167 -0.32194,0.482919 -0.0966,0.289751 -0.0966,0.676086 0,0.676087 0.14488,1.078519 0.16097,0.41853 0.22536,0.579503 l -1.23949,0.289752 q -0.11268,-0.225363 -0.27366,-0.788768 -0.17707,-0.563406 -0.17707,-1.287784 0,-0.853157 0.20927,-1.416562 0.22536,-0.547309 0.65999,-0.885352 0.43462,-0.338043 1.06242,-0.482919 0.64389,-0.128778 1.48095,-0.128778 h 7.46915 l 0.25755,1.497049 z m -4.2014,-10.865647 q 1.11072,0 1.93168,0.321946 0.83706,0.321946 1.38437,0.853157 0.54731,0.531211 0.82096,1.223395 0.27365,0.692184 0.27365,1.416562 0,1.690217 -1.06242,2.591665 -1.04632,0.901449 -3.20336,0.901449 -0.0966,0 -0.25756,0 -0.14487,0 -0.27365,-0.0161 v -5.730639 q -1.30388,0.09658 -1.97997,0.756573 -0.67609,0.659989 -0.67609,2.060455 0,0.788767 0.12878,1.319978 0.14488,0.547308 0.27366,0.820962 l -1.25559,0.209265 q -0.14488,-0.273654 -0.30585,-0.965838 -0.16097,-0.676086 -0.16097,-1.54534 0,-1.094617 0.32194,-1.899482 0.33805,-0.788767 0.91755,-1.303881 0.5795,-0.515114 1.36827,-0.77267 0.80486,-0.24146 1.7546,-0.24146 z m 0.82097,5.746736 q 1.01413,0.0161 1.65802,-0.515114 0.65999,-0.515113 0.65999,-1.432659 0,-0.515114 -0.20927,-0.917546 -0.19317,-0.386335 -0.51511,-0.65999 -0.32195,-0.273654 -0.74048,-0.434627 -0.41853,-0.144875 -0.85315,-0.193167 z m -8.00036,-10.720778 q 0,-0.193168 0.0483,-0.499017 0.0483,-0.305848 0.12878,-0.515113 l 1.22339,0.193167 q -0.0483,0.160973 -0.0805,0.370238 -0.0322,0.209265 -0.0322,0.386335 0,0.772671 0.48292,1.094617 0.46682,0.338043 1.38437,0.338043 h 8.22572 v 1.497049 h -8.20962 q -1.60973,0 -2.3824,-0.740476 -0.78877,-0.724378 -0.78877,-2.124843 z m 12.89394,2.108746 q 0,-0.402433 0.25755,-0.692184 0.27366,-0.273654 0.72438,-0.273654 0.45072,0 0.70828,0.273654 0.27366,0.289751 0.27366,0.692184 0,0.402432 -0.27366,0.676086 -0.25756,0.289752 -0.70828,0.289752 -0.45072,0 -0.72438,-0.289752 -0.25755,-0.273654 -0.25755,-0.676086 z m -5.69845,-2.849191 q -0.99803,0 -1.8029,-0.289751 -0.80486,-0.289752 -1.38436,-0.820963 -0.57951,-0.515113 -0.90145,-1.239492 -0.30585,-0.724378 -0.30585,-1.577535 0,-0.853157 0.30585,-1.577535 0.32194,-0.724379 0.90145,-1.25559 0.5795,-0.515111 1.38436,-0.804861 0.80487,-0.28976 1.8029,-0.28976 0.98194,0 1.7868,0.28976 0.82096,0.28975 1.40047,0.804861 0.5795,0.531211 0.88535,1.25559 0.32194,0.724378 0.32194,1.577535 0,0.853157 -0.32194,1.577535 -0.30585,0.724379 -0.88535,1.239492 -0.57951,0.531211 -1.40047,0.820963 -0.80486,0.289751 -1.7868,0.289751 z m 0,-1.561438 q 1.41656,0 2.23753,-0.643892 0.83706,-0.627795 0.83706,-1.722411 0,-1.094616 -0.83706,-1.738508 -0.82097,-0.627795 -2.23753,-0.627795 -1.41656,0 -2.25362,0.627795 -0.82096,0.643892 -0.82096,1.738508 0,1.094616 0.82096,1.722411 0.83706,0.643892 2.25362,0.643892 z m 4.36237,-8.950099 q 0,0.19317 -0.0322,0.43463 -0.0161,0.25756 -0.0644,0.49902 -0.0322,0.24146 -0.0805,0.43462 -0.0322,0.20927 -0.0644,0.30585 l -1.30388,-0.25755 q 0.0644,-0.17707 0.14487,-0.5956 0.0966,-0.40244 0.0966,-1.04633 0,-0.41853 -0.0966,-0.83706 -0.0805,-0.40243 -0.11268,-0.53121 h -7.03452 v -1.49705 h 8.01646 q 0.19317,0.53121 0.35414,1.31998 0.17707,0.78877 0.17707,1.7707 z m -4.37847,-6.76084 q 1.46486,0 2.25363,-0.72438 0.78876,-0.72438 0.78876,-1.93168 0,-0.67608 -0.0483,-1.06242 -0.0483,-0.37024 -0.11268,-0.5956 h -5.27991 q -0.22537,0.27366 -0.43463,0.78877 -0.20927,0.51511 -0.20927,1.12681 0,0.64389 0.22537,1.09462 0.24146,0.46682 0.64389,0.75657 0.41853,0.28975 0.96584,0.41853 0.5634,0.12878 1.20729,0.12878 z m 0,1.56144 q -0.94974,0 -1.7546,-0.25756 -0.80487,-0.24146 -1.38437,-0.72438 -0.5795,-0.48292 -0.90145,-1.1912 -0.32194,-0.69218 -0.32194,-1.59363 0,-0.72438 0.19316,-1.28779 0.19317,-0.5473 0.37024,-0.82096 h -3.34824 v -1.49705 h 11.09104 q 0.12878,0.53121 0.27366,1.31998 0.16097,0.80487 0.16097,1.85119 0,0.96584 -0.30585,1.73851 -0.30585,0.77267 -0.86925,1.31998 -0.56341,0.54731 -1.38437,0.83706 -0.80487,0.30585 -1.819,0.30585 z m 0,-20.55621 q 1.11072,0 1.93168,0.32195 0.83706,0.32194 1.38437,0.85315 0.54731,0.53122 0.82096,1.2234 0.27365,0.69218 0.27365,1.41656 0,1.69022 -1.06242,2.59167 -1.04632,0.90145 -3.20336,0.90145 -0.0966,0 -0.25756,0 -0.14487,0 -0.27365,-0.0161 v -5.73064 q -1.30388,0.0966 -1.97997,0.75657 -0.67609,0.65999 -0.67609,2.06046 0,0.78877 0.12878,1.31998 0.14488,0.5473 0.27366,0.82096 l -1.25559,0.20926 q -0.14488,-0.27365 -0.30585,-0.96583 -0.16097,-0.67609 -0.16097,-1.54535 0,-1.09461 0.32194,-1.89948 0.33805,-0.78876 0.91755,-1.30388 0.5795,-0.51511 1.36827,-0.77267 0.80486,-0.24146 1.7546,-0.24146 z m 0.82097,5.74674 q 1.01413,0.0161 1.65802,-0.51512 0.65999,-0.51511 0.65999,-1.43266 0,-0.51511 -0.20927,-0.91754 -0.19317,-0.38634 -0.51511,-0.65999 -0.32195,-0.27365 -0.74048,-0.43463 -0.41853,-0.14487 -0.85315,-0.19317 z m 3.5575,-8.40279 q 0,0.19317 -0.0322,0.43463 -0.0161,0.25756 -0.0644,0.49902 -0.0322,0.24146 -0.0805,0.43462 -0.0322,0.20927 -0.0644,0.30585 l -1.30388,-0.25756 q 0.0644,-0.17707 0.14487,-0.5956 0.0966,-0.40243 0.0966,-1.04632 0,-0.41853 -0.0966,-0.83706 -0.0805,-0.40243 -0.11268,-0.53121 h -7.03452 v -1.49705 h 8.01646 q 0.19317,0.53121 0.35414,1.31998 0.17707,0.78877 0.17707,1.7707 z m -0.17707,-8.1613 v 3.17116 h -1.25559 v -3.17116 h -3.86335 q -0.6278,0 -1.04633,0.0966 -0.40243,0.0966 -0.64389,0.28975 -0.22536,0.19317 -0.32194,0.48292 -0.0966,0.28975 -0.0966,0.67609 0,0.67608 0.14488,1.07852 0.16097,0.41853 0.22536,0.5795 l -1.23949,0.28975 q -0.11268,-0.22536 -0.27366,-0.78877 -0.17707,-0.5634 -0.17707,-1.28778 0,-0.85316 0.20927,-1.41656 0.22536,-0.54731 0.65999,-0.88536 0.43462,-0.33804 1.06242,-0.48291 0.64389,-0.12878 1.48095,-0.12878 h 7.46915 l 0.25755,1.49705 z m -4.1853,-3.50919 q -0.99803,0 -1.8029,-0.28975 -0.80486,-0.28975 -1.38436,-0.82096 -0.57951,-0.51511 -0.90145,-1.23949 -0.30585,-0.72438 -0.30585,-1.57754 0,-0.85316 0.30585,-1.57753 0.32194,-0.72438 0.90145,-1.25559 0.5795,-0.51512 1.38436,-0.80487 0.80487,-0.28975 1.8029,-0.28975 0.98194,0 1.7868,0.28975 0.82096,0.28975 1.40047,0.80487 0.5795,0.53121 0.88535,1.25559 0.32194,0.72437 0.32194,1.57753 0,0.85316 -0.32194,1.57754 -0.30585,0.72438 -0.88535,1.23949 -0.57951,0.53121 -1.40047,0.82096 -0.80486,0.28975 -1.7868,0.28975 z m 0,-1.56144 q 1.41656,0 2.23753,-0.64389 0.83706,-0.62779 0.83706,-1.72241 0,-1.09462 -0.83706,-1.73851 -0.82097,-0.62779 -2.23753,-0.62779 -1.41656,0 -2.25362,0.62779 -0.82096,0.64389 -0.82096,1.73851 0,1.09462 0.82096,1.72241 0.83706,0.64389 2.25362,0.64389 z m 4.1853,-7.14715 q -2.35021,-0.62779 -4.50724,-1.48095 -2.15704,-0.83706 -3.86336,-1.62583 v -1.35217 q 1.70632,-0.78877 3.86336,-1.64193 2.15703,-0.83706 4.50724,-1.46485 v 1.60973 q -0.78877,0.19317 -1.69022,0.45072 -0.88535,0.27366 -1.7707,0.56341 -0.86925,0.30585 -1.69022,0.6117 -0.82096,0.30585 -1.46485,0.5795 0.64389,0.27365 1.46485,0.5795 0.82097,0.30585 1.69022,0.5956 0.88535,0.30585 1.7707,0.56341 0.90145,0.27365 1.69022,0.46682 z m -5.46831,-13.6919 h -3.17117 v -1.25559 h 3.17117 v -3.86335 q 0,-0.6278 -0.0966,-1.04633 -0.0966,-0.40243 -0.28975,-0.64389 -0.19317,-0.22536 -0.48292,-0.32195 -0.28975,-0.0966 -0.67609,-0.0966 -0.67608,0 -1.07852,0.14487 -0.41853,0.16098 -0.5795,0.22537 l -0.28975,-1.23949 q 0.22536,-0.11269 0.78877,-0.27366 0.5634,-0.17707 1.28778,-0.17707 0.85316,0 1.41656,0.20927 0.54731,0.22536 0.88535,0.65998 0.33805,0.43463 0.48292,1.06243 0.12878,0.64389 0.12878,1.48095 v 7.46915 l -1.49705,0.25755 z m 10.86565,-4.2014 q 0,1.11072 -0.32195,1.93168 -0.32194,0.83706 -0.85315,1.38437 -0.53121,0.5473 -1.2234,0.82096 -0.69218,0.27365 -1.41656,0.27365 -1.69022,0 -2.59167,-1.06242 -0.90145,-1.04632 -0.90145,-3.20336 0,-0.0966 0,-0.25756 0,-0.14488 0.0161,-0.27365 h 5.73064 q -0.0966,-1.30388 -0.75657,-1.97997 -0.65999,-0.67609 -2.06046,-0.67609 -0.78876,0 -1.31998,0.12878 -0.5473,0.14488 -0.82096,0.27365 l -0.20926,-1.25558 q 0.27365,-0.14488 0.96584,-0.30585 0.67608,-0.16098 1.54534,-0.16098 1.09461,0 1.89948,0.32195 0.78877,0.33804 1.30388,0.91755 0.51511,0.5795 0.77267,1.36827 0.24146,0.80486 0.24146,1.7546 z m -5.74674,0.82096 q -0.0161,1.01413 0.51512,1.65803 0.51511,0.65999 1.43266,0.65999 0.51511,0 0.91754,-0.20927 0.38634,-0.19317 0.65999,-0.51511 0.27366,-0.32195 0.43463,-0.74048 0.14487,-0.41853 0.19317,-0.85316 z m 10.72078,-8.00035 q 0.19317,0 0.49902,0.0483 0.30585,0.0483 0.51511,0.12878 l -0.19317,1.22339 q -0.16097,-0.0483 -0.37023,-0.0805 -0.20927,-0.0322 -0.38634,-0.0322 -0.77267,0 -1.09462,0.48292 -0.33804,0.46682 -0.33804,1.38437 v 8.22572 h -1.49705 v -8.20963 q 0,-1.60973 0.74048,-2.3824 0.72438,-0.78876 2.12484,-0.78876 z m -2.10874,12.89393 q 0.40243,0 0.69218,0.25756 0.27365,0.27365 0.27365,0.72438 0,0.45072 -0.27365,0.70828 -0.28975,0.27365 -0.69218,0.27365 -0.40244,0 -0.67609,-0.27365 -0.28975,-0.25756 -0.28975,-0.70828 0,-0.45073 0.28975,-0.72438 0.27365,-0.25756 0.67609,-0.25756 z m 2.84919,-5.69844 q 0,-0.99803 0.28975,-1.8029 0.28975,-0.80486 0.82096,-1.38437 0.51511,-0.5795 1.23949,-0.90145 0.72438,-0.30584 1.57754,-0.30584 0.85315,0 1.57753,0.30584 0.72438,0.32195 1.25559,0.90145 0.51512,0.57951 0.80487,1.38437 0.28975,0.80487 0.28975,1.8029 0,0.98193 -0.28975,1.7868 -0.28975,0.82096 -0.80487,1.40046 -0.53121,0.57951 -1.25559,0.88536 -0.72438,0.32194 -1.57753,0.32194 -0.85316,0 -1.57754,-0.32194 -0.72438,-0.30585 -1.23949,-0.88536 -0.53121,-0.5795 -0.82096,-1.40046 -0.28975,-0.80487 -0.28975,-1.7868 z m 1.56143,0 q 0,1.41656 0.6439,2.23752 0.62779,0.83706 1.72241,0.83706 1.09461,0 1.73851,-0.83706 0.62779,-0.82096 0.62779,-2.23752 0,-1.41656 -0.62779,-2.25362 -0.6439,-0.82097 -1.73851,-0.82097 -1.09462,0 -1.72241,0.82097 -0.6439,0.83706 -0.6439,2.25362 z m 8.9501,4.36237 q -0.19317,0 -0.43463,-0.0322 -0.25755,-0.0161 -0.49901,-0.0644 -0.24146,-0.0322 -0.43463,-0.0805 -0.20927,-0.0322 -0.30585,-0.0644 l 0.25756,-1.30388 q 0.17707,0.0644 0.5956,0.14487 0.40243,0.0966 1.04632,0.0966 0.41853,0 0.83706,-0.0966 0.40243,-0.0805 0.53121,-0.11268 v -7.03452 h 1.49705 v 8.0165 q -0.53121,0.19316 -1.31998,0.35414 -0.78877,0.17707 -1.7707,0.17707 z m 6.76084,-4.37847 q 0,1.46486 0.72438,2.25362 0.72438,0.78877 1.93168,0.78877 0.67609,0 1.06242,-0.0483 0.37024,-0.0483 0.5956,-0.11268 v -5.27992 q -0.27365,-0.22536 -0.78877,-0.43462 -0.51511,-0.20927 -1.12681,-0.20927 -0.64389,0 -1.09461,0.22536 -0.46683,0.24146 -0.75658,0.6439 -0.28975,0.41853 -0.41853,0.96583 -0.12878,0.56341 -0.12878,1.2073 z m -1.56143,0 q 0,-0.94974 0.25755,-1.7546 0.24146,-0.80487 0.72438,-1.38437 0.48292,-0.5795 1.1912,-0.90145 0.69219,-0.32195 1.59363,-0.32195 0.72438,0 1.28779,0.19317 0.54731,0.19317 0.82096,0.37024 v -3.34824 h 1.49705 v 11.09104 q -0.53121,0.12878 -1.31998,0.27365 -0.80486,0.16098 -1.85119,0.16098 -0.96584,0 -1.73851,-0.30585 -0.77267,-0.30585 -1.31998,-0.86926 -0.5473,-0.5634 -0.83705,-1.38436 -0.30585,-0.80487 -0.30585,-1.819 z m 20.5562,0 q 0,1.11072 -0.32194,1.93168 -0.32195,0.83706 -0.85316,1.38437 -0.53121,0.5473 -1.2234,0.82096 -0.69218,0.27365 -1.41656,0.27365 -1.69022,0 -2.59166,-1.06242 -0.90145,-1.04632 -0.90145,-3.20336 0,-0.0966 0,-0.25756 0,-0.14488 0.0161,-0.27365 h 5.73064 q -0.0966,-1.30388 -0.75657,-1.97997 -0.65999,-0.67609 -2.06045,-0.67609 -0.78877,0 -1.31998,0.12878 -0.54731,0.14488 -0.82097,0.27365 l -0.20926,-1.25558 q 0.27365,-0.14488 0.96584,-0.30585 0.67608,-0.16098 1.54534,-0.16098 1.09461,0 1.89948,0.32195 0.78877,0.33804 1.30388,0.91755 0.51511,0.5795 0.77267,1.36827 0.24146,0.80486 0.24146,1.7546 z m -5.74673,0.82096 q -0.0161,1.01413 0.51511,1.65803 0.51511,0.65999 1.43266,0.65999 0.51511,0 0.91754,-0.20927 0.38634,-0.19317 0.65999,-0.51511 0.27366,-0.32195 0.43463,-0.74048 0.14488,-0.41853 0.19317,-0.85316 z m 8.40278,3.55751 q -0.19317,0 -0.43463,-0.0322 -0.25755,-0.0161 -0.49901,-0.0644 -0.24146,-0.0322 -0.43463,-0.0805 -0.20927,-0.0322 -0.30585,-0.0644 l 0.25756,-1.30388 q 0.17707,0.0644 0.5956,0.14487 0.40243,0.0966 1.04632,0.0966 0.41853,0 0.83706,-0.0966 0.40243,-0.0805 0.53121,-0.11268 v -7.03452 h 1.49705 v 8.0165 q -0.53121,0.19316 -1.31998,0.35414 -0.78876,0.17707 -1.7707,0.17707 z m 8.16131,-0.17707 h -3.17117 v -1.25559 h 3.17117 v -3.86335 q 0,-0.6278 -0.0966,-1.04633 -0.0966,-0.40243 -0.28975,-0.64389 -0.19317,-0.22536 -0.48292,-0.32195 -0.28975,-0.0966 -0.67608,-0.0966 -0.67609,0 -1.07852,0.14487 -0.41853,0.16098 -0.57951,0.22537 l -0.28975,-1.23949 q 0.22537,-0.11269 0.78877,-0.27366 0.56341,-0.17707 1.28778,-0.17707 0.85316,0 1.41657,0.20927 0.54731,0.22536 0.88535,0.65998 0.33804,0.43463 0.48292,1.06243 0.12878,0.64389 0.12878,1.48095 v 7.46915 l -1.49705,0.25755 z m 3.50918,-4.1853 q 0,-0.99803 0.28975,-1.8029 0.28975,-0.80486 0.82096,-1.38437 0.51512,-0.5795 1.2395,-0.90145 0.72437,-0.30584 1.57753,-0.30584 0.85316,0 1.57754,0.30584 0.72438,0.32195 1.25559,0.90145 0.51511,0.57951 0.80486,1.38437 0.28975,0.80487 0.28975,1.8029 0,0.98193 -0.28975,1.7868 -0.28975,0.82096 -0.80486,1.40046 -0.53121,0.57951 -1.25559,0.88536 -0.72438,0.32194 -1.57754,0.32194 -0.85316,0 -1.57753,-0.32194 -0.72438,-0.30585 -1.2395,-0.88536 -0.53121,-0.5795 -0.82096,-1.40046 -0.28975,-0.80487 -0.28975,-1.7868 z m 1.56144,0 q 0,1.41656 0.64389,2.23752 0.6278,0.83706 1.72241,0.83706 1.09462,0 1.73851,-0.83706 0.62779,-0.82096 0.62779,-2.23752 0,-1.41656 -0.62779,-2.25362 -0.64389,-0.82097 -1.73851,-0.82097 -1.09461,0 -1.72241,0.82097 -0.64389,0.83706 -0.64389,2.25362 z m 7.14715,4.1853 q 0.6278,-2.35021 1.48095,-4.50725 0.83706,-2.15704 1.62583,-3.86335 h 1.35217 q 0.78877,1.70631 1.64193,3.86335 0.83706,2.15704 1.46485,4.50725 h -1.60973 q -0.19316,-0.78877 -0.45072,-1.69022 -0.27366,-0.88535 -0.56341,-1.7707 -0.30585,-0.86926 -0.61169,-1.69022 -0.30585,-0.82096 -0.57951,-1.46485 -0.27365,0.64389 -0.5795,1.46485 -0.30585,0.82096 -0.5956,1.69022 -0.30585,0.88535 -0.56341,1.7707 -0.27365,0.90145 -0.46682,1.69022 z m 13.69235,-5.46891 v -3.17117 h 1.25559 v 3.17117 h 3.86335 q 0.62779,0 1.04632,-0.0966 0.40244,-0.0966 0.6439,-0.28975 0.22536,-0.19317 0.32194,-0.48292 0.0966,-0.28975 0.0966,-0.67608 0,-0.67609 -0.14488,-1.07852 -0.16097,-0.41853 -0.22536,-0.57951 l 1.23949,-0.28975 q 0.11268,0.22537 0.27365,0.78877 0.17707,0.56341 0.17707,1.28778 0,0.85316 -0.20926,1.41657 -0.22536,0.54731 -0.65999,0.88535 -0.43463,0.33804 -1.06242,0.48292 -0.64389,0.12878 -1.48095,0.12878 h -7.46915 l -0.25756,-1.49705 z m 4.20139,10.86564 q -1.11071,0 -1.93167,-0.32194 -0.83706,-0.32195 -1.38437,-0.85316 -0.54731,-0.53121 -0.82096,-1.22339 -0.27366,-0.69219 -0.27366,-1.41657 0,-1.69021 1.06243,-2.59166 1.04632,-0.90145 3.20336,-0.90145 0.0966,0 0.25755,0 0.14488,0 0.27366,0.0161 v 5.73064 q 1.30388,-0.0966 1.97997,-0.75658 0.67608,-0.65999 0.67608,-2.06045 0,-0.78877 -0.12877,-1.31998 -0.14488,-0.54731 -0.27366,-0.82096 l 1.25559,-0.20927 q 0.14488,0.27366 0.30585,0.96584 0.16097,0.67609 0.16097,1.54534 0,1.09462 -0.32194,1.89948 -0.33805,0.78877 -0.91755,1.30388 -0.5795,0.51512 -1.36827,0.77267 -0.80487,0.24146 -1.75461,0.24146 z m -0.82096,-5.74673 q -1.01413,-0.0161 -1.65802,0.51511 -0.65999,0.51511 -0.65999,1.43266 0,0.51511 0.20927,0.91755 0.19316,0.38633 0.51511,0.65999 0.32194,0.27365 0.74047,0.43462 0.41853,0.14488 0.85316,0.19317 z m 8.00036,10.72078 q 0,0.19316 -0.0483,0.49901 -0.0483,0.30585 -0.12878,0.51512 l -1.2234,-0.19317 q 0.0483,-0.16097 0.0805,-0.37024 0.0322,-0.20926 0.0322,-0.38633 0,-0.77267 -0.48292,-1.09462 -0.46683,-0.33804 -1.38437,-0.33804 h -8.22572 v -1.49705 h 8.20962 q 1.60973,0 2.3824,0.74047 0.78877,0.72438 0.78877,2.12485 z m -12.89394,-2.10875 q 0,0.40243 -0.25755,0.69218 -0.27366,0.27366 -0.72438,0.27366 -0.45073,0 -0.70828,-0.27366 -0.27366,-0.28975 -0.27366,-0.69218 0,-0.40243 0.27366,-0.67609 0.25755,-0.28975 0.70828,-0.28975 0.45072,0 0.72438,0.28975 0.25755,0.27366 0.25755,0.67609 z m 5.69845,2.84919 q 0.99803,0 1.80289,0.28975 0.80487,0.28975 1.38437,0.82096 0.5795,0.51512 0.90145,1.2395 0.30585,0.72437 0.30585,1.57753 0,0.85316 -0.30585,1.57754 -0.32195,0.72438 -0.90145,1.25559 -0.5795,0.51511 -1.38437,0.80486 -0.80486,0.28975 -1.80289,0.28975 -0.98194,0 -1.7868,-0.28975 -0.82097,-0.28975 -1.40047,-0.80486 -0.5795,-0.53121 -0.88535,-1.25559 -0.32195,-0.72438 -0.32195,-1.57754 0,-0.85316 0.32195,-1.57753 0.30585,-0.72438 0.88535,-1.2395 0.5795,-0.53121 1.40047,-0.82096 0.80486,-0.28975 1.7868,-0.28975 z m 0,1.56144 q -1.41657,0 -2.23753,0.64389 -0.83706,0.6278 -0.83706,1.72241 0,1.09462 0.83706,1.73851 0.82096,0.62779 2.23753,0.62779 1.41656,0 2.25362,-0.62779 0.82096,-0.64389 0.82096,-1.73851 0,-1.09461 -0.82096,-1.72241 -0.83706,-0.64389 -2.25362,-0.64389 z m -4.36237,8.95009 q 0,-0.19316 0.0322,-0.43462 0.0161,-0.25756 0.0644,-0.49902 0.0322,-0.24146 0.0805,-0.43463 0.0322,-0.20926 0.0644,-0.30585 l 1.30388,0.25756 q -0.0644,0.17707 -0.14488,0.5956 -0.0966,0.40243 -0.0966,1.04633 0,0.41853 0.0966,0.83706 0.0805,0.40243 0.11268,0.53121 h 7.03452 v 1.49705 h -8.01645 q -0.19317,-0.53122 -0.35414,-1.31998 -0.17707,-0.78877 -0.17707,-1.77071 z m 4.37846,6.76085 q -1.46485,0 -2.25362,0.72438 -0.78877,0.72438 -0.78877,1.93167 0,0.67609 0.0483,1.06243 0.0483,0.37023 0.11268,0.5956 h 5.27991 q 0.22536,-0.27366 0.43463,-0.78877 0.20926,-0.51512 0.20926,-1.12681 0,-0.64389 -0.22536,-1.09462 -0.24146,-0.46682 -0.64389,-0.75657 -0.41853,-0.28975 -0.96584,-0.41853 -0.5634,-0.12878 -1.2073,-0.12878 z m 0,-1.56144 q 0.94974,0 1.75461,0.25756 0.80486,0.24146 1.38437,0.72438 0.5795,0.48292 0.90145,1.1912 0.32194,0.69218 0.32194,1.59363 0,0.72438 -0.19317,1.28778 -0.19316,0.54731 -0.37023,0.82097 h 3.34823 v 1.49704 h -11.09103 q -0.12878,-0.53121 -0.27366,-1.31997 -0.16097,-0.80487 -0.16097,-1.85119 0,-0.96584 0.30585,-1.73851 0.30585,-0.77267 0.86925,-1.31998 0.56341,-0.54731 1.38437,-0.83706 0.80486,-0.30585 1.81899,-0.30585 z m 0,20.55621 q -1.11071,0 -1.93167,-0.32195 -0.83706,-0.32195 -1.38437,-0.85316 -0.54731,-0.53121 -0.82096,-1.22339 -0.27366,-0.69219 -0.27366,-1.41656 0,-1.69022 1.06243,-2.59167 1.04632,-0.90145 3.20336,-0.90145 0.0966,0 0.25755,0 0.14488,0 0.27366,0.0161 v 5.73064 q 1.30388,-0.0966 1.97997,-0.75658 0.67608,-0.65998 0.67608,-2.06045 0,-0.78877 -0.12877,-1.31998 -0.14488,-0.54731 -0.27366,-0.82096 l 1.25559,-0.20927 q 0.14488,0.27366 0.30585,0.96584 0.16097,0.67609 0.16097,1.54534 0,1.09462 -0.32194,1.89948 -0.33805,0.78877 -0.91755,1.30389 -0.5795,0.51511 -1.36827,0.77267 -0.80487,0.24146 -1.75461,0.24146 z m -0.82096,-5.74674 q -1.01413,-0.0161 -1.65802,0.51511 -0.65999,0.51512 -0.65999,1.43266 0,0.51512 0.20927,0.91755 0.19316,0.38633 0.51511,0.65999 0.32194,0.27365 0.74047,0.43463 0.41853,0.14487 0.85316,0.19316 z m -3.5575,8.40279 q 0,-0.19317 0.0322,-0.43463 0.0161,-0.25756 0.0644,-0.49902 0.0322,-0.24146 0.0805,-0.43463 0.0322,-0.20926 0.0644,-0.30584 l 1.30388,0.25755 q -0.0644,0.17707 -0.14488,0.5956 -0.0966,0.40244 -0.0966,1.04633 0,0.41853 0.0966,0.83706 0.0805,0.40243 0.11268,0.53121 h 7.03452 v 1.49705 h -8.01645 q -0.19317,-0.53121 -0.35414,-1.31998 -0.17707,-0.78877 -0.17707,-1.7707 z m 0.17707,8.1613 v -3.17117 h 1.25559 v 3.17117 h 3.86335 q 0.62779,0 1.04632,-0.0966 0.40244,-0.0966 0.6439,-0.28975 0.22536,-0.19317 0.32194,-0.48292 0.0966,-0.28975 0.0966,-0.67609 0,-0.67609 -0.14488,-1.07852 -0.16097,-0.41853 -0.22536,-0.5795 l 1.23949,-0.28975 q 0.11268,0.22536 0.27365,0.78877 0.17707,0.5634 0.17707,1.28778 0,0.85316 -0.20926,1.41656 -0.22536,0.54731 -0.65999,0.88535 -0.43463,0.33805 -1.06242,0.48292 -0.64389,0.12878 -1.48095,0.12878 h -7.46915 l -0.25756,-1.49705 z m 4.1853,3.50919 q 0.99803,0 1.80289,0.28975 0.80487,0.28975 1.38437,0.82096 0.5795,0.51511 0.90145,1.23949 0.30585,0.72438 0.30585,1.57754 0,0.853153 -0.30585,1.577532 -0.32195,0.724378 -0.90145,1.255589 -0.5795,0.515114 -1.38437,0.804865 -0.80486,0.289752 -1.80289,0.289752 -0.98194,0 -1.7868,-0.289752 -0.82097,-0.289751 -1.40047,-0.804865 -0.5795,-0.531211 -0.88535,-1.255589 -0.32195,-0.724379 -0.32195,-1.577532 0,-0.85316 0.32195,-1.57754 0.30585,-0.72438 0.88535,-1.23949 0.5795,-0.53121 1.40047,-0.82096 0.80486,-0.28975 1.7868,-0.28975 z m 0,1.56143 q -1.41657,0 -2.23753,0.6439 -0.83706,0.62779 -0.83706,1.72241 0,1.094613 0.83706,1.738505 0.82096,0.627795 2.23753,0.627795 1.41656,0 2.25362,-0.627795 0.82096,-0.643892 0.82096,-1.738505 0,-1.09462 -0.82096,-1.72241 -0.83706,-0.6439 -2.25362,-0.6439 z m -4.1853,7.147157 q 2.3502,0.627795 4.50724,1.480952 2.15704,0.837059 3.86335,1.625827 v 1.352173 q -1.70631,0.788768 -3.86335,1.641925 -2.15704,0.837059 -4.50724,1.464854 v -1.60973 q 0.78877,-0.193168 1.69022,-0.450724 0.88535,-0.273654 1.7707,-0.563406 0.86925,-0.305849 1.69021,-0.611697 0.82097,-0.305849 1.46486,-0.579503 -0.64389,-0.273654 -1.46486,-0.579503 -0.82096,-0.305849 -1.69021,-0.5956 -0.88535,-0.305849 -1.7707,-0.563405 -0.90145,-0.273654 -1.69022,-0.466822 z m -57.70934,-30.409317 h 13.58329 v -13.58329 h 4.14571 v 13.58329 h 13.5833 v 4.09694 h -13.5833 v 13.58329 h -4.14571 v -13.58329 h -13.58329 z" />
    </g>
  </g>
</svg>
