<?xml version="1.0" encoding="UTF-8" standalone="no"?>
<!-- Created with Inkscape (http://www.inkscape.org/) -->

<svg
   width="155.96564mm"
   height="155.7014mm"
   viewBox="0 0 155.96564 155.7014"
   version="1.1"
   id="svg88146"
   inkscape:version="1.1.2 (0a00cf5339, 2022-02-04)"
   sodipodi:docname="ZZINblur.svg"
   xmlns:inkscape="http://www.inkscape.org/namespaces/inkscape"
   xmlns:sodipodi="http://sodipodi.sourceforge.net/DTD/sodipodi-0.dtd"
   xmlns="http://www.w3.org/2000/svg"
   xmlns:svg="http://www.w3.org/2000/svg">
  <sodipodi:namedview
     id="namedview88148"
     pagecolor="#ffffff"
     bordercolor="#666666"
     borderopacity="1.0"
     inkscape:pageshadow="2"
     inkscape:pageopacity="0.0"
     inkscape:pagecheckerboard="0"
     inkscape:document-units="mm"
     showgrid="false"
     fit-margin-top="0"
     fit-margin-left="0"
     fit-margin-right="0"
     fit-margin-bottom="0"
     inkscape:zoom="0.64052329"
     inkscape:cx="515.98436"
     inkscape:cy="412.94361"
     inkscape:window-width="1920"
     inkscape:window-height="1016"
     inkscape:window-x="0"
     inkscape:window-y="0"
     inkscape:window-maximized="1"
     inkscape:current-layer="layer1" />
  <defs
     id="defs88143">
    <filter
       inkscape:collect="always"
       style="color-interpolation-filters:sRGB"
       id="filter42973"
       x="-0.095358418"
       y="-0.17505523"
       width="1.1907168"
       height="1.3501105">
      <feGaussianBlur
         inkscape:collect="always"
         stdDeviation="4.880982"
         id="feGaussianBlur42975" />
    </filter>
    <filter
       inkscape:collect="always"
       style="color-interpolation-filters:sRGB"
       id="filter42969"
       x="-0.0884912"
       y="-0.20404149"
       width="1.1769824"
       height="1.408083">
      <feGaussianBlur
         inkscape:collect="always"
         stdDeviation="4.880982"
         id="feGaussianBlur42971" />
    </filter>
  </defs>
  <g
     inkscape:label="Layer 1"
     inkscape:groupmode="layer"
     id="layer1"
     transform="translate(31.30551,-39.049161)">
    <g
       aria-label="ZZ"
       id="text31322"
       style="font-size:88.6332px;line-height:1.25;display:inline;fill:#0000ff;stroke-width:2.21582;filter:url(#filter42973)">
      <path
         d="m 16.925726,60.690436 q 0,-1.418131 1.329498,-1.418131 1.240865,0 3.190795,0.974965 1.949931,0.974965 4.254394,0.974965 2.038563,0 3.811227,-0.709065 1.861298,-0.709066 3.279429,-1.506765 1.418131,-0.886332 2.393096,-1.595398 1.063599,-0.709065 1.418132,-0.709065 0.620432,-0.08863 0.620432,0.531799 0,0.2659 -0.974965,1.240865 -0.886332,0.886332 -2.747629,2.304463 -1.772665,1.329498 -4.431661,3.013529 -2.658996,1.684031 -6.292957,3.368062 -2.747629,1.329498 -6.38159,2.658996 -3.545328,1.329498 -6.7361237,2.924895 -3.1907953,1.506765 -5.4066253,3.279429 -2.21583,1.684031 -2.21583,3.811228 0,2.21583 1.4181312,3.190795 1.5067644,0.974965 3.1907952,1.595397 1.7726641,0.5318 3.1907953,1.240865 1.4181313,0.620433 1.4181313,2.304463 0,1.684031 -1.6840309,2.924896 -1.5953976,1.152232 -4.1657605,2.304463 -2.5703628,1.063599 -5.84979129,2.304464 -3.27942851,1.240864 -6.55885691,2.924895 -3.4566944,1.772664 -5.8497914,4.254394 -2.393096,2.48173 -3.899861,5.05209 -1.506764,2.57037 -2.21583,4.96346 -0.620432,2.30446 -0.620432,3.89986 0,0.88633 0.886332,0.88633 0.709065,0 1.772664,-1.59539 1.063598,-1.5954 2.570363,-3.4567 1.506764,-1.94993 3.545328,-3.54533 2.1271966,-1.59539 4.8748258,-1.59539 2.3930965,0 5.31799211,1.59539 2.92489569,1.5954 5.76115809,3.54533 2.9248957,1.8613 5.495259,3.4567 2.570362,1.59539 4.254393,1.59539 1.063599,0 1.772664,-0.53179 0.797699,-0.62044 0.797699,-1.8613 0,-0.88633 -0.531799,-1.50677 -0.531799,-0.62043 -1.240865,-1.15223 -0.620432,-0.62043 -1.240865,-1.24086 -0.531799,-0.70907 -0.531799,-1.5954 0,-0.35453 0.354533,-0.70907 0.354533,-0.35453 0.886332,-0.35453 1.506764,0 3.102162,1.41813 1.684031,1.41813 3.456695,3.10216 1.772664,1.5954 3.811227,3.01353 2.127197,1.41813 4.520294,1.41813 0.531799,0 1.329498,-0.2659 0.886332,-0.26589 1.772664,-0.79769 0.886332,-0.62044 1.506764,-1.5954 0.620433,-0.97497 0.620433,-2.3931 0,-1.50676 -0.620433,-2.83626 -0.531799,-1.3295 -1.506764,-2.3931 -0.974966,-1.0636 -2.21583,-1.94993 -1.240865,-0.88633 -2.48173,-1.59539 -3.102162,-1.5954 -6.91339,-2.57037 2.304464,0.97497 4.165761,2.21583 1.506764,0.97497 2.747629,2.3931 1.329498,1.3295 1.329498,3.01353 0,1.24086 -0.886332,2.03856 -0.886332,0.70907 -2.127197,0.70907 -1.772664,0 -3.545328,-0.88634 -1.684031,-0.97496 -3.368062,-2.03856 -1.595397,-1.0636 -3.279428,-1.94993 -1.595398,-0.97496 -3.190795,-0.97496 -0.797699,0 -1.329498,0.53179 -0.531799,0.5318 -0.531799,1.24087 0,0.7977 0.265899,1.5954 0.354533,0.70906 0.354533,1.41813 0,1.94993 -1.861297,1.94993 -1.1522319,0 -3.1021624,-0.97497 -1.8612972,-1.06359 -4.0771272,-2.30446 -2.12719687,-1.3295 -4.5202933,-2.30446 -2.3044633,-1.0636 -4.3430269,-1.0636 -2.3044632,0 -3.9884941,0.97496 -1.6840311,0.97497 -2.9248961,2.1272 -1.240864,1.15223 -2.127196,2.1272 -0.797699,0.97496 -1.418132,0.97496 -0.620432,0 -0.443166,-0.7977 0.5318,-2.21583 1.861298,-4.16576 1.418131,-2.03856 3.899861,-3.81122 2.5703624,-1.77267 6.4702232,-3.27943 3.89986091,-1.506767 9.5723858,-2.747632 2.0385636,-0.443166 4.6975597,-1.329498 2.6589963,-0.974965 5.0520923,-2.304463 2.393097,-1.329498 3.988494,-3.013529 1.684031,-1.684031 1.684031,-3.722594 0,-2.393097 -1.506764,-3.279429 -1.506765,-0.974965 -3.279429,-1.506764 -1.772664,-0.531799 -3.279428,-1.240865 -1.506765,-0.797699 -1.506765,-2.747629 0,-1.063599 1.418132,-2.393097 1.418131,-1.329498 3.811227,-2.836262 2.393097,-1.506765 5.406626,-3.102162 3.013528,-1.684031 6.204324,-3.279429 3.89986,-2.038563 6.558857,-4.343027 2.747629,-2.304463 4.43166,-4.43166 1.772664,-2.21583 2.570362,-3.988494 0.797699,-1.772664 0.797699,-2.658996 0,-0.354533 -0.354533,-0.354533 -0.354532,0 -1.94993,1.329498 -1.506764,1.329498 -3.811228,2.924896 -2.304463,1.595398 -5.052092,2.924896 -2.658996,1.329498 -5.317992,1.329498 -2.127197,0 -3.988494,-0.797699 -1.861298,-0.797699 -3.456695,-1.684031 -1.595398,-0.974965 -2.924896,-1.684031 -1.240865,-0.797699 -2.304463,-0.797699 -0.797699,0 -1.329498,0.5318 -0.531799,0.443166 -0.531799,1.418131 0,0.531799 0.443166,1.329498 0.531799,0.797699 1.152231,1.684031 0.620433,0.886332 1.063599,1.684031 0.531799,0.797698 0.531799,1.418131 0,1.329498 -1.506764,1.329498 -0.974966,0 -3.4566953,-1.772664 Q 6.9988072,60.158637 3.9852784,58.03144 0.97174953,55.904243 -2.2190457,54.131579 -5.409841,52.358915 -8.068837,52.358915 q -2.836262,0 -4.520293,1.684031 -1.595398,1.684031 -1.595398,4.608926 0,2.127197 1.152232,4.165761 1.152231,2.038563 2.570363,3.633961 1.5953972,1.861297 3.722594,3.545328 -0.7090656,-0.797699 -1.2408648,-1.772664 -0.443166,-0.886332 -0.886332,-2.038564 -0.3545328,-1.240864 -0.3545328,-2.747629 0,-1.94993 1.2408648,-3.279428 1.2408648,-1.329498 3.2794284,-1.329498 2.3930965,0 4.96345932,1.240865 2.57036288,1.152231 5.05209248,2.658996 2.4817297,1.418131 4.6089265,2.658996 2.2158301,1.240864 3.8998611,1.240864 1.506764,0 2.481729,-0.886332 0.974966,-0.886332 0.974966,-2.21583 0,-1.063598 -0.177267,-1.595397 -0.08863,-0.531799 -0.177266,-1.240865 z"
         style="font-family:saint;-inkscape-font-specification:saint"
         id="path88287" />
      <path
         d="m 77.993929,60.690436 q 0,-1.418131 1.329498,-1.418131 1.240865,0 3.190795,0.974965 1.949931,0.974965 4.254394,0.974965 2.038563,0 3.811227,-0.709065 1.861298,-0.709066 3.279429,-1.506765 1.418131,-0.886332 2.393096,-1.595398 1.063599,-0.709065 1.418132,-0.709065 0.620432,-0.08863 0.620432,0.531799 0,0.2659 -0.974965,1.240865 -0.886332,0.886332 -2.74763,2.304463 -1.772664,1.329498 -4.43166,3.013529 -2.658996,1.684031 -6.292957,3.368062 -2.747629,1.329498 -6.38159,2.658996 -3.545328,1.329498 -6.736124,2.924895 -3.190795,1.506765 -5.406625,3.279429 -2.21583,1.684031 -2.21583,3.811228 0,2.21583 1.418131,3.190795 1.506765,0.974965 3.190795,1.595397 1.772664,0.5318 3.190796,1.240865 1.418131,0.620433 1.418131,2.304463 0,1.684031 -1.684031,2.924896 -1.595398,1.152232 -4.16576,2.304463 -2.570363,1.063599 -5.849792,2.304464 -3.279428,1.240864 -6.558857,2.924895 -3.456694,1.772664 -5.849791,4.254394 -2.393096,2.48173 -3.899861,5.05209 -1.506764,2.57037 -2.21583,4.96346 -0.620432,2.30446 -0.620432,3.89986 0,0.88633 0.886332,0.88633 0.709065,0 1.772664,-1.59539 1.063598,-1.5954 2.570363,-3.4567 1.506764,-1.94993 3.545328,-3.54533 2.127197,-1.59539 4.874826,-1.59539 2.393096,0 5.317992,1.59539 2.924896,1.5954 5.761158,3.54533 2.924896,1.8613 5.495258,3.4567 2.570363,1.59539 4.254394,1.59539 1.063599,0 1.772664,-0.53179 0.797699,-0.62044 0.797699,-1.8613 0,-0.88633 -0.531799,-1.50677 -0.531799,-0.62043 -1.240865,-1.15223 -0.620432,-0.62043 -1.240865,-1.24086 -0.531799,-0.70907 -0.531799,-1.5954 0,-0.35453 0.354533,-0.70907 0.354533,-0.35453 0.886332,-0.35453 1.506764,0 3.102162,1.41813 1.684031,1.41813 3.456695,3.10216 1.772664,1.5954 3.811227,3.01353 2.127197,1.41813 4.520294,1.41813 0.531799,0 1.329498,-0.2659 0.886332,-0.26589 1.772664,-0.79769 0.886332,-0.62044 1.506764,-1.5954 0.620433,-0.97497 0.620433,-2.3931 0,-1.50676 -0.620433,-2.83626 -0.531799,-1.3295 -1.506764,-2.3931 -0.974966,-1.0636 -2.21583,-1.94993 -1.240865,-0.88633 -2.48173,-1.59539 -3.102162,-1.5954 -6.91339,-2.57037 2.304464,0.97497 4.165761,2.21583 1.506764,0.97497 2.747629,2.3931 1.329498,1.3295 1.329498,3.01353 0,1.24086 -0.886332,2.03856 -0.886332,0.70907 -2.127197,0.70907 -1.772664,0 -3.545328,-0.88634 -1.684031,-0.97496 -3.368062,-2.03856 -1.595397,-1.0636 -3.279428,-1.94993 -1.595398,-0.97496 -3.190795,-0.97496 -0.797699,0 -1.329498,0.53179 -0.5318,0.5318 -0.5318,1.24087 0,0.7977 0.2659,1.5954 0.354533,0.70906 0.354533,1.41813 0,1.94993 -1.861297,1.94993 -1.152232,0 -3.102162,-0.97497 -1.861298,-1.06359 -4.077128,-2.30446 -2.127196,-1.3295 -4.520293,-2.30446 -2.304463,-1.0636 -4.343027,-1.0636 -2.304463,0 -3.988494,0.97496 -1.684031,0.97497 -2.924896,2.1272 -1.240864,1.15223 -2.127196,2.1272 -0.797699,0.97496 -1.418132,0.97496 -0.620432,0 -0.443166,-0.7977 0.5318,-2.21583 1.861298,-4.16576 1.418131,-2.03856 3.89986,-3.81122 2.570363,-1.77267 6.470224,-3.27943 3.899861,-1.506767 9.572386,-2.747632 2.038564,-0.443166 4.69756,-1.329498 2.658996,-0.974965 5.052092,-2.304463 2.393097,-1.329498 3.988494,-3.013529 1.684031,-1.684031 1.684031,-3.722594 0,-2.393097 -1.506764,-3.279429 -1.506765,-0.974965 -3.279429,-1.506764 -1.772664,-0.531799 -3.279428,-1.240865 -1.506765,-0.797699 -1.506765,-2.747629 0,-1.063599 1.418132,-2.393097 1.418131,-1.329498 3.811227,-2.836262 2.393097,-1.506765 5.406625,-3.102162 3.013529,-1.684031 6.204325,-3.279429 3.89986,-2.038563 6.558857,-4.343027 2.747629,-2.304463 4.43166,-4.43166 1.77266,-2.21583 2.57036,-3.988494 0.7977,-1.772664 0.7977,-2.658996 0,-0.354533 -0.35453,-0.354533 -0.35453,0 -1.94993,1.329498 -1.506766,1.329498 -3.81123,2.924896 -2.304463,1.595398 -5.052092,2.924896 -2.658996,1.329498 -5.317992,1.329498 -2.127197,0 -3.988494,-0.797699 -1.861298,-0.797699 -3.456695,-1.684031 -1.595398,-0.974965 -2.924896,-1.684031 -1.240865,-0.797699 -2.304463,-0.797699 -0.797699,0 -1.329498,0.5318 -0.531799,0.443166 -0.531799,1.418131 0,0.531799 0.443166,1.329498 0.531799,0.797699 1.152231,1.684031 0.620433,0.886332 1.063599,1.684031 0.531799,0.797698 0.531799,1.418131 0,1.329498 -1.506764,1.329498 -0.974966,0 -3.456695,-1.772664 -2.393097,-1.772664 -5.406626,-3.899861 -3.013528,-2.127197 -6.204324,-3.899861 -3.190795,-1.772664 -5.849791,-1.772664 -2.836263,0 -4.520293,1.684031 -1.595398,1.684031 -1.595398,4.608926 0,2.127197 1.152232,4.165761 1.152231,2.038563 2.570363,3.633961 1.595397,1.861297 3.722594,3.545328 -0.709066,-0.797699 -1.240865,-1.772664 -0.443166,-0.886332 -0.886332,-2.038564 -0.354533,-1.240864 -0.354533,-2.747629 0,-1.94993 1.240865,-3.279428 1.240865,-1.329498 3.279429,-1.329498 2.393096,0 4.963459,1.240865 2.570363,1.152231 5.052092,2.658996 2.48173,1.418131 4.608927,2.658996 2.21583,1.240864 3.899861,1.240864 1.506764,0 2.481729,-0.886332 0.974966,-0.886332 0.974966,-2.21583 0,-1.063598 -0.177267,-1.595397 -0.08863,-0.531799 -0.177266,-1.240865 z"
         style="font-family:saint;-inkscape-font-specification:saint"
         id="path88289" />
    </g>
    <g
       aria-label="IN"
       id="text37526"
       style="font-size:79.0794px;line-height:1.25;display:inline;fill:#0000ff;stroke-width:1.97698;filter:url(#filter42969)">
      <path
         d="M -11.208748,180.42659 -1.1656641,167.93204 -19.433005,183.03621 H 3.2627822 q 1.8188262,0 3.0050172,-0.55356 1.186191,-0.63263 1.976985,-1.34435 0.8698733,-0.79079 1.3443497,-1.81882 0.4744769,1.02803 1.3443499,1.81882 0.632635,0.71172 1.739747,1.34435 1.186191,0.55356 2.846858,0.55356 H 38.690353 L 20.423012,167.93204 30.466096,180.42659 H 16.548121 q -2.056064,0 -3.558573,-1.50251 -1.502508,-1.50251 -1.502508,-3.55857 v -41.99116 q 0,-2.13515 1.502508,-3.63766 1.502509,-1.5025 3.558573,-1.5025 H 30.466096 L 20.423012,140.80781 38.690353,125.62457 H 15.994565 q -1.818826,0 -3.005017,0.63263 -1.186191,0.55356 -1.976985,1.18619 -0.869873,0.86987 -1.4234289,1.89791 -0.4744764,-1.02804 -1.2652703,-1.89791 -0.6326352,-0.63263 -1.8188262,-1.18619 -1.1071116,-0.63263 -2.767779,-0.63263 H -19.433005 L -1.1656641,140.80781 -11.208748,128.23419 H 2.7092264 q 2.0560644,0 3.558573,1.5025 1.5025086,1.50251 1.5025086,3.63766 v 41.99116 q 0,2.05606 -1.5025086,3.55857 -1.5025086,1.50251 -3.558573,1.50251 z"
         style="font-family:saint;-inkscape-font-specification:saint"
         id="path88310" />
      <path
         d="m 98.553321,130.76473 q 0,-2.37239 1.107111,-3.24226 1.186188,-0.86987 3.479498,-0.86987 h 1.5025 q 0.31632,0 0.31632,-0.47448 v -0.23724 q 0,-0.31631 -0.31632,-0.31631 H 89.933666 q -0.474476,0 -0.474476,0.31631 v 0.23724 q 0,0.47448 0.474476,0.47448 h 1.423429 q 2.530541,0 3.558573,0.86987 1.028032,0.86987 1.028032,3.24226 v 42.94011 L 62.888512,125.62457 H 41.932471 q -0.474477,0 -0.474477,0.47447 0,0.0791 0.07908,0.15816 0.07908,0.0791 0.07908,0.15816 l 11.387434,20.3234 q 0.07908,0.31632 0.395397,0.15816 0.237238,-0.23723 0.158158,-0.47447 -0.474476,-1.02803 -1.739746,-3.32134 -1.265271,-2.2933 -2.530541,-4.90292 -1.26527,-2.60962 -2.135144,-5.14016 -0.869873,-2.60962 -0.632635,-4.11213 0.237238,-1.34435 1.107112,-1.81883 0.948952,-0.47447 2.056064,-0.47447 h 2.372382 q 2.056064,0 2.846858,0.94895 0.869874,0.86987 0.869874,3.16318 v 46.34052 q 0,2.76778 -1.107112,3.87489 -1.107112,1.10712 -3.400414,1.10712 h -1.502509 q -0.474476,0 -0.474476,0.39539 v 0.23724 q 0,0.31632 0.474476,0.31632 h 14.787848 q 0.237238,0 0.237238,-0.31632 v -0.23724 q 0,-0.39539 -0.237238,-0.39539 H 63.04667 q -2.53054,0 -3.558573,-1.02804 -1.028032,-1.02803 -1.028032,-3.95397 v -47.36856 l 35.981127,53.29952 h 18.030098 q 0.47448,0 0.47448,-0.31632 0,-0.15816 -0.0791,-0.23724 -0.0791,-0.15816 -0.0791,-0.23723 L 101.3211,161.92201 q -0.0791,0 -0.0791,0 -0.0791,-0.15816 -0.23724,0 -0.15816,0.0791 -0.15816,0.31632 0.55356,1.02803 1.81883,3.47949 1.26527,2.37238 2.53054,5.14016 1.26527,2.6887 2.05606,5.21924 0.86988,2.53054 0.63264,3.71673 -0.47448,2.29331 -3.16318,2.29331 h -1.58158 q -2.29331,0 -3.479498,-0.7908 -1.107111,-0.86987 -1.107111,-3.40041 z"
         style="font-family:saint;-inkscape-font-specification:saint"
         id="path88312" />
    </g>
    <g
       id="g69691"
       transform="matrix(1.2242488,0,0,1.2242488,-1254.9063,-241.53558)"
       style="display:inline">
      <path
         style="display:inline;fill:#0000ff;fill-opacity:1;stroke:#0000ff;stroke-width:1.376;stroke-linecap:butt;stroke-linejoin:miter;stroke-miterlimit:4;stroke-dasharray:none;stroke-opacity:1"
         d="m 1079.7813,278.2762 v -8.256 h -42.8993 l 7.1499,4.128 v 8.25604 l 21.4496,12.38397 -21.4496,12.38397 v 8.256 l -7.1499,4.12798 h 42.8993 v -8.256 l -7.1499,4.12802 h -14.2997 l -7.1499,-4.12802 28.5995,-16.51195 -28.5995,-16.51201 7.1499,-4.128 h 14.2997 z"
         id="path183004"
         inkscape:export-xdpi="373.05798"
         inkscape:export-ydpi="373.05798" />
      <path
         style="display:inline;fill:#0000ff;fill-opacity:0.54;stroke:#0000ff;stroke-width:1.376;stroke-linecap:butt;stroke-linejoin:miter;stroke-miterlimit:4;stroke-dasharray:none;stroke-opacity:5.98384e-08"
         d="m 1079.7813,278.2762 v -8.256 h -42.8993 l 7.1499,4.128 v 8.25604 l 21.4496,12.38397 -21.4496,12.38397 v 8.256 l -7.1499,4.12798 h 42.8993 v -8.256 l -7.1499,4.12802 h -14.2997 l -7.1499,-4.12802 28.5995,-16.51195 -28.5995,-16.51201 7.1499,-4.128 h 14.2997 z"
         id="path183042"
         inkscape:export-xdpi="373.05798"
         inkscape:export-ydpi="373.05798" />
    </g>
  </g>
</svg>
