<?xml version="1.0" encoding="UTF-8" standalone="no"?>
<!-- Created with Inkscape (http://www.inkscape.org/) -->

<svg
   width="10mm"
   height="9.9999905mm"
   viewBox="0 0 9.9999999 9.9999904"
   version="1.1"
   id="svg41274"
   inkscape:version="1.1.2 (0a00cf5339, 2022-02-04)"
   sodipodi:docname="IconCarre.svg"
   inkscape:export-filename="/home/meziane/Documents/ZZIN/Activites/LogoPhysMOD/Livraison/SVG/IconCarre.png"
   inkscape:export-xdpi="573.164"
   inkscape:export-ydpi="573.164"
   xmlns:inkscape="http://www.inkscape.org/namespaces/inkscape"
   xmlns:sodipodi="http://sodipodi.sourceforge.net/DTD/sodipodi-0.dtd"
   xmlns="http://www.w3.org/2000/svg"
   xmlns:svg="http://www.w3.org/2000/svg">
  <sodipodi:namedview
     id="namedview41276"
     pagecolor="#ffffff"
     bordercolor="#666666"
     borderopacity="1.0"
     inkscape:pageshadow="2"
     inkscape:pageopacity="0.0"
     inkscape:pagecheckerboard="0"
     inkscape:document-units="mm"
     showgrid="false"
     fit-margin-top="0"
     fit-margin-left="0"
     fit-margin-right="0"
     fit-margin-bottom="0"
     inkscape:zoom="14.493388"
     inkscape:cx="19.698638"
     inkscape:cy="20.80259"
     inkscape:window-width="1920"
     inkscape:window-height="1016"
     inkscape:window-x="0"
     inkscape:window-y="0"
     inkscape:window-maximized="1"
     inkscape:current-layer="layer1" />
  <defs
     id="defs41271" />
  <g
     inkscape:label="Layer 1"
     inkscape:groupmode="layer"
     id="layer1"
     transform="translate(-87.307427,-144.31162)">
    <path
       id="path822"
       style="fill:#ffffff;fill-opacity:1;stroke:none;stroke-width:0.199925;stroke-linecap:round;stroke-linejoin:round;stroke-opacity:0.423453"
       d="M 6.5664062,0 C 3.1524459,0.46567559 0.46569071,3.1525102 0,6.5664062 V 31.228516 c 0.01743924,0.127843 0.03891142,0.255135 0.0625,0.380859 0.0078409,0.04181 0.01688183,0.08344 0.02539062,0.125 0.02322619,0.113416 0.0480481,0.226386 0.07617188,0.337891 0.001967,0.0078 0.003869,0.01564 0.005859,0.02344 0.0324644,0.127026 0.0668064,0.252588 0.10546874,0.376953 7.9458e-4,0.0026 0.001156,0.0053 0.001953,0.0078 0.0104344,0.03346 0.0223284,0.06635 0.0332031,0.09961 0.032924,0.100641 0.068571,0.20009 0.10546874,0.298828 0.008811,0.02359 0.0183094,0.04683 0.0273438,0.07031 0.0382718,0.0994 0.0788759,0.197588 0.12109374,0.294922 0.0124257,0.02866 0.0243471,0.05746 0.0371094,0.08594 0.002857,0.0064 0.004939,0.01317 0.007813,0.01953 0.0496707,0.109985 0.1016407,0.219049 0.15625,0.326172 0.009665,0.01897 0.0194802,0.03777 0.0292969,0.05664 0.0498765,0.09585 0.10251145,0.189793 0.15625,0.283203 0.0149933,0.02607 0.0296329,0.05225 0.0449219,0.07813 0.0494226,0.08362 0.0998839,0.166522 0.15234375,0.248047 0.017073,0.02654 0.033391,0.05376 0.050781,0.08008 0.058896,0.08909 0.1211362,0.175299 0.1835937,0.261719 0.044725,0.06193 0.09021,0.123082 0.1367187,0.183594 0.036407,0.04734 0.07385,0.09418 0.1113282,0.140624 0.038091,0.04723 0.076055,0.09433 0.1152344,0.140626 0.071457,0.08441 0.1437633,0.166834 0.21875,0.248046 0.051579,0.05589 0.1049973,0.10973 0.1582031,0.164063 0.026744,0.0273 0.052931,0.05514 0.080078,0.08203 0.044173,0.04378 0.089539,0.0862 0.1347656,0.128906 0.065508,0.06183 0.1315577,0.122131 0.1992188,0.181641 0.021484,0.01891 0.042756,0.03797 0.064453,0.05664 0.087692,0.0754 0.1764907,0.151218 0.2675781,0.222656 0.050535,0.03965 0.1027467,0.07684 0.1542969,0.115234 0.046675,0.03476 0.093136,0.0698 0.140625,0.103516 0.056569,0.04016 0.1141756,0.07853 0.171875,0.117187 0.036334,0.02434 0.072603,0.04854 0.109375,0.07227 0.052218,0.0337 0.1031629,0.0691 0.15625,0.101563 7.417e-4,-5.18e-4 0.00121,-0.0014 0.00195,-0.002 0.8841376,0.540449 1.8877849,0.90804 2.9628906,1.054688 h 22.4863278 2.175782 c 0.106686,-0.01455 0.21314,-0.02998 0.318359,-0.04883 3.261797,-0.584156 5.796905,-3.210367 6.248047,-6.517578 V 6.5664062 c -0.01926,-0.1411858 -0.04356,-0.2813309 -0.07031,-0.4199218 -9.88e-4,-0.00512 -9.54e-4,-0.010507 -0.002,-0.015625 -0.0019,-0.00981 -0.0039,-0.019497 -0.0059,-0.029297 -0.02425,-0.1217724 -0.05215,-0.2417389 -0.08203,-0.3613281 -0.0029,-0.011713 -0.0048,-0.023465 -0.0078,-0.035156 -0.0013,-0.00523 -0.0026,-0.010401 -0.0039,-0.015625 -0.0317,-0.1232545 -0.06598,-0.2464429 -0.103516,-0.3671875 -7.99e-4,-0.00257 -0.0012,-0.00524 -0.002,-0.00781 -0.01623,-0.052042 -0.03544,-0.102743 -0.05273,-0.1542969 -0.01998,-0.059521 -0.03917,-0.1188833 -0.06055,-0.1777343 -0.02381,-0.065588 -0.0487,-0.1305809 -0.07422,-0.1953125 -0.03969,-0.1006121 -0.08125,-0.2003711 -0.125,-0.2988282 -0.0484,-0.1089331 -0.09911,-0.2161019 -0.152344,-0.3222656 -0.0049,-0.00986 -0.01064,-0.019457 -0.01563,-0.029297 -0.01726,-0.034094 -0.03498,-0.067766 -0.05273,-0.1015626 -0.04524,-0.086047 -0.09226,-0.1717958 -0.140625,-0.2558593 -0.0089,-0.0154 -0.01643,-0.031543 -0.02539,-0.046875 -0.0062,-0.010614 -0.01328,-0.020669 -0.01953,-0.03125 -0.04942,-0.083617 -0.09988,-0.166522 -0.152344,-0.2480469 -0.01709,-0.026567 -0.03337,-0.053739 -0.05078,-0.080078 -0.0023,-0.00348 -0.0055,-0.00629 -0.0078,-0.00977 -0.01456,-0.021954 -0.03014,-0.04266 -0.04492,-0.064453 -0.05588,-0.082382 -0.110964,-0.1641033 -0.169922,-0.2441406 -0.0063,-0.00857 -0.01318,-0.016844 -0.01953,-0.025391 -0.01132,-0.015248 -0.02372,-0.029762 -0.03516,-0.044922 -0.05321,-0.070508 -0.108507,-0.1404104 -0.164062,-0.2089844 -0.0338,-0.041733 -0.06691,-0.084001 -0.101563,-0.125 -0.0066,-0.00779 -0.01292,-0.015678 -0.01953,-0.023437 -0.07083,-0.083122 -0.142536,-0.164148 -0.216797,-0.2441406 -0.06468,-0.069681 -0.132015,-0.1378498 -0.199218,-0.2050781 -0.0114,-0.011398 -0.02369,-0.021877 -0.03516,-0.033203 -0.04393,-0.043397 -0.08785,-0.086575 -0.132812,-0.1289062 -0.04574,-0.043042 -0.09189,-0.085034 -0.138672,-0.1269531 -0.0461,-0.04132 -0.09157,-0.082839 -0.138672,-0.1230469 -0.0014,-0.00119 -0.0025,-0.00272 -0.0039,-0.00391 -0.07825,-0.066679 -0.159302,-0.1317729 -0.240235,-0.1953126 -0.0764,-0.059997 -0.153712,-0.1186615 -0.232422,-0.1757812 -0.0038,-0.00276 -0.0079,-0.00506 -0.01172,-0.00781 -0.0019,-0.00138 -0.004,-0.00253 -0.0059,-0.00391 -0.07356,-0.053077 -0.147152,-0.1057464 -0.222656,-0.15625 -0.0078,-0.00522 -0.01561,-0.010434 -0.02344,-0.015625 -0.02706,-0.01795 -0.05473,-0.035119 -0.08203,-0.052734 -0.05222,-0.033703 -0.103163,-0.069101 -0.15625,-0.1015625 -7.41e-4,5.173e-4 -0.0012,0.00144 -0.002,0.00195 C 33.307269,0.51423906 32.303621,0.14664802 31.228516,0 H 8.7421875 Z"
       transform="matrix(0.26458333,0,0,0.26458333,87.307427,144.31162)"
       sodipodi:nodetypes="cccscscsscscsssscscsccccccccccccssssccccccccsscsscsccccssccsscsscsssccsscscccsccsscsscccccc" />
    <path
       id="path41232"
       style="fill:#13678b;fill-opacity:1;stroke:none;stroke-width:0.0528969;stroke-linecap:round;stroke-linejoin:round;stroke-opacity:0.423453"
       d="m 89.044636,144.31162 c -0.903277,0.12321 -1.613994,0.83393 -1.737209,1.73719 v 6.52561 c 0.123215,0.90326 0.833932,1.61398 1.737209,1.73719 h 6.525582 c 0.903277,-0.12321 1.613995,-0.83393 1.737209,-1.73719 v -6.52561 c -0.0844,-0.61874 -0.444218,-1.14728 -0.953132,-1.45847 -0.252714,0.17628 -0.451929,0.42894 -0.56342,0.71629 -0.156805,0.40414 -0.138794,0.85609 -0.05836,1.28218 0.07991,0.42606 0.218914,0.83926 0.299349,1.26526 0.138689,0.73497 0.09829,1.50494 -0.130081,2.21716 -0.228421,0.71222 -0.645809,1.36463 -1.20606,1.86014 -0.560302,0.49552 -1.262779,0.83115 -2.002492,0.94168 -0.739711,0.11054 -1.513911,-0.006 -2.181796,-0.34309 -0.760891,-0.38364 -1.375381,-1.05528 -1.674677,-1.85313 -0.299244,-0.79782 -0.276322,-1.71456 0.07801,-2.48958 0.219336,-0.47995 0.563789,-0.90569 1.00283,-1.19842 0.439096,-0.29272 0.973466,-0.44784 1.499865,-0.40972 0.408197,0.0295 0.81307,0.17824 1.117753,0.4515 0.30463,0.27326 0.500147,0.67578 0.487684,1.08485 -0.0078,0.20452 -0.06385,0.40799 -0.169692,0.58302 -0.105996,0.17504 -0.260741,0.32087 -0.444164,0.41157 -0.183424,0.0907 -0.395102,0.12505 -0.597063,0.0923 -0.202013,-0.0327 -0.393093,-0.13306 -0.530726,-0.2845 -0.145345,-0.1599 -0.22615,-0.36637 -0.318416,-0.56177 -0.04611,-0.0977 -0.09591,-0.19412 -0.158969,-0.28181 -0.06301,-0.0877 -0.139904,-0.16652 -0.232382,-0.22239 -0.144341,-0.0872 -0.322165,-0.11328 -0.488106,-0.0831 -0.165993,0.0301 -0.319788,0.11422 -0.443901,0.22848 -0.24812,0.22849 -0.371229,0.56389 -0.429166,0.89619 -0.109695,0.6285 -0.01236,1.29159 0.274157,1.86169 0.28641,0.5701 0.760362,1.04426 1.330646,1.33014 0.570339,0.28589 1.234209,0.38173 1.862114,0.26861 0.627799,-0.11313 1.216306,-0.43492 1.649908,-0.90289 0.514142,-0.55488 0.800922,-1.301 0.855638,-2.05551 0.05461,-0.75452 -0.113709,-1.516 -0.421877,-2.20684 -0.602237,-1.34968 -2.458594,-2.87702 -5.140592,-2.87702 z"
       inkscape:export-filename="/home/meziane/Documents/ZZIN/Activites/LogoPhysMOD/Livraison/SVG/IconCarre.png"
       inkscape:export-xdpi="573.164"
       inkscape:export-ydpi="573.164" />
  </g>
</svg>
