<?xml version="1.0" encoding="UTF-8" standalone="no"?>
<!-- Created with Inkscape (http://www.inkscape.org/) -->

<svg
   width="47.279198mm"
   height="38.767151mm"
   viewBox="0 0 47.279198 38.767151"
   version="1.1"
   id="svg40646"
   inkscape:version="1.1.2 (0a00cf5339, 2022-02-04)"
   sodipodi:docname="FinalLogoCarreFB.svg"
   inkscape:export-filename="/home/meziane/Documents/ZZIN/Activites/LogoPhysMOD/Livraison/SVG/FinalLogoCarreFB.png"
   inkscape:export-xdpi="573.164"
   inkscape:export-ydpi="573.164"
   xmlns:inkscape="http://www.inkscape.org/namespaces/inkscape"
   xmlns:sodipodi="http://sodipodi.sourceforge.net/DTD/sodipodi-0.dtd"
   xmlns="http://www.w3.org/2000/svg"
   xmlns:svg="http://www.w3.org/2000/svg">
  <sodipodi:namedview
     id="namedview40648"
     pagecolor="#03738b"
     bordercolor="#666666"
     borderopacity="1.0"
     inkscape:pageshadow="2"
     inkscape:pageopacity="0"
     inkscape:pagecheckerboard="0"
     inkscape:document-units="mm"
     showgrid="false"
     fit-margin-top="0"
     fit-margin-left="0"
     fit-margin-right="0"
     fit-margin-bottom="0"
     inkscape:zoom="1.2810466"
     inkscape:cx="53.471903"
     inkscape:cy="-26.150493"
     inkscape:window-width="1920"
     inkscape:window-height="1016"
     inkscape:window-x="0"
     inkscape:window-y="0"
     inkscape:window-maximized="1"
     inkscape:current-layer="layer1"
     showborder="false" />
  <defs
     id="defs40643" />
  <g
     inkscape:label="Layer 1"
     inkscape:groupmode="layer"
     id="layer1"
     transform="translate(-84.585668,-152.86816)">
    <g
       id="g23524"
       transform="translate(-3781.9896,-30.224536)"
       style="fill:#ffffff">
      <g
         id="g854"
         style="fill:#ffffff">
        <g
           id="g23506"
           style="fill:#ffffff">
          <path
             id="rect22687"
             style="font-size:6.9664px;line-height:1.25;opacity:1;fill:#ffffff;fill-opacity:1;stroke:none;stroke-width:0.3;stroke-linecap:round;stroke-linejoin:round;stroke-opacity:0.423453"
             d="m 14774.967,692.00391 c -7.209,0 -12.732,2.19959 -16.571,6.59961 -2.359,2.67472 -3.713,5.61686 -4.089,8.82031 1.038,-0.39876 2.085,-0.77793 3.146,-1.11719 5.253,-1.67972 10.817,-2.55749 16.305,-2.01758 4.396,0.43255 8.699,1.78015 12.558,3.92969 l 4.731,-11.79297 c -0.281,-0.18724 -0.773,-0.46724 -1.475,-0.8418 -4.774,-2.38726 -9.643,-3.58007 -14.605,-3.58007 z m -115.99,0.70117 v 0.92383 c 0.728,0.62533 1.446,1.26138 2.15,1.91015 4.993,4.60299 9.465,9.73824 14.293,14.51367 4.334,4.28672 8.99,8.30741 14.264,11.36524 4.626,2.68283 9.764,4.60603 15.07,5.16015 V 693.5293 l 16.221,27.26172 v 3.4414 c 1.55,-0.55949 3.077,-1.19022 4.57,-1.87304 5.831,-2.66616 11.271,-6.10148 16.871,-9.22266 0.398,-0.22163 0.797,-0.43792 1.197,-0.65625 l 11.766,-19.77539 h -19.871 l -5.688,12.35742 -5.687,-12.35742 h -19.379 -17.623 v 16.5 h -10.391 v -16.5 z"
             transform="scale(0.26458333)"
             sodipodi:nodetypes="sccsscccsccsssccccssccccccccccc" />
          <path
             id="path22695"
             style="opacity:1;fill:#ffffff;fill-opacity:1;stroke:none;stroke-width:0.999999px;stroke-linecap:butt;stroke-linejoin:miter;stroke-opacity:1"
             d="m 14613.828,692.70508 v 48.49414 c 2.56,-0.0283 5.119,-0.0904 7.678,-0.1875 3.295,-0.12502 6.587,-0.30988 9.877,-0.52539 v -13.44727 h 9.267 c 4.494,0 8.098,-1.26334 10.813,-3.79101 2.714,-2.52768 4.354,-6.03762 4.916,-10.53125 0.09,-0.79574 0.141,-1.66342 0.141,-2.59961 0,-5.24259 -1.849,-9.47724 -5.547,-12.70703 -3.511,-3.13618 -7.91,-4.70508 -13.2,-4.70508 z m 45.149,9.01172 v 36.69336 c 1.514,-0.10109 3.028,-0.19796 4.543,-0.28321 4.401,-0.24767 8.811,-0.41232 13.22,-0.46093 v -13.08399 h 10.391 v 13.2168 c 2.96,0.11547 5.916,0.2981 8.867,0.57031 2.918,0.26923 5.837,0.62437 8.756,0.99414 v -8.49023 c -6.862,-1.2496 -13.447,-4.3666 -19.318,-8.23438 -8.238,-5.42622 -15.405,-12.30332 -23.153,-18.4082 -1.086,-0.85617 -2.191,-1.69166 -3.306,-2.51367 z m -27.524,4.25781 h 4.002 c 0.983,0 1.778,0.23503 2.387,0.70312 1.17,0.88937 1.756,1.94315 1.756,3.16016 0,1.54469 -0.445,2.71402 -1.334,3.50977 -0.89,0.79574 -2.085,1.19336 -3.582,1.19336 h -3.229 z m 140.137,5.1582 c -1.423,0.0199 -2.845,0.098 -4.262,0.21485 -4.225,0.34851 -8.442,1.05234 -12.502,2.25195 0.398,1.27376 0.977,2.47776 1.746,3.60937 1.639,2.29361 3.838,3.90952 6.6,4.84571 0.515,0.23403 1.381,0.49066 2.598,0.77148 l 1.544,0.35156 1.475,0.28125 2.246,0.28125 c 2.248,0.28086 3.35,1.19359 3.301,2.73829 -0.05,1.91916 -1.545,2.8789 -4.494,2.8789 -4.026,0 -7.98,-1.70992 -11.865,-5.12695 l -5.547,13.69141 c 5.851,3.3234 12.169,4.98632 18.957,4.98632 4.821,0 9.034,-1.03026 12.638,-3.08984 4.12,-2.34044 6.74,-5.68783 7.864,-10.04102 0.421,-1.59152 0.632,-3.18195 0.632,-4.77343 0,-3.32342 -0.936,-6.15566 -2.808,-8.4961 -0.195,-0.24362 -0.402,-0.47376 -0.611,-0.70117 -3.053,-2.23076 -6.706,-3.5528 -10.434,-4.18164 -2.337,-0.3941 -4.707,-0.52534 -7.078,-0.49219 z m -32.922,10.39258 c -0.06,0.0337 -0.111,0.0679 -0.166,0.10156 -5.535,3.35817 -11.36,6.56111 -17.527,8.35743 v 11.18359 c 4.738,0.33556 9.475,0.39789 14.209,-0.10547 1.163,-0.12366 2.324,-0.27963 3.484,-0.43945 z"
             transform="scale(0.26458333)" />
        </g>
        <g
           id="g22709"
           transform="translate(2918.1604,171.22484)"
           style="fill:#ffffff;fill-opacity:1">
          <path
             id="path22703"
             style="fill:#ffffff;fill-opacity:1;stroke:none;stroke-width:1.00157;stroke-linecap:round;stroke-linejoin:round;stroke-opacity:0.423453"
             d="m 14613.828,746.9082 v 64.11328 h 15.846 v -42.31445 h 1.099 l 8.61,42.31445 h 14.929 l 8.61,-42.31445 h 1.098 v 42.31445 h 15.845 v -0.002 h 64.112 V 746.9082 h -0.774 c -1.807,0.0718 -3.596,0.63825 -5.109,1.63086 -1.729,1.13439 -3.092,2.81996 -3.84,4.74805 -1.006,2.59102 -0.89,5.48897 -0.377,8.2207 0.513,2.73158 1.404,5.38013 1.92,8.11133 0.889,4.71201 0.63,9.64872 -0.834,14.21484 -1.464,4.5662 -4.141,8.74898 -7.733,11.92579 -3.591,3.17688 -8.095,5.32852 -12.837,6.03711 -4.743,0.70869 -9.707,-0.0405 -13.989,-2.19922 -4.878,-2.45961 -8.817,-6.76576 -10.736,-11.88086 -1.919,-5.11499 -1.771,-10.99222 0.5,-15.96094 1.406,-3.07707 3.615,-5.80687 6.43,-7.68359 2.815,-1.87669 6.24,-2.87138 9.615,-2.62696 2.617,0.18936 5.213,1.14261 7.166,2.89453 1.953,1.75189 3.206,4.33247 3.127,6.95508 -0.04,1.3112 -0.408,2.61618 -1.088,3.73828 -0.68,1.12222 -1.672,2.05716 -2.848,2.63868 -1.176,0.58159 -2.533,0.80159 -3.828,0.59179 -1.295,-0.20976 -2.52,-0.85333 -3.402,-1.82422 -0.932,-1.02512 -1.45,-2.34883 -2.041,-3.60156 -0.296,-0.62627 -0.615,-1.24444 -1.02,-1.80664 -0.404,-0.56209 -0.897,-1.06756 -1.49,-1.42578 -0.925,-0.55918 -2.065,-0.72641 -3.129,-0.5332 -1.064,0.19313 -2.05,0.73233 -2.846,1.46484 -1.59,1.46491 -2.38,3.61569 -2.752,5.74609 -0.703,4.02943 -0.08,8.28056 1.758,11.93555 1.836,3.65503 4.875,6.69454 8.532,8.52734 3.656,1.83289 7.912,2.44788 11.937,1.72266 4.025,-0.72529 7.798,-2.78884 10.578,-5.78906 3.297,-3.55741 5.136,-8.34043 5.487,-13.17774 0.35,-4.8373 -0.729,-9.71932 -2.706,-14.14843 -3.86,-8.65301 -15.762,-18.44532 -32.957,-18.44532 h -14.826 -25.463 l -7.326,32.14844 h -0.457 l -7.328,-32.14844 z m 130.151,0 v 64.11328 h 22.896 c 23.447,0 25.645,-8.06034 25.645,-27.84375 v -8.42578 c 0,-19.78344 -2.198,-27.84375 -25.645,-27.84375 z m 18.134,15.57032 h 4.762 c 5.862,0 7.328,2.38218 7.328,6.4121 v 20.14844 c 0,4.03 -1.466,6.41211 -7.328,6.41211 h -4.762 z"
             transform="matrix(0.26458333,0,0,0.26458333,-2918.1604,-171.22484)" />
        </g>
        <g
           id="g23512"
           style="fill:#ffffff">
          <g
             aria-label="Lyon"
             id="text22713"
             style="font-size:6.62761px;line-height:1.25;fill:#ffffff;stroke-width:0.264583">
            <path
               d="m 3866.5753,220.61525 v -4.445 h 1.6002 v 2.99085 h 1.3462 v 1.45415 z"
               style="font-size:6.35px;font-family:'Intrepid ExtraBold';-inkscape-font-specification:'Intrepid ExtraBold, Normal';fill:#ffffff"
               id="path40821" />
            <path
               d="m 3871.8648,217.50375 h 1.5621 l -1.8986,4.3561 h -1.5875 l 0.7493,-1.51765 -1.3653,-2.83845 h 1.632 l 0.4635,1.5621 z"
               style="font-size:6.35px;font-family:'Intrepid ExtraBold';-inkscape-font-specification:'Intrepid ExtraBold, Normal';fill:#ffffff"
               id="path40823" />
            <path
               d="m 3873.2428,219.05315 q 0,-0.79375 0.5588,-1.2446 0.5143,-0.41275 1.3271,-0.41275 0.8001,0 1.3208,0.4191 0.5652,0.4572 0.5652,1.23825 0,0.78105 -0.5652,1.23825 -0.5207,0.4191 -1.3208,0.4191 -0.8128,0 -1.3271,-0.41275 -0.5588,-0.45085 -0.5588,-1.2446 z m 1.8859,0.46355 q 0.1905,0 0.2985,-0.13335 0.1143,-0.13335 0.1143,-0.3302 0,-0.1905 -0.108,-0.3302 -0.1079,-0.1397 -0.2984,-0.1397 -0.1969,0 -0.3112,0.1397 -0.1079,0.13335 -0.1079,0.3302 0,0.19685 0.1079,0.3302 0.1143,0.13335 0.3048,0.13335 z"
               style="font-size:6.35px;font-family:'Intrepid ExtraBold';-inkscape-font-specification:'Intrepid ExtraBold, Normal';fill:#ffffff"
               id="path40825" />
            <path
               d="m 3877.3194,220.61525 v -3.1115 h 1.4224 v 0.5207 q 0.025,-0.0317 0.064,-0.0889 0.4064,-0.5207 0.9525,-0.5207 0.089,0 0.2032,0.019 0.889,0.1524 0.889,1.1811 v 2.00025 h -1.5049 v -1.5748 q 0,-0.3429 -0.1905,-0.38735 -0.083,-0.006 -0.1588,0.019 -0.1651,0.0889 -0.1651,0.3683 v 1.5748 z"
               style="font-size:6.35px;font-family:'Intrepid ExtraBold';-inkscape-font-specification:'Intrepid ExtraBold, Normal';fill:#ffffff"
               id="path40827" />
          </g>
          <g
             aria-label="2024"
             id="text22717"
             style="font-size:6.62761px;line-height:1.25;fill:#ffffff;stroke-width:0.264583">
            <path
               d="m 3896.2138,220.73042 1.9558,-1.905 q 0.6223,-0.60325 0.6477,-0.88265 0.019,-0.1778 -0.082,-0.3048 -0.1016,-0.127 -0.2794,-0.127 -0.4128,0 -0.4001,0.48895 0,0.0317 0.01,0.0762 h -1.5685 q -0.01,-0.1524 0.01,-0.2921 0.076,-0.8128 0.6794,-1.23825 0.5525,-0.3937 1.3907,-0.37465 1.0922,0.0254 1.5811,0.7493 0.2731,0.4064 0.2731,0.88265 0,0.5207 -0.3239,0.9271 -0.2984,0.36195 -0.8064,0.5715 l -0.4699,0.1905 1.6383,-0.10795 v 1.3462 z"
               style="font-size:6.35px;font-family:'Intrepid ExtraBold';-inkscape-font-specification:'Intrepid ExtraBold, Normal';fill:#ffffff"
               id="path40794" />
            <path
               d="m 3900.8112,218.52697 q 0,-0.9271 0.5779,-1.6002 0.6096,-0.7112 1.524,-0.7112 0.9906,0 1.5621,0.6731 0.5334,0.635 0.5334,1.6383 0,0.94615 -0.5652,1.60655 -0.5969,0.6985 -1.5303,0.6985 -0.8954,0 -1.5113,-0.7112 -0.5906,-0.6858 -0.5906,-1.59385 z m 2.1019,0.97155 q 0.3175,0.006 0.4572,-0.34925 0.1079,-0.254 0.1016,-0.6223 -0.01,-0.97155 -0.5715,-0.97155 -0.5398,0 -0.5334,0.9779 0.01,0.95885 0.5461,0.9652 z"
               style="font-size:6.35px;font-family:'Intrepid ExtraBold';-inkscape-font-specification:'Intrepid ExtraBold, Normal';fill:#ffffff"
               id="path40796" />
            <path
               d="m 3905.0467,220.73042 1.9558,-1.905 q 0.6223,-0.60325 0.6477,-0.88265 0.019,-0.1778 -0.083,-0.3048 -0.1016,-0.127 -0.2794,-0.127 -0.4127,0 -0.4,0.48895 0,0.0317 0.01,0.0762 h -1.5684 q -0.01,-0.1524 0.01,-0.2921 0.076,-0.8128 0.6795,-1.23825 0.5524,-0.3937 1.3906,-0.37465 1.0922,0.0254 1.5812,0.7493 0.273,0.4064 0.273,0.88265 0,0.5207 -0.3238,0.9271 -0.2985,0.36195 -0.8065,0.5715 l -0.4699,0.1905 1.6383,-0.10795 v 1.3462 z"
               style="font-size:6.35px;font-family:'Intrepid ExtraBold';-inkscape-font-specification:'Intrepid ExtraBold, Normal';fill:#ffffff"
               id="path40798" />
            <path
               d="m 3909.5996,219.87952 v -1.1557 l 1.8161,-2.4384 h 1.886 v 2.3876 l 0.5524,-0.0381 v 1.2446 l -0.5842,-0.0381 v 0.889 h -1.4986 l 0.051,-0.8509 z m 2.2479,-1.20015 v -1.0033 l -0.762,1.0033 z"
               style="font-size:6.35px;font-family:'Intrepid ExtraBold';-inkscape-font-specification:'Intrepid ExtraBold, Normal';fill:#ffffff"
               id="path40800" />
          </g>
        </g>
      </g>
    </g>
  </g>
</svg>
