<?xml version="1.0" encoding="UTF-8" standalone="no"?>
<!-- Created with Inkscape (http://www.inkscape.org/) -->

<svg
   width="102.59524mm"
   height="13.377951mm"
   viewBox="0 0 102.59524 13.377951"
   version="1.1"
   id="svg40925"
   inkscape:version="1.1.2 (0a00cf5339, 2022-02-04)"
   sodipodi:docname="FinalLogoAlongeFB.svg"
   inkscape:export-filename="/home/meziane/Documents/ZZIN/Activites/LogoPhysMOD/Livraison/SVG/FinalLogoAlongeFB.png"
   inkscape:export-xdpi="573.164"
   inkscape:export-ydpi="573.164"
   xmlns:inkscape="http://www.inkscape.org/namespaces/inkscape"
   xmlns:sodipodi="http://sodipodi.sourceforge.net/DTD/sodipodi-0.dtd"
   xmlns="http://www.w3.org/2000/svg"
   xmlns:svg="http://www.w3.org/2000/svg">
  <sodipodi:namedview
     id="namedview40927"
     pagecolor="#03738b"
     bordercolor="#666666"
     borderopacity="1.0"
     inkscape:pageshadow="2"
     inkscape:pageopacity="0"
     inkscape:pagecheckerboard="0"
     inkscape:document-units="mm"
     showgrid="false"
     fit-margin-top="0"
     fit-margin-left="0"
     fit-margin-right="0"
     fit-margin-bottom="0"
     inkscape:zoom="1.2810465"
     inkscape:cx="131.53309"
     inkscape:cy="-33.176001"
     inkscape:window-width="1920"
     inkscape:window-height="1016"
     inkscape:window-x="0"
     inkscape:window-y="0"
     inkscape:window-maximized="1"
     inkscape:current-layer="g40996"
     showborder="false" />
  <defs
     id="defs40922" />
  <g
     inkscape:label="Layer 1"
     inkscape:groupmode="layer"
     id="layer1"
     transform="translate(-65.6022,-177.12883)">
    <g
       id="g40996"
       transform="translate(-3941.9701,-5.9638719)"
       inkscape:export-filename="/home/meziane/Documents/ZZIN/Activites/LogoPhysMOD/FinalLogoAlonge.png"
       inkscape:export-xdpi="573.164"
       inkscape:export-ydpi="573.164">
      <g
         id="g29193"
         transform="translate(140.99753)"
         style="fill:#ffffff"
         inkscape:export-filename="/home/meziane/Documents/ZZIN/Activites/LogoPhysMOD/Livraison/SVG/FinalLogoAlongeFB.png"
         inkscape:export-xdpi="573.164"
         inkscape:export-ydpi="573.164">
        <path
           id="path29189"
           style="font-size:6.9664px;line-height:1.25;opacity:1;fill:#ffffff;fill-opacity:1;stroke:none;stroke-width:0.3;stroke-linecap:round;stroke-linejoin:round;stroke-opacity:0.423453"
           d="m 14774.967,692.00391 c -7.209,0 -12.732,2.19959 -16.571,6.59961 -2.359,2.67472 -3.713,5.61686 -4.089,8.82031 1.038,-0.39876 2.085,-0.77793 3.146,-1.11719 5.253,-1.67972 10.817,-2.55749 16.305,-2.01758 4.396,0.43255 8.699,1.78015 12.558,3.92969 l 4.731,-11.79297 c -0.281,-0.18724 -0.773,-0.46724 -1.475,-0.8418 -4.774,-2.38726 -9.643,-3.58007 -14.605,-3.58007 z m -115.99,0.70117 v 0.92383 c 0.728,0.62533 1.446,1.26138 2.15,1.91015 4.993,4.60299 9.465,9.73824 14.293,14.51367 4.334,4.28672 8.99,8.30741 14.264,11.36524 4.626,2.68283 9.764,4.60603 15.07,5.16015 V 693.5293 l 16.221,27.26172 v 3.4414 c 1.55,-0.55949 3.077,-1.19022 4.57,-1.87304 5.831,-2.66616 11.271,-6.10148 16.871,-9.22266 0.398,-0.22163 0.797,-0.43792 1.197,-0.65625 l 11.766,-19.77539 h -19.871 l -5.688,12.35742 -5.687,-12.35742 h -19.379 -17.623 v 16.5 h -10.391 v -16.5 z"
           transform="scale(0.26458333)"
           sodipodi:nodetypes="sccsscccsccsssccccssccccccccccc" />
      </g>
      <g
         id="g29197"
         transform="matrix(0.7612562,0,0,0.7612562,3334.471,163.18515)"
         style="fill:#ffffff;fill-opacity:1"
         inkscape:export-filename="/home/meziane/Documents/ZZIN/Activites/LogoPhysMOD/Livraison/SVG/FinalLogoAlongeFB.png"
         inkscape:export-xdpi="573.164"
         inkscape:export-ydpi="573.164">
        <path
           id="path29195"
           style="fill:#ffffff;fill-opacity:1;stroke:none;stroke-width:1.00157;stroke-linecap:round;stroke-linejoin:round;stroke-opacity:0.423453"
           d="m 14613.828,746.9082 v 64.11328 h 15.846 v -42.31445 h 1.099 l 8.61,42.31445 h 14.929 l 8.61,-42.31445 h 1.098 v 42.31445 h 15.845 v -0.002 h 64.112 V 746.9082 h -0.774 c -1.807,0.0718 -3.596,0.63825 -5.109,1.63086 -1.729,1.13439 -3.092,2.81996 -3.84,4.74805 -1.006,2.59102 -0.89,5.48897 -0.377,8.2207 0.513,2.73158 1.404,5.38013 1.92,8.11133 0.889,4.71201 0.63,9.64872 -0.834,14.21484 -1.464,4.5662 -4.141,8.74898 -7.733,11.92579 -3.591,3.17688 -8.095,5.32852 -12.837,6.03711 -4.743,0.70869 -9.707,-0.0405 -13.989,-2.19922 -4.878,-2.45961 -8.817,-6.76576 -10.736,-11.88086 -1.919,-5.11499 -1.771,-10.99222 0.5,-15.96094 1.406,-3.07707 3.615,-5.80687 6.43,-7.68359 2.815,-1.87669 6.24,-2.87138 9.615,-2.62696 2.617,0.18936 5.213,1.14261 7.166,2.89453 1.953,1.75189 3.206,4.33247 3.127,6.95508 -0.04,1.3112 -0.408,2.61618 -1.088,3.73828 -0.68,1.12222 -1.672,2.05716 -2.848,2.63868 -1.176,0.58159 -2.533,0.80159 -3.828,0.59179 -1.295,-0.20976 -2.52,-0.85333 -3.402,-1.82422 -0.932,-1.02512 -1.45,-2.34883 -2.041,-3.60156 -0.296,-0.62627 -0.615,-1.24444 -1.02,-1.80664 -0.404,-0.56209 -0.897,-1.06756 -1.49,-1.42578 -0.925,-0.55918 -2.065,-0.72641 -3.129,-0.5332 -1.064,0.19313 -2.05,0.73233 -2.846,1.46484 -1.59,1.46491 -2.38,3.61569 -2.752,5.74609 -0.703,4.02943 -0.08,8.28056 1.758,11.93555 1.836,3.65503 4.875,6.69454 8.532,8.52734 3.656,1.83289 7.912,2.44788 11.937,1.72266 4.025,-0.72529 7.798,-2.78884 10.578,-5.78906 3.297,-3.55741 5.136,-8.34043 5.487,-13.17774 0.35,-4.8373 -0.729,-9.71932 -2.706,-14.14843 -3.86,-8.65301 -15.762,-18.44532 -32.957,-18.44532 h -14.826 -25.463 l -7.326,32.14844 h -0.457 l -7.328,-32.14844 z m 130.151,0 v 64.11328 h 22.896 c 23.447,0 25.645,-8.06034 25.645,-27.84375 v -8.42578 c 0,-19.78344 -2.198,-27.84375 -25.645,-27.84375 z m 18.134,15.57032 h 4.762 c 5.862,0 7.328,2.38218 7.328,6.4121 v 20.14844 c 0,4.03 -1.466,6.41211 -7.328,6.41211 h -4.762 z"
           transform="matrix(0.26458333,0,0,0.26458333,-2918.1604,-171.22484)" />
      </g>
      <text
         xml:space="preserve"
         style="font-style:normal;font-weight:normal;font-size:6.62761px;line-height:1.25;font-family:sans-serif;fill:#ffffff;fill-opacity:1;stroke:none;stroke-width:0.264583"
         x="4093.8503"
         y="189.55508"
         id="text29201"
         inkscape:export-filename="/home/meziane/Documents/ZZIN/Activites/LogoPhysMOD/Livraison/SVG/FinalLogoAlongeFB.png"
         inkscape:export-xdpi="573.164"
         inkscape:export-ydpi="573.164"><tspan
           sodipodi:role="line"
           id="tspan29199"
           style="font-style:normal;font-variant:normal;font-weight:normal;font-stretch:normal;font-size:5.99722px;font-family:'Intrepid ExtraBold';-inkscape-font-specification:'Intrepid ExtraBold, Normal';font-variant-ligatures:normal;font-variant-caps:normal;font-variant-numeric:normal;font-variant-east-asian:normal;fill:#ffffff;fill-opacity:1;stroke-width:0.264583"
           x="4093.8503"
           y="189.55508">Lyon</tspan></text>
      <text
         xml:space="preserve"
         style="font-style:normal;font-weight:normal;font-size:6.62761px;line-height:1.25;font-family:sans-serif;fill:#ffffff;fill-opacity:1;stroke:none;stroke-width:0.264583"
         x="4093.5732"
         y="196.09569"
         id="text29205"
         inkscape:export-filename="/home/meziane/Documents/ZZIN/Activites/LogoPhysMOD/Livraison/SVG/FinalLogoAlongeFB.png"
         inkscape:export-xdpi="573.164"
         inkscape:export-ydpi="573.164"><tspan
           sodipodi:role="line"
           id="tspan29203"
           style="font-style:normal;font-variant:normal;font-weight:normal;font-stretch:normal;font-size:5.99722px;font-family:'Intrepid ExtraBold';-inkscape-font-specification:'Intrepid ExtraBold, Normal';font-variant-ligatures:normal;font-variant-caps:normal;font-variant-numeric:normal;font-variant-east-asian:normal;fill:#ffffff;fill-opacity:1;stroke-width:0.264583"
           x="4093.5732"
           y="196.09569">2024</tspan></text>
      <g
         id="g29658"
         style="fill:#ffffff"
         inkscape:export-filename="/home/meziane/Documents/ZZIN/Activites/LogoPhysMOD/Livraison/SVG/FinalLogoAlongeFB.png"
         inkscape:export-xdpi="573.164"
         inkscape:export-ydpi="573.164">
        <path
           id="path29216"
           style="opacity:1;fill:#ffffff;fill-opacity:1;stroke:none;stroke-width:0.264583px;stroke-linecap:butt;stroke-linejoin:miter;stroke-opacity:1"
           d="m 4007.5728,183.18776 -5e-4,13.00385 h 4.6447 v -3.91966 h 2.4519 c 1.189,0 2.1426,-0.33426 2.8609,-1.00304 0.7181,-0.66877 1.152,-1.59745 1.3007,-2.78639 0.025,-0.21054 0.037,-0.44012 0.037,-0.68781 0,-1.3871 -0.4892,-2.50752 -1.4676,-3.36207 -0.9289,-0.82978 -2.0929,-1.24488 -3.4925,-1.24488 z m 11.9457,2.38434 v 10.61951 h 4.6998 v -4.56974 h 2.7492 v 4.56974 h 4.6628 v -2.90525 c -1.8156,-0.33062 -3.5579,-1.15584 -5.1112,-2.17919 -2.1797,-1.43569 -4.0759,-3.25474 -6.1259,-4.86999 -0.2874,-0.22653 -0.5797,-0.44758 -0.8747,-0.66508 z m -7.2824,1.12655 h 1.0588 c 0.2601,0 0.4705,0.0622 0.6316,0.18604 0.3096,0.23531 0.4646,0.51412 0.4646,0.83612 0,0.4087 -0.1177,0.71808 -0.353,0.92863 -0.2354,0.21054 -0.5516,0.31574 -0.9477,0.31574 h -0.8543 z m 37.0779,1.36426 c -0.3765,0.005 -0.7528,0.0264 -1.1277,0.0574 -1.1178,0.0922 -2.2339,0.27784 -3.3083,0.59531 0.1053,0.33723 0.2587,0.65592 0.4625,0.9555 0.4336,0.60686 1.0154,1.0344 1.7462,1.28209 0.1363,0.0619 0.3654,0.12981 0.6874,0.20412 l 0.4085,0.093 0.3903,0.0744 0.5942,0.0744 c 0.5948,0.0743 0.8864,0.31581 0.8734,0.7245 -0.012,0.50778 -0.4088,0.76171 -1.189,0.76171 -1.0652,0 -2.1114,-0.45241 -3.1393,-1.3565 l -1.4676,3.62251 c 1.548,0.87933 3.2197,1.3193 5.0157,1.3193 1.2755,0 2.3902,-0.27259 3.3438,-0.81752 1.0901,-0.61924 1.7833,-1.5049 2.0807,-2.65668 0.1113,-0.42108 0.1672,-0.84189 0.1672,-1.26298 0,-0.87931 -0.2477,-1.62868 -0.743,-2.24792 -0.052,-0.0648 -0.1069,-0.12605 -0.1627,-0.18655 -0.8075,-0.58981 -1.7735,-0.93956 -2.7596,-1.10588 -0.6183,-0.10427 -1.2454,-0.13899 -1.8727,-0.13022 z m -8.7106,2.75022 c -0.015,0.009 -0.029,0.018 -0.044,0.0269 -1.4644,0.88851 -3.0056,1.73544 -4.6373,2.21072 v 3.14089 h 4.6813 z" />
      </g>
    </g>
  </g>
</svg>
